G04 #@! TF.GenerationSoftware,KiCad,Pcbnew,(6.0.0)*
G04 #@! TF.CreationDate,2022-04-27T13:01:12+04:00*
G04 #@! TF.ProjectId,Gateway_STM32_ver_2_0,47617465-7761-4795-9f53-544d33325f76,rev?*
G04 #@! TF.SameCoordinates,Original*
G04 #@! TF.FileFunction,Legend,Bot*
G04 #@! TF.FilePolarity,Positive*
%FSLAX46Y46*%
G04 Gerber Fmt 4.6, Leading zero omitted, Abs format (unit mm)*
G04 Created by KiCad (PCBNEW (6.0.0)) date 2022-04-27 13:01:12*
%MOMM*%
%LPD*%
G01*
G04 APERTURE LIST*
G04 Aperture macros list*
%AMRoundRect*
0 Rectangle with rounded corners*
0 $1 Rounding radius*
0 $2 $3 $4 $5 $6 $7 $8 $9 X,Y pos of 4 corners*
0 Add a 4 corners polygon primitive as box body*
4,1,4,$2,$3,$4,$5,$6,$7,$8,$9,$2,$3,0*
0 Add four circle primitives for the rounded corners*
1,1,$1+$1,$2,$3*
1,1,$1+$1,$4,$5*
1,1,$1+$1,$6,$7*
1,1,$1+$1,$8,$9*
0 Add four rect primitives between the rounded corners*
20,1,$1+$1,$2,$3,$4,$5,0*
20,1,$1+$1,$4,$5,$6,$7,0*
20,1,$1+$1,$6,$7,$8,$9,0*
20,1,$1+$1,$8,$9,$2,$3,0*%
G04 Aperture macros list end*
%ADD10C,0.200000*%
%ADD11C,0.120000*%
%ADD12C,0.010000*%
%ADD13C,0.240000*%
%ADD14R,0.300000X0.300000*%
%ADD15R,1.200000X1.400000*%
%ADD16R,1.000000X1.400000*%
%ADD17C,0.900000*%
%ADD18C,8.600000*%
%ADD19C,1.000000*%
%ADD20R,1.350000X4.200000*%
%ADD21C,3.250000*%
%ADD22R,1.500000X1.500000*%
%ADD23C,1.500000*%
%ADD24C,2.300000*%
%ADD25R,1.398000X1.398000*%
%ADD26C,1.398000*%
%ADD27C,1.530000*%
%ADD28C,2.445000*%
%ADD29R,4.200000X1.350000*%
%ADD30C,1.700000*%
%ADD31R,1.600000X1.600000*%
%ADD32O,1.600000X1.600000*%
%ADD33RoundRect,0.250000X-0.600000X-0.600000X0.600000X-0.600000X0.600000X0.600000X-0.600000X0.600000X0*%
%ADD34O,5.000000X2.500000*%
%ADD35O,4.500000X2.250000*%
%ADD36O,2.250000X4.500000*%
%ADD37R,1.000000X1.000000*%
%ADD38O,1.000000X1.000000*%
%ADD39C,1.600000*%
%ADD40C,2.150000*%
%ADD41RoundRect,0.200000X-0.200000X-0.275000X0.200000X-0.275000X0.200000X0.275000X-0.200000X0.275000X0*%
%ADD42RoundRect,0.225000X-0.225000X-0.250000X0.225000X-0.250000X0.225000X0.250000X-0.225000X0.250000X0*%
%ADD43RoundRect,0.200000X0.200000X0.275000X-0.200000X0.275000X-0.200000X-0.275000X0.200000X-0.275000X0*%
%ADD44R,0.650000X0.400000*%
%ADD45R,1.000000X0.550000*%
%ADD46R,3.400000X1.000000*%
%ADD47R,2.400000X1.000000*%
%ADD48R,1.800000X0.500000*%
%ADD49RoundRect,0.250000X0.475000X-0.250000X0.475000X0.250000X-0.475000X0.250000X-0.475000X-0.250000X0*%
%ADD50C,0.950000*%
%ADD51R,0.620000X1.400000*%
%ADD52R,1.350000X1.420000*%
%ADD53R,1.100000X2.400000*%
%ADD54R,1.350000X1.270000*%
%ADD55RoundRect,0.225000X0.250000X-0.225000X0.250000X0.225000X-0.250000X0.225000X-0.250000X-0.225000X0*%
G04 APERTURE END LIST*
D10*
X85761904Y-96549523D02*
X86409523Y-96549523D01*
X86485714Y-96587619D01*
X86523809Y-96625714D01*
X86561904Y-96701904D01*
X86561904Y-96854285D01*
X86523809Y-96930476D01*
X86485714Y-96968571D01*
X86409523Y-97006666D01*
X85761904Y-97006666D01*
X85838095Y-97349523D02*
X85800000Y-97387619D01*
X85761904Y-97463809D01*
X85761904Y-97654285D01*
X85800000Y-97730476D01*
X85838095Y-97768571D01*
X85914285Y-97806666D01*
X85990476Y-97806666D01*
X86104761Y-97768571D01*
X86561904Y-97311428D01*
X86561904Y-97806666D01*
X85761904Y-98301904D02*
X85761904Y-98378095D01*
X85800000Y-98454285D01*
X85838095Y-98492380D01*
X85914285Y-98530476D01*
X86066666Y-98568571D01*
X86257142Y-98568571D01*
X86409523Y-98530476D01*
X86485714Y-98492380D01*
X86523809Y-98454285D01*
X86561904Y-98378095D01*
X86561904Y-98301904D01*
X86523809Y-98225714D01*
X86485714Y-98187619D01*
X86409523Y-98149523D01*
X86257142Y-98111428D01*
X86066666Y-98111428D01*
X85914285Y-98149523D01*
X85838095Y-98187619D01*
X85800000Y-98225714D01*
X85761904Y-98301904D01*
X46715476Y-123751904D02*
X46715476Y-122951904D01*
X46525000Y-122951904D01*
X46410714Y-122990000D01*
X46334523Y-123066190D01*
X46296428Y-123142380D01*
X46258333Y-123294761D01*
X46258333Y-123409047D01*
X46296428Y-123561428D01*
X46334523Y-123637619D01*
X46410714Y-123713809D01*
X46525000Y-123751904D01*
X46715476Y-123751904D01*
X45953571Y-123028095D02*
X45915476Y-122990000D01*
X45839285Y-122951904D01*
X45648809Y-122951904D01*
X45572619Y-122990000D01*
X45534523Y-123028095D01*
X45496428Y-123104285D01*
X45496428Y-123180476D01*
X45534523Y-123294761D01*
X45991666Y-123751904D01*
X45496428Y-123751904D01*
X46570238Y-121051904D02*
X46836904Y-120670952D01*
X47027380Y-121051904D02*
X47027380Y-120251904D01*
X46722619Y-120251904D01*
X46646428Y-120290000D01*
X46608333Y-120328095D01*
X46570238Y-120404285D01*
X46570238Y-120518571D01*
X46608333Y-120594761D01*
X46646428Y-120632857D01*
X46722619Y-120670952D01*
X47027380Y-120670952D01*
X45808333Y-121051904D02*
X46265476Y-121051904D01*
X46036904Y-121051904D02*
X46036904Y-120251904D01*
X46113095Y-120366190D01*
X46189285Y-120442380D01*
X46265476Y-120480476D01*
X45046428Y-121051904D02*
X45503571Y-121051904D01*
X45275000Y-121051904D02*
X45275000Y-120251904D01*
X45351190Y-120366190D01*
X45427380Y-120442380D01*
X45503571Y-120480476D01*
X44741666Y-120328095D02*
X44703571Y-120290000D01*
X44627380Y-120251904D01*
X44436904Y-120251904D01*
X44360714Y-120290000D01*
X44322619Y-120328095D01*
X44284523Y-120404285D01*
X44284523Y-120480476D01*
X44322619Y-120594761D01*
X44779761Y-121051904D01*
X44284523Y-121051904D01*
X67964285Y-88875714D02*
X68002380Y-88913809D01*
X68116666Y-88951904D01*
X68192857Y-88951904D01*
X68307142Y-88913809D01*
X68383333Y-88837619D01*
X68421428Y-88761428D01*
X68459523Y-88609047D01*
X68459523Y-88494761D01*
X68421428Y-88342380D01*
X68383333Y-88266190D01*
X68307142Y-88190000D01*
X68192857Y-88151904D01*
X68116666Y-88151904D01*
X68002380Y-88190000D01*
X67964285Y-88228095D01*
X67507142Y-88494761D02*
X67583333Y-88456666D01*
X67621428Y-88418571D01*
X67659523Y-88342380D01*
X67659523Y-88304285D01*
X67621428Y-88228095D01*
X67583333Y-88190000D01*
X67507142Y-88151904D01*
X67354761Y-88151904D01*
X67278571Y-88190000D01*
X67240476Y-88228095D01*
X67202380Y-88304285D01*
X67202380Y-88342380D01*
X67240476Y-88418571D01*
X67278571Y-88456666D01*
X67354761Y-88494761D01*
X67507142Y-88494761D01*
X67583333Y-88532857D01*
X67621428Y-88570952D01*
X67659523Y-88647142D01*
X67659523Y-88799523D01*
X67621428Y-88875714D01*
X67583333Y-88913809D01*
X67507142Y-88951904D01*
X67354761Y-88951904D01*
X67278571Y-88913809D01*
X67240476Y-88875714D01*
X67202380Y-88799523D01*
X67202380Y-88647142D01*
X67240476Y-88570952D01*
X67278571Y-88532857D01*
X67354761Y-88494761D01*
X66935714Y-88151904D02*
X66440476Y-88151904D01*
X66707142Y-88456666D01*
X66592857Y-88456666D01*
X66516666Y-88494761D01*
X66478571Y-88532857D01*
X66440476Y-88609047D01*
X66440476Y-88799523D01*
X66478571Y-88875714D01*
X66516666Y-88913809D01*
X66592857Y-88951904D01*
X66821428Y-88951904D01*
X66897619Y-88913809D01*
X66935714Y-88875714D01*
X59114285Y-90501904D02*
X59380952Y-90120952D01*
X59571428Y-90501904D02*
X59571428Y-89701904D01*
X59266666Y-89701904D01*
X59190476Y-89740000D01*
X59152380Y-89778095D01*
X59114285Y-89854285D01*
X59114285Y-89968571D01*
X59152380Y-90044761D01*
X59190476Y-90082857D01*
X59266666Y-90120952D01*
X59571428Y-90120952D01*
X58390476Y-89701904D02*
X58771428Y-89701904D01*
X58809523Y-90082857D01*
X58771428Y-90044761D01*
X58695238Y-90006666D01*
X58504761Y-90006666D01*
X58428571Y-90044761D01*
X58390476Y-90082857D01*
X58352380Y-90159047D01*
X58352380Y-90349523D01*
X58390476Y-90425714D01*
X58428571Y-90463809D01*
X58504761Y-90501904D01*
X58695238Y-90501904D01*
X58771428Y-90463809D01*
X58809523Y-90425714D01*
X57971428Y-90501904D02*
X57819047Y-90501904D01*
X57742857Y-90463809D01*
X57704761Y-90425714D01*
X57628571Y-90311428D01*
X57590476Y-90159047D01*
X57590476Y-89854285D01*
X57628571Y-89778095D01*
X57666666Y-89740000D01*
X57742857Y-89701904D01*
X57895238Y-89701904D01*
X57971428Y-89740000D01*
X58009523Y-89778095D01*
X58047619Y-89854285D01*
X58047619Y-90044761D01*
X58009523Y-90120952D01*
X57971428Y-90159047D01*
X57895238Y-90197142D01*
X57742857Y-90197142D01*
X57666666Y-90159047D01*
X57628571Y-90120952D01*
X57590476Y-90044761D01*
X86161904Y-88649523D02*
X86809523Y-88649523D01*
X86885714Y-88687619D01*
X86923809Y-88725714D01*
X86961904Y-88801904D01*
X86961904Y-88954285D01*
X86923809Y-89030476D01*
X86885714Y-89068571D01*
X86809523Y-89106666D01*
X86161904Y-89106666D01*
X86961904Y-89906666D02*
X86961904Y-89449523D01*
X86961904Y-89678095D02*
X86161904Y-89678095D01*
X86276190Y-89601904D01*
X86352380Y-89525714D01*
X86390476Y-89449523D01*
X86961904Y-90287619D02*
X86961904Y-90440000D01*
X86923809Y-90516190D01*
X86885714Y-90554285D01*
X86771428Y-90630476D01*
X86619047Y-90668571D01*
X86314285Y-90668571D01*
X86238095Y-90630476D01*
X86200000Y-90592380D01*
X86161904Y-90516190D01*
X86161904Y-90363809D01*
X86200000Y-90287619D01*
X86238095Y-90249523D01*
X86314285Y-90211428D01*
X86504761Y-90211428D01*
X86580952Y-90249523D01*
X86619047Y-90287619D01*
X86657142Y-90363809D01*
X86657142Y-90516190D01*
X86619047Y-90592380D01*
X86580952Y-90630476D01*
X86504761Y-90668571D01*
X59214285Y-88951904D02*
X59480952Y-88570952D01*
X59671428Y-88951904D02*
X59671428Y-88151904D01*
X59366666Y-88151904D01*
X59290476Y-88190000D01*
X59252380Y-88228095D01*
X59214285Y-88304285D01*
X59214285Y-88418571D01*
X59252380Y-88494761D01*
X59290476Y-88532857D01*
X59366666Y-88570952D01*
X59671428Y-88570952D01*
X58490476Y-88151904D02*
X58871428Y-88151904D01*
X58909523Y-88532857D01*
X58871428Y-88494761D01*
X58795238Y-88456666D01*
X58604761Y-88456666D01*
X58528571Y-88494761D01*
X58490476Y-88532857D01*
X58452380Y-88609047D01*
X58452380Y-88799523D01*
X58490476Y-88875714D01*
X58528571Y-88913809D01*
X58604761Y-88951904D01*
X58795238Y-88951904D01*
X58871428Y-88913809D01*
X58909523Y-88875714D01*
X58185714Y-88151904D02*
X57652380Y-88151904D01*
X57995238Y-88951904D01*
X46505238Y-126441904D02*
X46771904Y-126060952D01*
X46962380Y-126441904D02*
X46962380Y-125641904D01*
X46657619Y-125641904D01*
X46581428Y-125680000D01*
X46543333Y-125718095D01*
X46505238Y-125794285D01*
X46505238Y-125908571D01*
X46543333Y-125984761D01*
X46581428Y-126022857D01*
X46657619Y-126060952D01*
X46962380Y-126060952D01*
X45743333Y-126441904D02*
X46200476Y-126441904D01*
X45971904Y-126441904D02*
X45971904Y-125641904D01*
X46048095Y-125756190D01*
X46124285Y-125832380D01*
X46200476Y-125870476D01*
X44981428Y-126441904D02*
X45438571Y-126441904D01*
X45210000Y-126441904D02*
X45210000Y-125641904D01*
X45286190Y-125756190D01*
X45362380Y-125832380D01*
X45438571Y-125870476D01*
X44714761Y-125641904D02*
X44219523Y-125641904D01*
X44486190Y-125946666D01*
X44371904Y-125946666D01*
X44295714Y-125984761D01*
X44257619Y-126022857D01*
X44219523Y-126099047D01*
X44219523Y-126289523D01*
X44257619Y-126365714D01*
X44295714Y-126403809D01*
X44371904Y-126441904D01*
X44600476Y-126441904D01*
X44676666Y-126403809D01*
X44714761Y-126365714D01*
X89185238Y-99881904D02*
X89451904Y-99500952D01*
X89642380Y-99881904D02*
X89642380Y-99081904D01*
X89337619Y-99081904D01*
X89261428Y-99120000D01*
X89223333Y-99158095D01*
X89185238Y-99234285D01*
X89185238Y-99348571D01*
X89223333Y-99424761D01*
X89261428Y-99462857D01*
X89337619Y-99500952D01*
X89642380Y-99500952D01*
X88423333Y-99881904D02*
X88880476Y-99881904D01*
X88651904Y-99881904D02*
X88651904Y-99081904D01*
X88728095Y-99196190D01*
X88804285Y-99272380D01*
X88880476Y-99310476D01*
X87928095Y-99081904D02*
X87851904Y-99081904D01*
X87775714Y-99120000D01*
X87737619Y-99158095D01*
X87699523Y-99234285D01*
X87661428Y-99386666D01*
X87661428Y-99577142D01*
X87699523Y-99729523D01*
X87737619Y-99805714D01*
X87775714Y-99843809D01*
X87851904Y-99881904D01*
X87928095Y-99881904D01*
X88004285Y-99843809D01*
X88042380Y-99805714D01*
X88080476Y-99729523D01*
X88118571Y-99577142D01*
X88118571Y-99386666D01*
X88080476Y-99234285D01*
X88042380Y-99158095D01*
X88004285Y-99120000D01*
X87928095Y-99081904D01*
X86899523Y-99881904D02*
X87356666Y-99881904D01*
X87128095Y-99881904D02*
X87128095Y-99081904D01*
X87204285Y-99196190D01*
X87280476Y-99272380D01*
X87356666Y-99310476D01*
X68014285Y-91975714D02*
X68052380Y-92013809D01*
X68166666Y-92051904D01*
X68242857Y-92051904D01*
X68357142Y-92013809D01*
X68433333Y-91937619D01*
X68471428Y-91861428D01*
X68509523Y-91709047D01*
X68509523Y-91594761D01*
X68471428Y-91442380D01*
X68433333Y-91366190D01*
X68357142Y-91290000D01*
X68242857Y-91251904D01*
X68166666Y-91251904D01*
X68052380Y-91290000D01*
X68014285Y-91328095D01*
X67557142Y-91594761D02*
X67633333Y-91556666D01*
X67671428Y-91518571D01*
X67709523Y-91442380D01*
X67709523Y-91404285D01*
X67671428Y-91328095D01*
X67633333Y-91290000D01*
X67557142Y-91251904D01*
X67404761Y-91251904D01*
X67328571Y-91290000D01*
X67290476Y-91328095D01*
X67252380Y-91404285D01*
X67252380Y-91442380D01*
X67290476Y-91518571D01*
X67328571Y-91556666D01*
X67404761Y-91594761D01*
X67557142Y-91594761D01*
X67633333Y-91632857D01*
X67671428Y-91670952D01*
X67709523Y-91747142D01*
X67709523Y-91899523D01*
X67671428Y-91975714D01*
X67633333Y-92013809D01*
X67557142Y-92051904D01*
X67404761Y-92051904D01*
X67328571Y-92013809D01*
X67290476Y-91975714D01*
X67252380Y-91899523D01*
X67252380Y-91747142D01*
X67290476Y-91670952D01*
X67328571Y-91632857D01*
X67404761Y-91594761D01*
X66566666Y-91518571D02*
X66566666Y-92051904D01*
X66757142Y-91213809D02*
X66947619Y-91785238D01*
X66452380Y-91785238D01*
X59164285Y-92051904D02*
X59430952Y-91670952D01*
X59621428Y-92051904D02*
X59621428Y-91251904D01*
X59316666Y-91251904D01*
X59240476Y-91290000D01*
X59202380Y-91328095D01*
X59164285Y-91404285D01*
X59164285Y-91518571D01*
X59202380Y-91594761D01*
X59240476Y-91632857D01*
X59316666Y-91670952D01*
X59621428Y-91670952D01*
X58440476Y-91251904D02*
X58821428Y-91251904D01*
X58859523Y-91632857D01*
X58821428Y-91594761D01*
X58745238Y-91556666D01*
X58554761Y-91556666D01*
X58478571Y-91594761D01*
X58440476Y-91632857D01*
X58402380Y-91709047D01*
X58402380Y-91899523D01*
X58440476Y-91975714D01*
X58478571Y-92013809D01*
X58554761Y-92051904D01*
X58745238Y-92051904D01*
X58821428Y-92013809D01*
X58859523Y-91975714D01*
X57945238Y-91594761D02*
X58021428Y-91556666D01*
X58059523Y-91518571D01*
X58097619Y-91442380D01*
X58097619Y-91404285D01*
X58059523Y-91328095D01*
X58021428Y-91290000D01*
X57945238Y-91251904D01*
X57792857Y-91251904D01*
X57716666Y-91290000D01*
X57678571Y-91328095D01*
X57640476Y-91404285D01*
X57640476Y-91442380D01*
X57678571Y-91518571D01*
X57716666Y-91556666D01*
X57792857Y-91594761D01*
X57945238Y-91594761D01*
X58021428Y-91632857D01*
X58059523Y-91670952D01*
X58097619Y-91747142D01*
X58097619Y-91899523D01*
X58059523Y-91975714D01*
X58021428Y-92013809D01*
X57945238Y-92051904D01*
X57792857Y-92051904D01*
X57716666Y-92013809D01*
X57678571Y-91975714D01*
X57640476Y-91899523D01*
X57640476Y-91747142D01*
X57678571Y-91670952D01*
X57716666Y-91632857D01*
X57792857Y-91594761D01*
X81304285Y-96691904D02*
X81570952Y-96310952D01*
X81761428Y-96691904D02*
X81761428Y-95891904D01*
X81456666Y-95891904D01*
X81380476Y-95930000D01*
X81342380Y-95968095D01*
X81304285Y-96044285D01*
X81304285Y-96158571D01*
X81342380Y-96234761D01*
X81380476Y-96272857D01*
X81456666Y-96310952D01*
X81761428Y-96310952D01*
X80923333Y-96691904D02*
X80770952Y-96691904D01*
X80694761Y-96653809D01*
X80656666Y-96615714D01*
X80580476Y-96501428D01*
X80542380Y-96349047D01*
X80542380Y-96044285D01*
X80580476Y-95968095D01*
X80618571Y-95930000D01*
X80694761Y-95891904D01*
X80847142Y-95891904D01*
X80923333Y-95930000D01*
X80961428Y-95968095D01*
X80999523Y-96044285D01*
X80999523Y-96234761D01*
X80961428Y-96310952D01*
X80923333Y-96349047D01*
X80847142Y-96387142D01*
X80694761Y-96387142D01*
X80618571Y-96349047D01*
X80580476Y-96310952D01*
X80542380Y-96234761D01*
X80161428Y-96691904D02*
X80009047Y-96691904D01*
X79932857Y-96653809D01*
X79894761Y-96615714D01*
X79818571Y-96501428D01*
X79780476Y-96349047D01*
X79780476Y-96044285D01*
X79818571Y-95968095D01*
X79856666Y-95930000D01*
X79932857Y-95891904D01*
X80085238Y-95891904D01*
X80161428Y-95930000D01*
X80199523Y-95968095D01*
X80237619Y-96044285D01*
X80237619Y-96234761D01*
X80199523Y-96310952D01*
X80161428Y-96349047D01*
X80085238Y-96387142D01*
X79932857Y-96387142D01*
X79856666Y-96349047D01*
X79818571Y-96310952D01*
X79780476Y-96234761D01*
X64071428Y-84351904D02*
X64071428Y-83551904D01*
X63880952Y-83551904D01*
X63766666Y-83590000D01*
X63690476Y-83666190D01*
X63652380Y-83742380D01*
X63614285Y-83894761D01*
X63614285Y-84009047D01*
X63652380Y-84161428D01*
X63690476Y-84237619D01*
X63766666Y-84313809D01*
X63880952Y-84351904D01*
X64071428Y-84351904D01*
X63309523Y-83628095D02*
X63271428Y-83590000D01*
X63195238Y-83551904D01*
X63004761Y-83551904D01*
X62928571Y-83590000D01*
X62890476Y-83628095D01*
X62852380Y-83704285D01*
X62852380Y-83780476D01*
X62890476Y-83894761D01*
X63347619Y-84351904D01*
X62852380Y-84351904D01*
X62090476Y-84351904D02*
X62547619Y-84351904D01*
X62319047Y-84351904D02*
X62319047Y-83551904D01*
X62395238Y-83666190D01*
X62471428Y-83742380D01*
X62547619Y-83780476D01*
X81375238Y-98201904D02*
X81641904Y-97820952D01*
X81832380Y-98201904D02*
X81832380Y-97401904D01*
X81527619Y-97401904D01*
X81451428Y-97440000D01*
X81413333Y-97478095D01*
X81375238Y-97554285D01*
X81375238Y-97668571D01*
X81413333Y-97744761D01*
X81451428Y-97782857D01*
X81527619Y-97820952D01*
X81832380Y-97820952D01*
X80613333Y-98201904D02*
X81070476Y-98201904D01*
X80841904Y-98201904D02*
X80841904Y-97401904D01*
X80918095Y-97516190D01*
X80994285Y-97592380D01*
X81070476Y-97630476D01*
X80118095Y-97401904D02*
X80041904Y-97401904D01*
X79965714Y-97440000D01*
X79927619Y-97478095D01*
X79889523Y-97554285D01*
X79851428Y-97706666D01*
X79851428Y-97897142D01*
X79889523Y-98049523D01*
X79927619Y-98125714D01*
X79965714Y-98163809D01*
X80041904Y-98201904D01*
X80118095Y-98201904D01*
X80194285Y-98163809D01*
X80232380Y-98125714D01*
X80270476Y-98049523D01*
X80308571Y-97897142D01*
X80308571Y-97706666D01*
X80270476Y-97554285D01*
X80232380Y-97478095D01*
X80194285Y-97440000D01*
X80118095Y-97401904D01*
X79356190Y-97401904D02*
X79280000Y-97401904D01*
X79203809Y-97440000D01*
X79165714Y-97478095D01*
X79127619Y-97554285D01*
X79089523Y-97706666D01*
X79089523Y-97897142D01*
X79127619Y-98049523D01*
X79165714Y-98125714D01*
X79203809Y-98163809D01*
X79280000Y-98201904D01*
X79356190Y-98201904D01*
X79432380Y-98163809D01*
X79470476Y-98125714D01*
X79508571Y-98049523D01*
X79546666Y-97897142D01*
X79546666Y-97706666D01*
X79508571Y-97554285D01*
X79470476Y-97478095D01*
X79432380Y-97440000D01*
X79356190Y-97401904D01*
X67914285Y-90425714D02*
X67952380Y-90463809D01*
X68066666Y-90501904D01*
X68142857Y-90501904D01*
X68257142Y-90463809D01*
X68333333Y-90387619D01*
X68371428Y-90311428D01*
X68409523Y-90159047D01*
X68409523Y-90044761D01*
X68371428Y-89892380D01*
X68333333Y-89816190D01*
X68257142Y-89740000D01*
X68142857Y-89701904D01*
X68066666Y-89701904D01*
X67952380Y-89740000D01*
X67914285Y-89778095D01*
X67457142Y-90044761D02*
X67533333Y-90006666D01*
X67571428Y-89968571D01*
X67609523Y-89892380D01*
X67609523Y-89854285D01*
X67571428Y-89778095D01*
X67533333Y-89740000D01*
X67457142Y-89701904D01*
X67304761Y-89701904D01*
X67228571Y-89740000D01*
X67190476Y-89778095D01*
X67152380Y-89854285D01*
X67152380Y-89892380D01*
X67190476Y-89968571D01*
X67228571Y-90006666D01*
X67304761Y-90044761D01*
X67457142Y-90044761D01*
X67533333Y-90082857D01*
X67571428Y-90120952D01*
X67609523Y-90197142D01*
X67609523Y-90349523D01*
X67571428Y-90425714D01*
X67533333Y-90463809D01*
X67457142Y-90501904D01*
X67304761Y-90501904D01*
X67228571Y-90463809D01*
X67190476Y-90425714D01*
X67152380Y-90349523D01*
X67152380Y-90197142D01*
X67190476Y-90120952D01*
X67228571Y-90082857D01*
X67304761Y-90044761D01*
X66428571Y-89701904D02*
X66809523Y-89701904D01*
X66847619Y-90082857D01*
X66809523Y-90044761D01*
X66733333Y-90006666D01*
X66542857Y-90006666D01*
X66466666Y-90044761D01*
X66428571Y-90082857D01*
X66390476Y-90159047D01*
X66390476Y-90349523D01*
X66428571Y-90425714D01*
X66466666Y-90463809D01*
X66542857Y-90501904D01*
X66733333Y-90501904D01*
X66809523Y-90463809D01*
X66847619Y-90425714D01*
X54338095Y-80806666D02*
X53766666Y-80806666D01*
X53652380Y-80844761D01*
X53576190Y-80920952D01*
X53538095Y-81035238D01*
X53538095Y-81111428D01*
X54071428Y-80082857D02*
X53538095Y-80082857D01*
X54376190Y-80273333D02*
X53804761Y-80463809D01*
X53804761Y-79968571D01*
X89175238Y-95811904D02*
X89441904Y-95430952D01*
X89632380Y-95811904D02*
X89632380Y-95011904D01*
X89327619Y-95011904D01*
X89251428Y-95050000D01*
X89213333Y-95088095D01*
X89175238Y-95164285D01*
X89175238Y-95278571D01*
X89213333Y-95354761D01*
X89251428Y-95392857D01*
X89327619Y-95430952D01*
X89632380Y-95430952D01*
X88413333Y-95811904D02*
X88870476Y-95811904D01*
X88641904Y-95811904D02*
X88641904Y-95011904D01*
X88718095Y-95126190D01*
X88794285Y-95202380D01*
X88870476Y-95240476D01*
X87918095Y-95011904D02*
X87841904Y-95011904D01*
X87765714Y-95050000D01*
X87727619Y-95088095D01*
X87689523Y-95164285D01*
X87651428Y-95316666D01*
X87651428Y-95507142D01*
X87689523Y-95659523D01*
X87727619Y-95735714D01*
X87765714Y-95773809D01*
X87841904Y-95811904D01*
X87918095Y-95811904D01*
X87994285Y-95773809D01*
X88032380Y-95735714D01*
X88070476Y-95659523D01*
X88108571Y-95507142D01*
X88108571Y-95316666D01*
X88070476Y-95164285D01*
X88032380Y-95088095D01*
X87994285Y-95050000D01*
X87918095Y-95011904D01*
X87346666Y-95088095D02*
X87308571Y-95050000D01*
X87232380Y-95011904D01*
X87041904Y-95011904D01*
X86965714Y-95050000D01*
X86927619Y-95088095D01*
X86889523Y-95164285D01*
X86889523Y-95240476D01*
X86927619Y-95354761D01*
X87384761Y-95811904D01*
X86889523Y-95811904D01*
X91365714Y-87604761D02*
X91403809Y-87566666D01*
X91441904Y-87452380D01*
X91441904Y-87376190D01*
X91403809Y-87261904D01*
X91327619Y-87185714D01*
X91251428Y-87147619D01*
X91099047Y-87109523D01*
X90984761Y-87109523D01*
X90832380Y-87147619D01*
X90756190Y-87185714D01*
X90680000Y-87261904D01*
X90641904Y-87376190D01*
X90641904Y-87452380D01*
X90680000Y-87566666D01*
X90718095Y-87604761D01*
X91441904Y-88366666D02*
X91441904Y-87909523D01*
X91441904Y-88138095D02*
X90641904Y-88138095D01*
X90756190Y-88061904D01*
X90832380Y-87985714D01*
X90870476Y-87909523D01*
X91441904Y-89128571D02*
X91441904Y-88671428D01*
X91441904Y-88900000D02*
X90641904Y-88900000D01*
X90756190Y-88823809D01*
X90832380Y-88747619D01*
X90870476Y-88671428D01*
X90641904Y-89395238D02*
X90641904Y-89890476D01*
X90946666Y-89623809D01*
X90946666Y-89738095D01*
X90984761Y-89814285D01*
X91022857Y-89852380D01*
X91099047Y-89890476D01*
X91289523Y-89890476D01*
X91365714Y-89852380D01*
X91403809Y-89814285D01*
X91441904Y-89738095D01*
X91441904Y-89509523D01*
X91403809Y-89433333D01*
X91365714Y-89395238D01*
X83625238Y-90931904D02*
X83891904Y-90550952D01*
X84082380Y-90931904D02*
X84082380Y-90131904D01*
X83777619Y-90131904D01*
X83701428Y-90170000D01*
X83663333Y-90208095D01*
X83625238Y-90284285D01*
X83625238Y-90398571D01*
X83663333Y-90474761D01*
X83701428Y-90512857D01*
X83777619Y-90550952D01*
X84082380Y-90550952D01*
X82863333Y-90931904D02*
X83320476Y-90931904D01*
X83091904Y-90931904D02*
X83091904Y-90131904D01*
X83168095Y-90246190D01*
X83244285Y-90322380D01*
X83320476Y-90360476D01*
X82368095Y-90131904D02*
X82291904Y-90131904D01*
X82215714Y-90170000D01*
X82177619Y-90208095D01*
X82139523Y-90284285D01*
X82101428Y-90436666D01*
X82101428Y-90627142D01*
X82139523Y-90779523D01*
X82177619Y-90855714D01*
X82215714Y-90893809D01*
X82291904Y-90931904D01*
X82368095Y-90931904D01*
X82444285Y-90893809D01*
X82482380Y-90855714D01*
X82520476Y-90779523D01*
X82558571Y-90627142D01*
X82558571Y-90436666D01*
X82520476Y-90284285D01*
X82482380Y-90208095D01*
X82444285Y-90170000D01*
X82368095Y-90131904D01*
X81415714Y-90398571D02*
X81415714Y-90931904D01*
X81606190Y-90093809D02*
X81796666Y-90665238D01*
X81301428Y-90665238D01*
X85657619Y-86939404D02*
X85657619Y-87510833D01*
X85695714Y-87625119D01*
X85771904Y-87701309D01*
X85886190Y-87739404D01*
X85962380Y-87739404D01*
X84857619Y-87739404D02*
X85314761Y-87739404D01*
X85086190Y-87739404D02*
X85086190Y-86939404D01*
X85162380Y-87053690D01*
X85238571Y-87129880D01*
X85314761Y-87167976D01*
X84095714Y-87739404D02*
X84552857Y-87739404D01*
X84324285Y-87739404D02*
X84324285Y-86939404D01*
X84400476Y-87053690D01*
X84476666Y-87129880D01*
X84552857Y-87167976D01*
X83615238Y-95011904D02*
X83881904Y-94630952D01*
X84072380Y-95011904D02*
X84072380Y-94211904D01*
X83767619Y-94211904D01*
X83691428Y-94250000D01*
X83653333Y-94288095D01*
X83615238Y-94364285D01*
X83615238Y-94478571D01*
X83653333Y-94554761D01*
X83691428Y-94592857D01*
X83767619Y-94630952D01*
X84072380Y-94630952D01*
X82853333Y-95011904D02*
X83310476Y-95011904D01*
X83081904Y-95011904D02*
X83081904Y-94211904D01*
X83158095Y-94326190D01*
X83234285Y-94402380D01*
X83310476Y-94440476D01*
X82358095Y-94211904D02*
X82281904Y-94211904D01*
X82205714Y-94250000D01*
X82167619Y-94288095D01*
X82129523Y-94364285D01*
X82091428Y-94516666D01*
X82091428Y-94707142D01*
X82129523Y-94859523D01*
X82167619Y-94935714D01*
X82205714Y-94973809D01*
X82281904Y-95011904D01*
X82358095Y-95011904D01*
X82434285Y-94973809D01*
X82472380Y-94935714D01*
X82510476Y-94859523D01*
X82548571Y-94707142D01*
X82548571Y-94516666D01*
X82510476Y-94364285D01*
X82472380Y-94288095D01*
X82434285Y-94250000D01*
X82358095Y-94211904D01*
X81824761Y-94211904D02*
X81329523Y-94211904D01*
X81596190Y-94516666D01*
X81481904Y-94516666D01*
X81405714Y-94554761D01*
X81367619Y-94592857D01*
X81329523Y-94669047D01*
X81329523Y-94859523D01*
X81367619Y-94935714D01*
X81405714Y-94973809D01*
X81481904Y-95011904D01*
X81710476Y-95011904D01*
X81786666Y-94973809D01*
X81824761Y-94935714D01*
X60065714Y-84175714D02*
X60103809Y-84137619D01*
X60141904Y-84023333D01*
X60141904Y-83947142D01*
X60103809Y-83832857D01*
X60027619Y-83756666D01*
X59951428Y-83718571D01*
X59799047Y-83680476D01*
X59684761Y-83680476D01*
X59532380Y-83718571D01*
X59456190Y-83756666D01*
X59380000Y-83832857D01*
X59341904Y-83947142D01*
X59341904Y-84023333D01*
X59380000Y-84137619D01*
X59418095Y-84175714D01*
X59341904Y-84442380D02*
X59341904Y-84975714D01*
X60141904Y-84632857D01*
X60141904Y-85318571D02*
X60141904Y-85470952D01*
X60103809Y-85547142D01*
X60065714Y-85585238D01*
X59951428Y-85661428D01*
X59799047Y-85699523D01*
X59494285Y-85699523D01*
X59418095Y-85661428D01*
X59380000Y-85623333D01*
X59341904Y-85547142D01*
X59341904Y-85394761D01*
X59380000Y-85318571D01*
X59418095Y-85280476D01*
X59494285Y-85242380D01*
X59684761Y-85242380D01*
X59760952Y-85280476D01*
X59799047Y-85318571D01*
X59837142Y-85394761D01*
X59837142Y-85547142D01*
X59799047Y-85623333D01*
X59760952Y-85661428D01*
X59684761Y-85699523D01*
X88861904Y-92449523D02*
X89509523Y-92449523D01*
X89585714Y-92487619D01*
X89623809Y-92525714D01*
X89661904Y-92601904D01*
X89661904Y-92754285D01*
X89623809Y-92830476D01*
X89585714Y-92868571D01*
X89509523Y-92906666D01*
X88861904Y-92906666D01*
X88938095Y-93249523D02*
X88900000Y-93287619D01*
X88861904Y-93363809D01*
X88861904Y-93554285D01*
X88900000Y-93630476D01*
X88938095Y-93668571D01*
X89014285Y-93706666D01*
X89090476Y-93706666D01*
X89204761Y-93668571D01*
X89661904Y-93211428D01*
X89661904Y-93706666D01*
X89661904Y-94468571D02*
X89661904Y-94011428D01*
X89661904Y-94240000D02*
X88861904Y-94240000D01*
X88976190Y-94163809D01*
X89052380Y-94087619D01*
X89090476Y-94011428D01*
D11*
X86275000Y-95190000D02*
X86075000Y-95190000D01*
X84975000Y-95740000D02*
X84975000Y-95190000D01*
X84975000Y-95190000D02*
X85175000Y-95190000D01*
X86275000Y-95740000D02*
X86275000Y-95190000D01*
X50750000Y-122540000D02*
X50750000Y-124940000D01*
X47650000Y-124940000D02*
X47650000Y-121990000D01*
X45412742Y-122432500D02*
X45887258Y-122432500D01*
X45412742Y-121387500D02*
X45887258Y-121387500D01*
X64759420Y-89100000D02*
X65040580Y-89100000D01*
X64759420Y-88080000D02*
X65040580Y-88080000D01*
X61337258Y-89617500D02*
X60862742Y-89617500D01*
X61337258Y-90662500D02*
X60862742Y-90662500D01*
X84625000Y-90015000D02*
X84825000Y-90015000D01*
X84625000Y-89465000D02*
X84625000Y-90015000D01*
X85925000Y-89465000D02*
X85925000Y-90015000D01*
X85925000Y-90015000D02*
X85725000Y-90015000D01*
X61337258Y-89112500D02*
X60862742Y-89112500D01*
X61337258Y-88067500D02*
X60862742Y-88067500D01*
X45372742Y-125172500D02*
X45847258Y-125172500D01*
X45372742Y-124127500D02*
X45847258Y-124127500D01*
X88052742Y-97567500D02*
X88527258Y-97567500D01*
X88052742Y-98612500D02*
X88527258Y-98612500D01*
X64759420Y-91180000D02*
X65040580Y-91180000D01*
X64759420Y-92200000D02*
X65040580Y-92200000D01*
X61337258Y-91167500D02*
X60862742Y-91167500D01*
X61337258Y-92212500D02*
X60862742Y-92212500D01*
D12*
X103418572Y-79839069D02*
X103415375Y-79840344D01*
X103415375Y-79840344D02*
X103391626Y-79853244D01*
X103391626Y-79853244D02*
X103373094Y-79872845D01*
X103373094Y-79872845D02*
X103359246Y-79902495D01*
X103359246Y-79902495D02*
X103349552Y-79945544D01*
X103349552Y-79945544D02*
X103343478Y-80005342D01*
X103343478Y-80005342D02*
X103340495Y-80085237D01*
X103340495Y-80085237D02*
X103340070Y-80188579D01*
X103340070Y-80188579D02*
X103341463Y-80306113D01*
X103341463Y-80306113D02*
X103347001Y-80647344D01*
X103347001Y-80647344D02*
X103394511Y-80683378D01*
X103394511Y-80683378D02*
X103451412Y-80713589D01*
X103451412Y-80713589D02*
X103504437Y-80714259D01*
X103504437Y-80714259D02*
X103554972Y-80685366D01*
X103554972Y-80685366D02*
X103559949Y-80680843D01*
X103559949Y-80680843D02*
X103601000Y-80642275D01*
X103601000Y-80642275D02*
X103601000Y-79895045D01*
X103601000Y-79895045D02*
X103553490Y-79858993D01*
X103553490Y-79858993D02*
X103508424Y-79830866D01*
X103508424Y-79830866D02*
X103468409Y-79824894D01*
X103468409Y-79824894D02*
X103418572Y-79839069D01*
X103418572Y-79839069D02*
X103418572Y-79839069D01*
G36*
X103508424Y-79830866D02*
G01*
X103553490Y-79858993D01*
X103601000Y-79895045D01*
X103601000Y-80642275D01*
X103559949Y-80680843D01*
X103554972Y-80685366D01*
X103504437Y-80714259D01*
X103451412Y-80713589D01*
X103394511Y-80683378D01*
X103347001Y-80647344D01*
X103341463Y-80306113D01*
X103340070Y-80188579D01*
X103340495Y-80085237D01*
X103343478Y-80005342D01*
X103349552Y-79945544D01*
X103359246Y-79902495D01*
X103373094Y-79872845D01*
X103391626Y-79853244D01*
X103415375Y-79840344D01*
X103418572Y-79839069D01*
X103468409Y-79824894D01*
X103508424Y-79830866D01*
G37*
X103508424Y-79830866D02*
X103553490Y-79858993D01*
X103601000Y-79895045D01*
X103601000Y-80642275D01*
X103559949Y-80680843D01*
X103554972Y-80685366D01*
X103504437Y-80714259D01*
X103451412Y-80713589D01*
X103394511Y-80683378D01*
X103347001Y-80647344D01*
X103341463Y-80306113D01*
X103340070Y-80188579D01*
X103340495Y-80085237D01*
X103343478Y-80005342D01*
X103349552Y-79945544D01*
X103359246Y-79902495D01*
X103373094Y-79872845D01*
X103391626Y-79853244D01*
X103415375Y-79840344D01*
X103418572Y-79839069D01*
X103468409Y-79824894D01*
X103508424Y-79830866D01*
X101774249Y-83172915D02*
X101653362Y-83189822D01*
X101653362Y-83189822D02*
X101556808Y-83224927D01*
X101556808Y-83224927D02*
X101485963Y-83277350D01*
X101485963Y-83277350D02*
X101442204Y-83346210D01*
X101442204Y-83346210D02*
X101429778Y-83393323D01*
X101429778Y-83393323D02*
X101420608Y-83453647D01*
X101420608Y-83453647D02*
X101524438Y-83453647D01*
X101524438Y-83453647D02*
X101584779Y-83451865D01*
X101584779Y-83451865D02*
X101617375Y-83445697D01*
X101617375Y-83445697D02*
X101628157Y-83433909D01*
X101628157Y-83433909D02*
X101628267Y-83432069D01*
X101628267Y-83432069D02*
X101638648Y-83406872D01*
X101638648Y-83406872D02*
X101664014Y-83373916D01*
X101664014Y-83373916D02*
X101667731Y-83370008D01*
X101667731Y-83370008D02*
X101719636Y-83337335D01*
X101719636Y-83337335D02*
X101788025Y-83320909D01*
X101788025Y-83320909D02*
X101860280Y-83321693D01*
X101860280Y-83321693D02*
X101923782Y-83340654D01*
X101923782Y-83340654D02*
X101938236Y-83349324D01*
X101938236Y-83349324D02*
X101973395Y-83383254D01*
X101973395Y-83383254D02*
X101980746Y-83420327D01*
X101980746Y-83420327D02*
X101980569Y-83421763D01*
X101980569Y-83421763D02*
X101972419Y-83445002D01*
X101972419Y-83445002D02*
X101951727Y-83465866D01*
X101951727Y-83465866D02*
X101914248Y-83486299D01*
X101914248Y-83486299D02*
X101855739Y-83508244D01*
X101855739Y-83508244D02*
X101771957Y-83533645D01*
X101771957Y-83533645D02*
X101683228Y-83557935D01*
X101683228Y-83557935D02*
X101563497Y-83595788D01*
X101563497Y-83595788D02*
X101475285Y-83638261D01*
X101475285Y-83638261D02*
X101416353Y-83687581D01*
X101416353Y-83687581D02*
X101384463Y-83745978D01*
X101384463Y-83745978D02*
X101377375Y-83815680D01*
X101377375Y-83815680D02*
X101382729Y-83857036D01*
X101382729Y-83857036D02*
X101415008Y-83939383D01*
X101415008Y-83939383D02*
X101476391Y-84008008D01*
X101476391Y-84008008D02*
X101544256Y-84050755D01*
X101544256Y-84050755D02*
X101589980Y-84069930D01*
X101589980Y-84069930D02*
X101638184Y-84081848D01*
X101638184Y-84081848D02*
X101699812Y-84088458D01*
X101699812Y-84088458D02*
X101772200Y-84091394D01*
X101772200Y-84091394D02*
X101846023Y-84091769D01*
X101846023Y-84091769D02*
X101911404Y-84089466D01*
X101911404Y-84089466D02*
X101957662Y-84084957D01*
X101957662Y-84084957D02*
X101967923Y-84082786D01*
X101967923Y-84082786D02*
X102074305Y-84040128D01*
X102074305Y-84040128D02*
X102152649Y-83981043D01*
X102152649Y-83981043D02*
X102203589Y-83905010D01*
X102203589Y-83905010D02*
X102212865Y-83881098D01*
X102212865Y-83881098D02*
X102227118Y-83836552D01*
X102227118Y-83836552D02*
X102236172Y-83804035D01*
X102236172Y-83804035D02*
X102237867Y-83794583D01*
X102237867Y-83794583D02*
X102222431Y-83788322D01*
X102222431Y-83788322D02*
X102182081Y-83783912D01*
X102182081Y-83783912D02*
X102129114Y-83782353D01*
X102129114Y-83782353D02*
X102020360Y-83782353D01*
X102020360Y-83782353D02*
X102000368Y-83835804D01*
X102000368Y-83835804D02*
X101962758Y-83891751D01*
X101962758Y-83891751D02*
X101900594Y-83929049D01*
X101900594Y-83929049D02*
X101817318Y-83945861D01*
X101817318Y-83945861D02*
X101792526Y-83946650D01*
X101792526Y-83946650D02*
X101703883Y-83937924D01*
X101703883Y-83937924D02*
X101640243Y-83912320D01*
X101640243Y-83912320D02*
X101603394Y-83870905D01*
X101603394Y-83870905D02*
X101594401Y-83828270D01*
X101594401Y-83828270D02*
X101599045Y-83805093D01*
X101599045Y-83805093D02*
X101615676Y-83784523D01*
X101615676Y-83784523D02*
X101648334Y-83764698D01*
X101648334Y-83764698D02*
X101701064Y-83743756D01*
X101701064Y-83743756D02*
X101777909Y-83719834D01*
X101777909Y-83719834D02*
X101882911Y-83691071D01*
X101882911Y-83691071D02*
X101904697Y-83685344D01*
X101904697Y-83685344D02*
X102017131Y-83649602D01*
X102017131Y-83649602D02*
X102099141Y-83608261D01*
X102099141Y-83608261D02*
X102153953Y-83559105D01*
X102153953Y-83559105D02*
X102184791Y-83499916D01*
X102184791Y-83499916D02*
X102187303Y-83491000D01*
X102187303Y-83491000D02*
X102194028Y-83406744D01*
X102194028Y-83406744D02*
X102170857Y-83331825D01*
X102170857Y-83331825D02*
X102120816Y-83268574D01*
X102120816Y-83268574D02*
X102046932Y-83219321D01*
X102046932Y-83219321D02*
X101952230Y-83186397D01*
X101952230Y-83186397D02*
X101839737Y-83172131D01*
X101839737Y-83172131D02*
X101774249Y-83172915D01*
X101774249Y-83172915D02*
X101774249Y-83172915D01*
G36*
X101952230Y-83186397D02*
G01*
X102046932Y-83219321D01*
X102120816Y-83268574D01*
X102170857Y-83331825D01*
X102194028Y-83406744D01*
X102187303Y-83491000D01*
X102184791Y-83499916D01*
X102153953Y-83559105D01*
X102099141Y-83608261D01*
X102017131Y-83649602D01*
X101904697Y-83685344D01*
X101882911Y-83691071D01*
X101777909Y-83719834D01*
X101701064Y-83743756D01*
X101648334Y-83764698D01*
X101615676Y-83784523D01*
X101599045Y-83805093D01*
X101594401Y-83828270D01*
X101603394Y-83870905D01*
X101640243Y-83912320D01*
X101703883Y-83937924D01*
X101792526Y-83946650D01*
X101817318Y-83945861D01*
X101900594Y-83929049D01*
X101962758Y-83891751D01*
X102000368Y-83835804D01*
X102020360Y-83782353D01*
X102129114Y-83782353D01*
X102182081Y-83783912D01*
X102222431Y-83788322D01*
X102237867Y-83794583D01*
X102236172Y-83804035D01*
X102227118Y-83836552D01*
X102212865Y-83881098D01*
X102203589Y-83905010D01*
X102152649Y-83981043D01*
X102074305Y-84040128D01*
X101967923Y-84082786D01*
X101957662Y-84084957D01*
X101911404Y-84089466D01*
X101846023Y-84091769D01*
X101772200Y-84091394D01*
X101699812Y-84088458D01*
X101638184Y-84081848D01*
X101589980Y-84069930D01*
X101544256Y-84050755D01*
X101476391Y-84008008D01*
X101415008Y-83939383D01*
X101382729Y-83857036D01*
X101377375Y-83815680D01*
X101384463Y-83745978D01*
X101416353Y-83687581D01*
X101475285Y-83638261D01*
X101563497Y-83595788D01*
X101683228Y-83557935D01*
X101771957Y-83533645D01*
X101855739Y-83508244D01*
X101914248Y-83486299D01*
X101951727Y-83465866D01*
X101972419Y-83445002D01*
X101980569Y-83421763D01*
X101980746Y-83420327D01*
X101973395Y-83383254D01*
X101938236Y-83349324D01*
X101923782Y-83340654D01*
X101860280Y-83321693D01*
X101788025Y-83320909D01*
X101719636Y-83337335D01*
X101667731Y-83370008D01*
X101664014Y-83373916D01*
X101638648Y-83406872D01*
X101628267Y-83432069D01*
X101628157Y-83433909D01*
X101617375Y-83445697D01*
X101584779Y-83451865D01*
X101524438Y-83453647D01*
X101420608Y-83453647D01*
X101429778Y-83393323D01*
X101442204Y-83346210D01*
X101485963Y-83277350D01*
X101556808Y-83224927D01*
X101653362Y-83189822D01*
X101774249Y-83172915D01*
X101839737Y-83172131D01*
X101952230Y-83186397D01*
G37*
X101952230Y-83186397D02*
X102046932Y-83219321D01*
X102120816Y-83268574D01*
X102170857Y-83331825D01*
X102194028Y-83406744D01*
X102187303Y-83491000D01*
X102184791Y-83499916D01*
X102153953Y-83559105D01*
X102099141Y-83608261D01*
X102017131Y-83649602D01*
X101904697Y-83685344D01*
X101882911Y-83691071D01*
X101777909Y-83719834D01*
X101701064Y-83743756D01*
X101648334Y-83764698D01*
X101615676Y-83784523D01*
X101599045Y-83805093D01*
X101594401Y-83828270D01*
X101603394Y-83870905D01*
X101640243Y-83912320D01*
X101703883Y-83937924D01*
X101792526Y-83946650D01*
X101817318Y-83945861D01*
X101900594Y-83929049D01*
X101962758Y-83891751D01*
X102000368Y-83835804D01*
X102020360Y-83782353D01*
X102129114Y-83782353D01*
X102182081Y-83783912D01*
X102222431Y-83788322D01*
X102237867Y-83794583D01*
X102236172Y-83804035D01*
X102227118Y-83836552D01*
X102212865Y-83881098D01*
X102203589Y-83905010D01*
X102152649Y-83981043D01*
X102074305Y-84040128D01*
X101967923Y-84082786D01*
X101957662Y-84084957D01*
X101911404Y-84089466D01*
X101846023Y-84091769D01*
X101772200Y-84091394D01*
X101699812Y-84088458D01*
X101638184Y-84081848D01*
X101589980Y-84069930D01*
X101544256Y-84050755D01*
X101476391Y-84008008D01*
X101415008Y-83939383D01*
X101382729Y-83857036D01*
X101377375Y-83815680D01*
X101384463Y-83745978D01*
X101416353Y-83687581D01*
X101475285Y-83638261D01*
X101563497Y-83595788D01*
X101683228Y-83557935D01*
X101771957Y-83533645D01*
X101855739Y-83508244D01*
X101914248Y-83486299D01*
X101951727Y-83465866D01*
X101972419Y-83445002D01*
X101980569Y-83421763D01*
X101980746Y-83420327D01*
X101973395Y-83383254D01*
X101938236Y-83349324D01*
X101923782Y-83340654D01*
X101860280Y-83321693D01*
X101788025Y-83320909D01*
X101719636Y-83337335D01*
X101667731Y-83370008D01*
X101664014Y-83373916D01*
X101638648Y-83406872D01*
X101628267Y-83432069D01*
X101628157Y-83433909D01*
X101617375Y-83445697D01*
X101584779Y-83451865D01*
X101524438Y-83453647D01*
X101420608Y-83453647D01*
X101429778Y-83393323D01*
X101442204Y-83346210D01*
X101485963Y-83277350D01*
X101556808Y-83224927D01*
X101653362Y-83189822D01*
X101774249Y-83172915D01*
X101839737Y-83172131D01*
X101952230Y-83186397D01*
X102892412Y-79626342D02*
X102884286Y-79633404D01*
X102884286Y-79633404D02*
X102873016Y-79644988D01*
X102873016Y-79644988D02*
X102864320Y-79658442D01*
X102864320Y-79658442D02*
X102857867Y-79677508D01*
X102857867Y-79677508D02*
X102853328Y-79705929D01*
X102853328Y-79705929D02*
X102850371Y-79747446D01*
X102850371Y-79747446D02*
X102848668Y-79805803D01*
X102848668Y-79805803D02*
X102847888Y-79884740D01*
X102847888Y-79884740D02*
X102847702Y-79988001D01*
X102847702Y-79988001D02*
X102847726Y-80048022D01*
X102847726Y-80048022D02*
X102848269Y-80152149D01*
X102848269Y-80152149D02*
X102849660Y-80246679D01*
X102849660Y-80246679D02*
X102851765Y-80327412D01*
X102851765Y-80327412D02*
X102854450Y-80390151D01*
X102854450Y-80390151D02*
X102857581Y-80430698D01*
X102857581Y-80430698D02*
X102860426Y-80444499D01*
X102860426Y-80444499D02*
X102891082Y-80468171D01*
X102891082Y-80468171D02*
X102935855Y-80487988D01*
X102935855Y-80487988D02*
X102972410Y-80495294D01*
X102972410Y-80495294D02*
X103001654Y-80486107D01*
X103001654Y-80486107D02*
X103039575Y-80463617D01*
X103039575Y-80463617D02*
X103044617Y-80459898D01*
X103044617Y-80459898D02*
X103091254Y-80424501D01*
X103091254Y-80424501D02*
X103091907Y-80050012D01*
X103091907Y-80050012D02*
X103092560Y-79675524D01*
X103092560Y-79675524D02*
X103051729Y-79637174D01*
X103051729Y-79637174D02*
X102999560Y-79605593D01*
X102999560Y-79605593D02*
X102944278Y-79601933D01*
X102944278Y-79601933D02*
X102892412Y-79626342D01*
X102892412Y-79626342D02*
X102892412Y-79626342D01*
G36*
X102999560Y-79605593D02*
G01*
X103051729Y-79637174D01*
X103092560Y-79675524D01*
X103091907Y-80050012D01*
X103091254Y-80424501D01*
X103044617Y-80459898D01*
X103039575Y-80463617D01*
X103001654Y-80486107D01*
X102972410Y-80495294D01*
X102935855Y-80487988D01*
X102891082Y-80468171D01*
X102860426Y-80444499D01*
X102857581Y-80430698D01*
X102854450Y-80390151D01*
X102851765Y-80327412D01*
X102849660Y-80246679D01*
X102848269Y-80152149D01*
X102847726Y-80048022D01*
X102847702Y-79988001D01*
X102847888Y-79884740D01*
X102848668Y-79805803D01*
X102850371Y-79747446D01*
X102853328Y-79705929D01*
X102857867Y-79677508D01*
X102864320Y-79658442D01*
X102873016Y-79644988D01*
X102884286Y-79633404D01*
X102892412Y-79626342D01*
X102944278Y-79601933D01*
X102999560Y-79605593D01*
G37*
X102999560Y-79605593D02*
X103051729Y-79637174D01*
X103092560Y-79675524D01*
X103091907Y-80050012D01*
X103091254Y-80424501D01*
X103044617Y-80459898D01*
X103039575Y-80463617D01*
X103001654Y-80486107D01*
X102972410Y-80495294D01*
X102935855Y-80487988D01*
X102891082Y-80468171D01*
X102860426Y-80444499D01*
X102857581Y-80430698D01*
X102854450Y-80390151D01*
X102851765Y-80327412D01*
X102849660Y-80246679D01*
X102848269Y-80152149D01*
X102847726Y-80048022D01*
X102847702Y-79988001D01*
X102847888Y-79884740D01*
X102848668Y-79805803D01*
X102850371Y-79747446D01*
X102853328Y-79705929D01*
X102857867Y-79677508D01*
X102864320Y-79658442D01*
X102873016Y-79644988D01*
X102884286Y-79633404D01*
X102892412Y-79626342D01*
X102944278Y-79601933D01*
X102999560Y-79605593D01*
X101368412Y-79626342D02*
X101360286Y-79633404D01*
X101360286Y-79633404D02*
X101349016Y-79644988D01*
X101349016Y-79644988D02*
X101340320Y-79658442D01*
X101340320Y-79658442D02*
X101333867Y-79677508D01*
X101333867Y-79677508D02*
X101329328Y-79705929D01*
X101329328Y-79705929D02*
X101326371Y-79747446D01*
X101326371Y-79747446D02*
X101324668Y-79805803D01*
X101324668Y-79805803D02*
X101323888Y-79884740D01*
X101323888Y-79884740D02*
X101323702Y-79988001D01*
X101323702Y-79988001D02*
X101323726Y-80048022D01*
X101323726Y-80048022D02*
X101324269Y-80152149D01*
X101324269Y-80152149D02*
X101325660Y-80246679D01*
X101325660Y-80246679D02*
X101327765Y-80327412D01*
X101327765Y-80327412D02*
X101330450Y-80390151D01*
X101330450Y-80390151D02*
X101333581Y-80430698D01*
X101333581Y-80430698D02*
X101336426Y-80444499D01*
X101336426Y-80444499D02*
X101367082Y-80468171D01*
X101367082Y-80468171D02*
X101411855Y-80487988D01*
X101411855Y-80487988D02*
X101448410Y-80495294D01*
X101448410Y-80495294D02*
X101477654Y-80486107D01*
X101477654Y-80486107D02*
X101515575Y-80463617D01*
X101515575Y-80463617D02*
X101520617Y-80459898D01*
X101520617Y-80459898D02*
X101567254Y-80424501D01*
X101567254Y-80424501D02*
X101567907Y-80050012D01*
X101567907Y-80050012D02*
X101568560Y-79675524D01*
X101568560Y-79675524D02*
X101527729Y-79637174D01*
X101527729Y-79637174D02*
X101475560Y-79605593D01*
X101475560Y-79605593D02*
X101420278Y-79601933D01*
X101420278Y-79601933D02*
X101368412Y-79626342D01*
X101368412Y-79626342D02*
X101368412Y-79626342D01*
G36*
X101475560Y-79605593D02*
G01*
X101527729Y-79637174D01*
X101568560Y-79675524D01*
X101567907Y-80050012D01*
X101567254Y-80424501D01*
X101520617Y-80459898D01*
X101515575Y-80463617D01*
X101477654Y-80486107D01*
X101448410Y-80495294D01*
X101411855Y-80487988D01*
X101367082Y-80468171D01*
X101336426Y-80444499D01*
X101333581Y-80430698D01*
X101330450Y-80390151D01*
X101327765Y-80327412D01*
X101325660Y-80246679D01*
X101324269Y-80152149D01*
X101323726Y-80048022D01*
X101323702Y-79988001D01*
X101323888Y-79884740D01*
X101324668Y-79805803D01*
X101326371Y-79747446D01*
X101329328Y-79705929D01*
X101333867Y-79677508D01*
X101340320Y-79658442D01*
X101349016Y-79644988D01*
X101360286Y-79633404D01*
X101368412Y-79626342D01*
X101420278Y-79601933D01*
X101475560Y-79605593D01*
G37*
X101475560Y-79605593D02*
X101527729Y-79637174D01*
X101568560Y-79675524D01*
X101567907Y-80050012D01*
X101567254Y-80424501D01*
X101520617Y-80459898D01*
X101515575Y-80463617D01*
X101477654Y-80486107D01*
X101448410Y-80495294D01*
X101411855Y-80487988D01*
X101367082Y-80468171D01*
X101336426Y-80444499D01*
X101333581Y-80430698D01*
X101330450Y-80390151D01*
X101327765Y-80327412D01*
X101325660Y-80246679D01*
X101324269Y-80152149D01*
X101323726Y-80048022D01*
X101323702Y-79988001D01*
X101323888Y-79884740D01*
X101324668Y-79805803D01*
X101326371Y-79747446D01*
X101329328Y-79705929D01*
X101333867Y-79677508D01*
X101340320Y-79658442D01*
X101349016Y-79644988D01*
X101360286Y-79633404D01*
X101368412Y-79626342D01*
X101420278Y-79601933D01*
X101475560Y-79605593D01*
X101876424Y-79630502D02*
X101870511Y-79634858D01*
X101870511Y-79634858D02*
X101823000Y-79670892D01*
X101823000Y-79670892D02*
X101817463Y-80012123D01*
X101817463Y-80012123D02*
X101816018Y-80139771D01*
X101816018Y-80139771D02*
X101816647Y-80240917D01*
X101816647Y-80240917D02*
X101819881Y-80318910D01*
X101819881Y-80318910D02*
X101826251Y-80377100D01*
X101826251Y-80377100D02*
X101836290Y-80418837D01*
X101836290Y-80418837D02*
X101850528Y-80447469D01*
X101850528Y-80447469D02*
X101869498Y-80466346D01*
X101869498Y-80466346D02*
X101891375Y-80477892D01*
X101891375Y-80477892D02*
X101942147Y-80493079D01*
X101942147Y-80493079D02*
X101982309Y-80488224D01*
X101982309Y-80488224D02*
X102026734Y-80461321D01*
X102026734Y-80461321D02*
X102029490Y-80459243D01*
X102029490Y-80459243D02*
X102077000Y-80423191D01*
X102077000Y-80423191D02*
X102077000Y-79675961D01*
X102077000Y-79675961D02*
X102035949Y-79637393D01*
X102035949Y-79637393D02*
X101985587Y-79605538D01*
X101985587Y-79605538D02*
X101932874Y-79603248D01*
X101932874Y-79603248D02*
X101876424Y-79630502D01*
X101876424Y-79630502D02*
X101876424Y-79630502D01*
G36*
X101985587Y-79605538D02*
G01*
X102035949Y-79637393D01*
X102077000Y-79675961D01*
X102077000Y-80423191D01*
X102029490Y-80459243D01*
X102026734Y-80461321D01*
X101982309Y-80488224D01*
X101942147Y-80493079D01*
X101891375Y-80477892D01*
X101869498Y-80466346D01*
X101850528Y-80447469D01*
X101836290Y-80418837D01*
X101826251Y-80377100D01*
X101819881Y-80318910D01*
X101816647Y-80240917D01*
X101816018Y-80139771D01*
X101817463Y-80012123D01*
X101823000Y-79670892D01*
X101870511Y-79634858D01*
X101876424Y-79630502D01*
X101932874Y-79603248D01*
X101985587Y-79605538D01*
G37*
X101985587Y-79605538D02*
X102035949Y-79637393D01*
X102077000Y-79675961D01*
X102077000Y-80423191D01*
X102029490Y-80459243D01*
X102026734Y-80461321D01*
X101982309Y-80488224D01*
X101942147Y-80493079D01*
X101891375Y-80477892D01*
X101869498Y-80466346D01*
X101850528Y-80447469D01*
X101836290Y-80418837D01*
X101826251Y-80377100D01*
X101819881Y-80318910D01*
X101816647Y-80240917D01*
X101816018Y-80139771D01*
X101817463Y-80012123D01*
X101823000Y-79670892D01*
X101870511Y-79634858D01*
X101876424Y-79630502D01*
X101932874Y-79603248D01*
X101985587Y-79605538D01*
X100352424Y-79630502D02*
X100346511Y-79634858D01*
X100346511Y-79634858D02*
X100299000Y-79670892D01*
X100299000Y-79670892D02*
X100293463Y-80012123D01*
X100293463Y-80012123D02*
X100292018Y-80139771D01*
X100292018Y-80139771D02*
X100292647Y-80240917D01*
X100292647Y-80240917D02*
X100295881Y-80318910D01*
X100295881Y-80318910D02*
X100302251Y-80377100D01*
X100302251Y-80377100D02*
X100312290Y-80418837D01*
X100312290Y-80418837D02*
X100326528Y-80447469D01*
X100326528Y-80447469D02*
X100345498Y-80466346D01*
X100345498Y-80466346D02*
X100367375Y-80477892D01*
X100367375Y-80477892D02*
X100418147Y-80493079D01*
X100418147Y-80493079D02*
X100458309Y-80488224D01*
X100458309Y-80488224D02*
X100502734Y-80461321D01*
X100502734Y-80461321D02*
X100505490Y-80459243D01*
X100505490Y-80459243D02*
X100553000Y-80423191D01*
X100553000Y-80423191D02*
X100553000Y-79675961D01*
X100553000Y-79675961D02*
X100511949Y-79637393D01*
X100511949Y-79637393D02*
X100461587Y-79605538D01*
X100461587Y-79605538D02*
X100408874Y-79603248D01*
X100408874Y-79603248D02*
X100352424Y-79630502D01*
X100352424Y-79630502D02*
X100352424Y-79630502D01*
G36*
X100461587Y-79605538D02*
G01*
X100511949Y-79637393D01*
X100553000Y-79675961D01*
X100553000Y-80423191D01*
X100505490Y-80459243D01*
X100502734Y-80461321D01*
X100458309Y-80488224D01*
X100418147Y-80493079D01*
X100367375Y-80477892D01*
X100345498Y-80466346D01*
X100326528Y-80447469D01*
X100312290Y-80418837D01*
X100302251Y-80377100D01*
X100295881Y-80318910D01*
X100292647Y-80240917D01*
X100292018Y-80139771D01*
X100293463Y-80012123D01*
X100299000Y-79670892D01*
X100346511Y-79634858D01*
X100352424Y-79630502D01*
X100408874Y-79603248D01*
X100461587Y-79605538D01*
G37*
X100461587Y-79605538D02*
X100511949Y-79637393D01*
X100553000Y-79675961D01*
X100553000Y-80423191D01*
X100505490Y-80459243D01*
X100502734Y-80461321D01*
X100458309Y-80488224D01*
X100418147Y-80493079D01*
X100367375Y-80477892D01*
X100345498Y-80466346D01*
X100326528Y-80447469D01*
X100312290Y-80418837D01*
X100302251Y-80377100D01*
X100295881Y-80318910D01*
X100292647Y-80240917D01*
X100292018Y-80139771D01*
X100293463Y-80012123D01*
X100299000Y-79670892D01*
X100346511Y-79634858D01*
X100352424Y-79630502D01*
X100408874Y-79603248D01*
X100461587Y-79605538D01*
X100907889Y-79605742D02*
X100855775Y-79633924D01*
X100855775Y-79633924D02*
X100809527Y-79669025D01*
X100809527Y-79669025D02*
X100806252Y-80011189D01*
X100806252Y-80011189D02*
X100805542Y-80139035D01*
X100805542Y-80139035D02*
X100806464Y-80240344D01*
X100806464Y-80240344D02*
X100809511Y-80318444D01*
X100809511Y-80318444D02*
X100815177Y-80376662D01*
X100815177Y-80376662D02*
X100823955Y-80418328D01*
X100823955Y-80418328D02*
X100836338Y-80446768D01*
X100836338Y-80446768D02*
X100852820Y-80465311D01*
X100852820Y-80465311D02*
X100873894Y-80477286D01*
X100873894Y-80477286D02*
X100875440Y-80477919D01*
X100875440Y-80477919D02*
X100925835Y-80493135D01*
X100925835Y-80493135D02*
X100965520Y-80488518D01*
X100965520Y-80488518D02*
X101007917Y-80464328D01*
X101007917Y-80464328D02*
X101052534Y-80433361D01*
X101052534Y-80433361D02*
X101052534Y-80046557D01*
X101052534Y-80046557D02*
X101052448Y-79929069D01*
X101052448Y-79929069D02*
X101051974Y-79837799D01*
X101051974Y-79837799D02*
X101050786Y-79769082D01*
X101050786Y-79769082D02*
X101048558Y-79719253D01*
X101048558Y-79719253D02*
X101044966Y-79684648D01*
X101044966Y-79684648D02*
X101039684Y-79661601D01*
X101039684Y-79661601D02*
X101032385Y-79646448D01*
X101032385Y-79646448D02*
X101022745Y-79635524D01*
X101022745Y-79635524D02*
X101015474Y-79629288D01*
X101015474Y-79629288D02*
X100963260Y-79602675D01*
X100963260Y-79602675D02*
X100907889Y-79605742D01*
X100907889Y-79605742D02*
X100907889Y-79605742D01*
G36*
X101015474Y-79629288D02*
G01*
X101022745Y-79635524D01*
X101032385Y-79646448D01*
X101039684Y-79661601D01*
X101044966Y-79684648D01*
X101048558Y-79719253D01*
X101050786Y-79769082D01*
X101051974Y-79837799D01*
X101052448Y-79929069D01*
X101052534Y-80046557D01*
X101052534Y-80433361D01*
X101007917Y-80464328D01*
X100965520Y-80488518D01*
X100925835Y-80493135D01*
X100875440Y-80477919D01*
X100873894Y-80477286D01*
X100852820Y-80465311D01*
X100836338Y-80446768D01*
X100823955Y-80418328D01*
X100815177Y-80376662D01*
X100809511Y-80318444D01*
X100806464Y-80240344D01*
X100805542Y-80139035D01*
X100806252Y-80011189D01*
X100809527Y-79669025D01*
X100855775Y-79633924D01*
X100907889Y-79605742D01*
X100963260Y-79602675D01*
X101015474Y-79629288D01*
G37*
X101015474Y-79629288D02*
X101022745Y-79635524D01*
X101032385Y-79646448D01*
X101039684Y-79661601D01*
X101044966Y-79684648D01*
X101048558Y-79719253D01*
X101050786Y-79769082D01*
X101051974Y-79837799D01*
X101052448Y-79929069D01*
X101052534Y-80046557D01*
X101052534Y-80433361D01*
X101007917Y-80464328D01*
X100965520Y-80488518D01*
X100925835Y-80493135D01*
X100875440Y-80477919D01*
X100873894Y-80477286D01*
X100852820Y-80465311D01*
X100836338Y-80446768D01*
X100823955Y-80418328D01*
X100815177Y-80376662D01*
X100809511Y-80318444D01*
X100806464Y-80240344D01*
X100805542Y-80139035D01*
X100806252Y-80011189D01*
X100809527Y-79669025D01*
X100855775Y-79633924D01*
X100907889Y-79605742D01*
X100963260Y-79602675D01*
X101015474Y-79629288D01*
X99799467Y-80032118D02*
X99799397Y-80191746D01*
X99799397Y-80191746D02*
X99799196Y-80342446D01*
X99799196Y-80342446D02*
X99798876Y-80481571D01*
X99798876Y-80481571D02*
X99798450Y-80606473D01*
X99798450Y-80606473D02*
X99797930Y-80714501D01*
X99797930Y-80714501D02*
X99797329Y-80803009D01*
X99797329Y-80803009D02*
X99796659Y-80869347D01*
X99796659Y-80869347D02*
X99795934Y-80910867D01*
X99795934Y-80910867D02*
X99795234Y-80924853D01*
X99795234Y-80924853D02*
X99807295Y-80933096D01*
X99807295Y-80933096D02*
X99842522Y-80939612D01*
X99842522Y-80939612D02*
X99854500Y-80940696D01*
X99854500Y-80940696D02*
X99895405Y-80945573D01*
X99895405Y-80945573D02*
X99913402Y-80958360D01*
X99913402Y-80958360D02*
X99917886Y-80988449D01*
X99917886Y-80988449D02*
X99918000Y-81004196D01*
X99918000Y-81004196D02*
X99914792Y-81043346D01*
X99914792Y-81043346D02*
X99902548Y-81060358D01*
X99902548Y-81060358D02*
X99886758Y-81063059D01*
X99886758Y-81063059D02*
X99844731Y-81076594D01*
X99844731Y-81076594D02*
X99813675Y-81112188D01*
X99813675Y-81112188D02*
X99799710Y-81162328D01*
X99799710Y-81162328D02*
X99799467Y-81170243D01*
X99799467Y-81170243D02*
X99811391Y-81220539D01*
X99811391Y-81220539D02*
X99842674Y-81257052D01*
X99842674Y-81257052D02*
X99886587Y-81272174D01*
X99886587Y-81272174D02*
X99889701Y-81272236D01*
X99889701Y-81272236D02*
X99902000Y-81275513D01*
X99902000Y-81275513D02*
X99910167Y-81288619D01*
X99910167Y-81288619D02*
X99915013Y-81316464D01*
X99915013Y-81316464D02*
X99917352Y-81363959D01*
X99917352Y-81363959D02*
X99917998Y-81436014D01*
X99917998Y-81436014D02*
X99918000Y-81443157D01*
X99918000Y-81443157D02*
X99918001Y-81614079D01*
X99918001Y-81614079D02*
X99854500Y-81618716D01*
X99854500Y-81618716D02*
X99814888Y-81624287D01*
X99814888Y-81624287D02*
X99795586Y-81632347D01*
X99795586Y-81632347D02*
X99795234Y-81634559D01*
X99795234Y-81634559D02*
X99795836Y-81650779D01*
X99795836Y-81650779D02*
X99796412Y-81694823D01*
X99796412Y-81694823D02*
X99796956Y-81764635D01*
X99796956Y-81764635D02*
X99797464Y-81858157D01*
X99797464Y-81858157D02*
X99797927Y-81973332D01*
X99797927Y-81973332D02*
X99798342Y-82108101D01*
X99798342Y-82108101D02*
X99798700Y-82260409D01*
X99798700Y-82260409D02*
X99798997Y-82428196D01*
X99798997Y-82428196D02*
X99799227Y-82609407D01*
X99799227Y-82609407D02*
X99799383Y-82801983D01*
X99799383Y-82801983D02*
X99799460Y-83003866D01*
X99799460Y-83003866D02*
X99799467Y-83087589D01*
X99799467Y-83087589D02*
X99799467Y-84529412D01*
X99799467Y-84529412D02*
X104100534Y-84529412D01*
X104100534Y-84529412D02*
X104100534Y-83338175D01*
X104100534Y-83338175D02*
X103856258Y-83338175D01*
X103856258Y-83338175D02*
X103856196Y-83515744D01*
X103856196Y-83515744D02*
X103855992Y-83680480D01*
X103855992Y-83680480D02*
X103855653Y-83830240D01*
X103855653Y-83830240D02*
X103855188Y-83962878D01*
X103855188Y-83962878D02*
X103854603Y-84076251D01*
X103854603Y-84076251D02*
X103853905Y-84168214D01*
X103853905Y-84168214D02*
X103853103Y-84236623D01*
X103853103Y-84236623D02*
X103852204Y-84279333D01*
X103852204Y-84279333D02*
X103851265Y-84294153D01*
X103851265Y-84294153D02*
X103833775Y-84295607D01*
X103833775Y-84295607D02*
X103784570Y-84296940D01*
X103784570Y-84296940D02*
X103705800Y-84298144D01*
X103705800Y-84298144D02*
X103599616Y-84299210D01*
X103599616Y-84299210D02*
X103468168Y-84300130D01*
X103468168Y-84300130D02*
X103313607Y-84300895D01*
X103313607Y-84300895D02*
X103138084Y-84301497D01*
X103138084Y-84301497D02*
X102943750Y-84301928D01*
X102943750Y-84301928D02*
X102732756Y-84302179D01*
X102732756Y-84302179D02*
X102507251Y-84302241D01*
X102507251Y-84302241D02*
X102269388Y-84302107D01*
X102269388Y-84302107D02*
X102021316Y-84301767D01*
X102021316Y-84301767D02*
X101944962Y-84301623D01*
X101944962Y-84301623D02*
X100045479Y-84297824D01*
X100045479Y-84297824D02*
X100045240Y-83068912D01*
X100045240Y-83068912D02*
X100045000Y-81840000D01*
X100045000Y-81840000D02*
X100172000Y-81840000D01*
X100172000Y-81840000D02*
X100172000Y-80721216D01*
X100172000Y-80721216D02*
X100109762Y-80716579D01*
X100109762Y-80716579D02*
X100047524Y-80711941D01*
X100047524Y-80711941D02*
X100045000Y-79382177D01*
X100045000Y-79382177D02*
X101645292Y-79378366D01*
X101645292Y-79378366D02*
X103245583Y-79374556D01*
X103245583Y-79374556D02*
X103550269Y-79643708D01*
X103550269Y-79643708D02*
X103854954Y-79912860D01*
X103854954Y-79912860D02*
X103854311Y-80424459D01*
X103854311Y-80424459D02*
X103853667Y-80936059D01*
X103853667Y-80936059D02*
X103790834Y-80940696D01*
X103790834Y-80940696D02*
X103728000Y-80945334D01*
X103728000Y-80945334D02*
X103728000Y-81614079D01*
X103728000Y-81614079D02*
X103853768Y-81623353D01*
X103853768Y-81623353D02*
X103855926Y-82953118D01*
X103855926Y-82953118D02*
X103856171Y-83149918D01*
X103856171Y-83149918D02*
X103856258Y-83338175D01*
X103856258Y-83338175D02*
X104100534Y-83338175D01*
X104100534Y-83338175D02*
X104100534Y-82975530D01*
X104100534Y-82975530D02*
X104100537Y-82762523D01*
X104100537Y-82762523D02*
X104100547Y-82557932D01*
X104100547Y-82557932D02*
X104100562Y-82363738D01*
X104100562Y-82363738D02*
X104100584Y-82181919D01*
X104100584Y-82181919D02*
X104100610Y-82014458D01*
X104100610Y-82014458D02*
X104100640Y-81863334D01*
X104100640Y-81863334D02*
X104100675Y-81730528D01*
X104100675Y-81730528D02*
X104100714Y-81618020D01*
X104100714Y-81618020D02*
X104100755Y-81527790D01*
X104100755Y-81527790D02*
X104100800Y-81461820D01*
X104100800Y-81461820D02*
X104100847Y-81422089D01*
X104100847Y-81422089D02*
X104100888Y-81410441D01*
X104100888Y-81410441D02*
X104086231Y-81401895D01*
X104086231Y-81401895D02*
X104049708Y-81395331D01*
X104049708Y-81395331D02*
X104041621Y-81394598D01*
X104041621Y-81394598D02*
X103982001Y-81389961D01*
X103982001Y-81389961D02*
X103982001Y-81167647D01*
X103982001Y-81167647D02*
X104045501Y-81167652D01*
X104045501Y-81167652D02*
X104109001Y-81167656D01*
X104109001Y-81167656D02*
X104104491Y-80491563D01*
X104104491Y-80491563D02*
X104099981Y-79815471D01*
X104099981Y-79815471D02*
X103347283Y-79150589D01*
X103347283Y-79150589D02*
X99799467Y-79150589D01*
X99799467Y-79150589D02*
X99799467Y-80032118D01*
X99799467Y-80032118D02*
X99799467Y-80032118D01*
G36*
X99799467Y-84529412D02*
G01*
X99799467Y-83087589D01*
X99799460Y-83003866D01*
X99799383Y-82801983D01*
X99799227Y-82609407D01*
X99798997Y-82428196D01*
X99798700Y-82260409D01*
X99798342Y-82108101D01*
X99797927Y-81973332D01*
X99797464Y-81858157D01*
X99797365Y-81840000D01*
X100045000Y-81840000D01*
X100045240Y-83068912D01*
X100045479Y-84297824D01*
X101944962Y-84301623D01*
X102021316Y-84301767D01*
X102269388Y-84302107D01*
X102507251Y-84302241D01*
X102732756Y-84302179D01*
X102943750Y-84301928D01*
X103138084Y-84301497D01*
X103313607Y-84300895D01*
X103468168Y-84300130D01*
X103599616Y-84299210D01*
X103705800Y-84298144D01*
X103784570Y-84296940D01*
X103833775Y-84295607D01*
X103851265Y-84294153D01*
X103852204Y-84279333D01*
X103853103Y-84236623D01*
X103853905Y-84168214D01*
X103854603Y-84076251D01*
X103855188Y-83962878D01*
X103855653Y-83830240D01*
X103855992Y-83680480D01*
X103856196Y-83515744D01*
X103856258Y-83338175D01*
X103856171Y-83149918D01*
X103855926Y-82953118D01*
X103853768Y-81623353D01*
X103728000Y-81614079D01*
X103728000Y-80945334D01*
X103790834Y-80940696D01*
X103853667Y-80936059D01*
X103854311Y-80424459D01*
X103854954Y-79912860D01*
X103550269Y-79643708D01*
X103245583Y-79374556D01*
X101645292Y-79378366D01*
X100045000Y-79382177D01*
X100047524Y-80711941D01*
X100109762Y-80716579D01*
X100172000Y-80721216D01*
X100172000Y-81840000D01*
X100045000Y-81840000D01*
X99797365Y-81840000D01*
X99796956Y-81764635D01*
X99796412Y-81694823D01*
X99795836Y-81650779D01*
X99795234Y-81634559D01*
X99795586Y-81632347D01*
X99814888Y-81624287D01*
X99854500Y-81618716D01*
X99918001Y-81614079D01*
X99918000Y-81443157D01*
X99917998Y-81436014D01*
X99917352Y-81363959D01*
X99915013Y-81316464D01*
X99910167Y-81288619D01*
X99902000Y-81275513D01*
X99889701Y-81272236D01*
X99886587Y-81272174D01*
X99842674Y-81257052D01*
X99811391Y-81220539D01*
X99799467Y-81170243D01*
X99799710Y-81162328D01*
X99813675Y-81112188D01*
X99844731Y-81076594D01*
X99886758Y-81063059D01*
X99902548Y-81060358D01*
X99914792Y-81043346D01*
X99918000Y-81004196D01*
X99917886Y-80988449D01*
X99913402Y-80958360D01*
X99895405Y-80945573D01*
X99854500Y-80940696D01*
X99842522Y-80939612D01*
X99807295Y-80933096D01*
X99795234Y-80924853D01*
X99795934Y-80910867D01*
X99796659Y-80869347D01*
X99797329Y-80803009D01*
X99797930Y-80714501D01*
X99798450Y-80606473D01*
X99798876Y-80481571D01*
X99799196Y-80342446D01*
X99799397Y-80191746D01*
X99799467Y-80032118D01*
X99799467Y-79150589D01*
X103347283Y-79150589D01*
X104099981Y-79815471D01*
X104104491Y-80491563D01*
X104109001Y-81167656D01*
X104045501Y-81167652D01*
X103982001Y-81167647D01*
X103982001Y-81389961D01*
X104041621Y-81394598D01*
X104049708Y-81395331D01*
X104086231Y-81401895D01*
X104100888Y-81410441D01*
X104100847Y-81422089D01*
X104100800Y-81461820D01*
X104100755Y-81527790D01*
X104100714Y-81618020D01*
X104100675Y-81730528D01*
X104100640Y-81863334D01*
X104100610Y-82014458D01*
X104100584Y-82181919D01*
X104100562Y-82363738D01*
X104100547Y-82557932D01*
X104100537Y-82762523D01*
X104100534Y-82975530D01*
X104100534Y-84529412D01*
X99799467Y-84529412D01*
G37*
X99799467Y-84529412D02*
X99799467Y-83087589D01*
X99799460Y-83003866D01*
X99799383Y-82801983D01*
X99799227Y-82609407D01*
X99798997Y-82428196D01*
X99798700Y-82260409D01*
X99798342Y-82108101D01*
X99797927Y-81973332D01*
X99797464Y-81858157D01*
X99797365Y-81840000D01*
X100045000Y-81840000D01*
X100045240Y-83068912D01*
X100045479Y-84297824D01*
X101944962Y-84301623D01*
X102021316Y-84301767D01*
X102269388Y-84302107D01*
X102507251Y-84302241D01*
X102732756Y-84302179D01*
X102943750Y-84301928D01*
X103138084Y-84301497D01*
X103313607Y-84300895D01*
X103468168Y-84300130D01*
X103599616Y-84299210D01*
X103705800Y-84298144D01*
X103784570Y-84296940D01*
X103833775Y-84295607D01*
X103851265Y-84294153D01*
X103852204Y-84279333D01*
X103853103Y-84236623D01*
X103853905Y-84168214D01*
X103854603Y-84076251D01*
X103855188Y-83962878D01*
X103855653Y-83830240D01*
X103855992Y-83680480D01*
X103856196Y-83515744D01*
X103856258Y-83338175D01*
X103856171Y-83149918D01*
X103855926Y-82953118D01*
X103853768Y-81623353D01*
X103728000Y-81614079D01*
X103728000Y-80945334D01*
X103790834Y-80940696D01*
X103853667Y-80936059D01*
X103854311Y-80424459D01*
X103854954Y-79912860D01*
X103550269Y-79643708D01*
X103245583Y-79374556D01*
X101645292Y-79378366D01*
X100045000Y-79382177D01*
X100047524Y-80711941D01*
X100109762Y-80716579D01*
X100172000Y-80721216D01*
X100172000Y-81840000D01*
X100045000Y-81840000D01*
X99797365Y-81840000D01*
X99796956Y-81764635D01*
X99796412Y-81694823D01*
X99795836Y-81650779D01*
X99795234Y-81634559D01*
X99795586Y-81632347D01*
X99814888Y-81624287D01*
X99854500Y-81618716D01*
X99918001Y-81614079D01*
X99918000Y-81443157D01*
X99917998Y-81436014D01*
X99917352Y-81363959D01*
X99915013Y-81316464D01*
X99910167Y-81288619D01*
X99902000Y-81275513D01*
X99889701Y-81272236D01*
X99886587Y-81272174D01*
X99842674Y-81257052D01*
X99811391Y-81220539D01*
X99799467Y-81170243D01*
X99799710Y-81162328D01*
X99813675Y-81112188D01*
X99844731Y-81076594D01*
X99886758Y-81063059D01*
X99902548Y-81060358D01*
X99914792Y-81043346D01*
X99918000Y-81004196D01*
X99917886Y-80988449D01*
X99913402Y-80958360D01*
X99895405Y-80945573D01*
X99854500Y-80940696D01*
X99842522Y-80939612D01*
X99807295Y-80933096D01*
X99795234Y-80924853D01*
X99795934Y-80910867D01*
X99796659Y-80869347D01*
X99797329Y-80803009D01*
X99797930Y-80714501D01*
X99798450Y-80606473D01*
X99798876Y-80481571D01*
X99799196Y-80342446D01*
X99799397Y-80191746D01*
X99799467Y-80032118D01*
X99799467Y-79150589D01*
X103347283Y-79150589D01*
X104099981Y-79815471D01*
X104104491Y-80491563D01*
X104109001Y-81167656D01*
X104045501Y-81167652D01*
X103982001Y-81167647D01*
X103982001Y-81389961D01*
X104041621Y-81394598D01*
X104049708Y-81395331D01*
X104086231Y-81401895D01*
X104100888Y-81410441D01*
X104100847Y-81422089D01*
X104100800Y-81461820D01*
X104100755Y-81527790D01*
X104100714Y-81618020D01*
X104100675Y-81730528D01*
X104100640Y-81863334D01*
X104100610Y-82014458D01*
X104100584Y-82181919D01*
X104100562Y-82363738D01*
X104100547Y-82557932D01*
X104100537Y-82762523D01*
X104100534Y-82975530D01*
X104100534Y-84529412D01*
X99799467Y-84529412D01*
X102431889Y-79605742D02*
X102379775Y-79633924D01*
X102379775Y-79633924D02*
X102333527Y-79669025D01*
X102333527Y-79669025D02*
X102330252Y-80011189D01*
X102330252Y-80011189D02*
X102329542Y-80139035D01*
X102329542Y-80139035D02*
X102330464Y-80240344D01*
X102330464Y-80240344D02*
X102333511Y-80318444D01*
X102333511Y-80318444D02*
X102339177Y-80376662D01*
X102339177Y-80376662D02*
X102347955Y-80418328D01*
X102347955Y-80418328D02*
X102360338Y-80446768D01*
X102360338Y-80446768D02*
X102376820Y-80465311D01*
X102376820Y-80465311D02*
X102397894Y-80477286D01*
X102397894Y-80477286D02*
X102399440Y-80477919D01*
X102399440Y-80477919D02*
X102449835Y-80493135D01*
X102449835Y-80493135D02*
X102489520Y-80488518D01*
X102489520Y-80488518D02*
X102531917Y-80464328D01*
X102531917Y-80464328D02*
X102576534Y-80433361D01*
X102576534Y-80433361D02*
X102576534Y-80046557D01*
X102576534Y-80046557D02*
X102576448Y-79929069D01*
X102576448Y-79929069D02*
X102575974Y-79837799D01*
X102575974Y-79837799D02*
X102574786Y-79769082D01*
X102574786Y-79769082D02*
X102572558Y-79719253D01*
X102572558Y-79719253D02*
X102568966Y-79684648D01*
X102568966Y-79684648D02*
X102563684Y-79661601D01*
X102563684Y-79661601D02*
X102556385Y-79646448D01*
X102556385Y-79646448D02*
X102546745Y-79635524D01*
X102546745Y-79635524D02*
X102539474Y-79629288D01*
X102539474Y-79629288D02*
X102487260Y-79602675D01*
X102487260Y-79602675D02*
X102431889Y-79605742D01*
X102431889Y-79605742D02*
X102431889Y-79605742D01*
G36*
X102539474Y-79629288D02*
G01*
X102546745Y-79635524D01*
X102556385Y-79646448D01*
X102563684Y-79661601D01*
X102568966Y-79684648D01*
X102572558Y-79719253D01*
X102574786Y-79769082D01*
X102575974Y-79837799D01*
X102576448Y-79929069D01*
X102576534Y-80046557D01*
X102576534Y-80433361D01*
X102531917Y-80464328D01*
X102489520Y-80488518D01*
X102449835Y-80493135D01*
X102399440Y-80477919D01*
X102397894Y-80477286D01*
X102376820Y-80465311D01*
X102360338Y-80446768D01*
X102347955Y-80418328D01*
X102339177Y-80376662D01*
X102333511Y-80318444D01*
X102330464Y-80240344D01*
X102329542Y-80139035D01*
X102330252Y-80011189D01*
X102333527Y-79669025D01*
X102379775Y-79633924D01*
X102431889Y-79605742D01*
X102487260Y-79602675D01*
X102539474Y-79629288D01*
G37*
X102539474Y-79629288D02*
X102546745Y-79635524D01*
X102556385Y-79646448D01*
X102563684Y-79661601D01*
X102568966Y-79684648D01*
X102572558Y-79719253D01*
X102574786Y-79769082D01*
X102575974Y-79837799D01*
X102576448Y-79929069D01*
X102576534Y-80046557D01*
X102576534Y-80433361D01*
X102531917Y-80464328D01*
X102489520Y-80488518D01*
X102449835Y-80493135D01*
X102399440Y-80477919D01*
X102397894Y-80477286D01*
X102376820Y-80465311D01*
X102360338Y-80446768D01*
X102347955Y-80418328D01*
X102339177Y-80376662D01*
X102333511Y-80318444D01*
X102330464Y-80240344D01*
X102329542Y-80139035D01*
X102330252Y-80011189D01*
X102333527Y-79669025D01*
X102379775Y-79633924D01*
X102431889Y-79605742D01*
X102487260Y-79602675D01*
X102539474Y-79629288D01*
X100824242Y-83186380D02*
X100722178Y-83192130D01*
X100722178Y-83192130D02*
X100641051Y-83203054D01*
X100641051Y-83203054D02*
X100574484Y-83220247D01*
X100574484Y-83220247D02*
X100516095Y-83244803D01*
X100516095Y-83244803D02*
X100477462Y-83266478D01*
X100477462Y-83266478D02*
X100406519Y-83327066D01*
X100406519Y-83327066D02*
X100354181Y-83406833D01*
X100354181Y-83406833D02*
X100320449Y-83499991D01*
X100320449Y-83499991D02*
X100305322Y-83600751D01*
X100305322Y-83600751D02*
X100308799Y-83703324D01*
X100308799Y-83703324D02*
X100330882Y-83801919D01*
X100330882Y-83801919D02*
X100371570Y-83890749D01*
X100371570Y-83890749D02*
X100430864Y-83964023D01*
X100430864Y-83964023D02*
X100477462Y-83999405D01*
X100477462Y-83999405D02*
X100533929Y-84029647D01*
X100533929Y-84029647D02*
X100594198Y-84051774D01*
X100594198Y-84051774D02*
X100664648Y-84066881D01*
X100664648Y-84066881D02*
X100751660Y-84076063D01*
X100751660Y-84076063D02*
X100861613Y-84080416D01*
X100861613Y-84080416D02*
X100953625Y-84081177D01*
X100953625Y-84081177D02*
X101204934Y-84081177D01*
X101204934Y-84081177D02*
X101204934Y-83916824D01*
X101204934Y-83916824D02*
X100984801Y-83916824D01*
X100984801Y-83916824D02*
X100863147Y-83916824D01*
X100863147Y-83916824D02*
X100773007Y-83912546D01*
X100773007Y-83912546D02*
X100703003Y-83898386D01*
X100703003Y-83898386D02*
X100669431Y-83886043D01*
X100669431Y-83886043D02*
X100601287Y-83843998D01*
X100601287Y-83843998D02*
X100556266Y-83784683D01*
X100556266Y-83784683D02*
X100533141Y-83705667D01*
X100533141Y-83705667D02*
X100530301Y-83610726D01*
X100530301Y-83610726D02*
X100539888Y-83532382D01*
X100539888Y-83532382D02*
X100561487Y-83474212D01*
X100561487Y-83474212D02*
X100600056Y-83427166D01*
X100600056Y-83427166D02*
X100652643Y-83387335D01*
X100652643Y-83387335D02*
X100686465Y-83370464D01*
X100686465Y-83370464D02*
X100731663Y-83359707D01*
X100731663Y-83359707D02*
X100797139Y-83353370D01*
X100797139Y-83353370D02*
X100842096Y-83351261D01*
X100842096Y-83351261D02*
X100984801Y-83345993D01*
X100984801Y-83345993D02*
X100984801Y-83916824D01*
X100984801Y-83916824D02*
X101204934Y-83916824D01*
X101204934Y-83916824D02*
X101204934Y-83184706D01*
X101204934Y-83184706D02*
X100953625Y-83184706D01*
X100953625Y-83184706D02*
X100824242Y-83186380D01*
X100824242Y-83186380D02*
X100824242Y-83186380D01*
G36*
X100953625Y-84081177D02*
G01*
X100861613Y-84080416D01*
X100751660Y-84076063D01*
X100664648Y-84066881D01*
X100594198Y-84051774D01*
X100533929Y-84029647D01*
X100477462Y-83999405D01*
X100430864Y-83964023D01*
X100371570Y-83890749D01*
X100330882Y-83801919D01*
X100308799Y-83703324D01*
X100305660Y-83610726D01*
X100530301Y-83610726D01*
X100533141Y-83705667D01*
X100556266Y-83784683D01*
X100601287Y-83843998D01*
X100669431Y-83886043D01*
X100703003Y-83898386D01*
X100773007Y-83912546D01*
X100863147Y-83916824D01*
X100984801Y-83916824D01*
X100984801Y-83345993D01*
X100842096Y-83351261D01*
X100797139Y-83353370D01*
X100731663Y-83359707D01*
X100686465Y-83370464D01*
X100652643Y-83387335D01*
X100600056Y-83427166D01*
X100561487Y-83474212D01*
X100539888Y-83532382D01*
X100530301Y-83610726D01*
X100305660Y-83610726D01*
X100305322Y-83600751D01*
X100320449Y-83499991D01*
X100354181Y-83406833D01*
X100406519Y-83327066D01*
X100477462Y-83266478D01*
X100516095Y-83244803D01*
X100574484Y-83220247D01*
X100641051Y-83203054D01*
X100722178Y-83192130D01*
X100824242Y-83186380D01*
X100953625Y-83184706D01*
X101204934Y-83184706D01*
X101204934Y-84081177D01*
X100953625Y-84081177D01*
G37*
X100953625Y-84081177D02*
X100861613Y-84080416D01*
X100751660Y-84076063D01*
X100664648Y-84066881D01*
X100594198Y-84051774D01*
X100533929Y-84029647D01*
X100477462Y-83999405D01*
X100430864Y-83964023D01*
X100371570Y-83890749D01*
X100330882Y-83801919D01*
X100308799Y-83703324D01*
X100305660Y-83610726D01*
X100530301Y-83610726D01*
X100533141Y-83705667D01*
X100556266Y-83784683D01*
X100601287Y-83843998D01*
X100669431Y-83886043D01*
X100703003Y-83898386D01*
X100773007Y-83912546D01*
X100863147Y-83916824D01*
X100984801Y-83916824D01*
X100984801Y-83345993D01*
X100842096Y-83351261D01*
X100797139Y-83353370D01*
X100731663Y-83359707D01*
X100686465Y-83370464D01*
X100652643Y-83387335D01*
X100600056Y-83427166D01*
X100561487Y-83474212D01*
X100539888Y-83532382D01*
X100530301Y-83610726D01*
X100305660Y-83610726D01*
X100305322Y-83600751D01*
X100320449Y-83499991D01*
X100354181Y-83406833D01*
X100406519Y-83327066D01*
X100477462Y-83266478D01*
X100516095Y-83244803D01*
X100574484Y-83220247D01*
X100641051Y-83203054D01*
X100722178Y-83192130D01*
X100824242Y-83186380D01*
X100953625Y-83184706D01*
X101204934Y-83184706D01*
X101204934Y-84081177D01*
X100953625Y-84081177D01*
D11*
X82982742Y-96842500D02*
X83457258Y-96842500D01*
X82982742Y-95797500D02*
X83457258Y-95797500D01*
X62400000Y-84830000D02*
X64300000Y-84830000D01*
X63800000Y-87150000D02*
X62400000Y-87150000D01*
X82982742Y-98372500D02*
X83457258Y-98372500D01*
X82982742Y-97327500D02*
X83457258Y-97327500D01*
X64759420Y-89630000D02*
X65040580Y-89630000D01*
X64759420Y-90650000D02*
X65040580Y-90650000D01*
X56955000Y-95815000D02*
X40055000Y-95815000D01*
X40055000Y-79715000D02*
X40055000Y-95815000D01*
X56955000Y-79715000D02*
X40055000Y-79715000D01*
X56955000Y-79715000D02*
X56955000Y-95815000D01*
X88052742Y-96047500D02*
X88527258Y-96047500D01*
X88052742Y-97092500D02*
X88527258Y-97092500D01*
X88665000Y-88761252D02*
X88665000Y-88238748D01*
X90135000Y-88761252D02*
X90135000Y-88238748D01*
X82482742Y-91177500D02*
X82957258Y-91177500D01*
X82482742Y-92222500D02*
X82957258Y-92222500D01*
D10*
X83085000Y-76242500D02*
X83085000Y-82042500D01*
X93335000Y-85012500D02*
X97835000Y-85012500D01*
X97435000Y-70012500D02*
X97435000Y-70262500D01*
X97435000Y-70262500D02*
X98135000Y-70262500D01*
X96335000Y-70262500D02*
X96335000Y-70012500D01*
X83085000Y-70262500D02*
X96335000Y-70262500D01*
X96335000Y-70012500D02*
X97435000Y-70012500D01*
X98135000Y-76242500D02*
X98135000Y-82042500D01*
X83085000Y-70262500D02*
X83085000Y-73042500D01*
X98135000Y-70262500D02*
X98135000Y-73042500D01*
D13*
X93455000Y-86742500D02*
G75*
G03*
X93455000Y-86742500I-120000J0D01*
G01*
D11*
X82482742Y-93742500D02*
X82957258Y-93742500D01*
X82482742Y-92697500D02*
X82957258Y-92697500D01*
X58860000Y-84830580D02*
X58860000Y-84549420D01*
X57840000Y-84830580D02*
X57840000Y-84549420D01*
X90025000Y-93990000D02*
X90025000Y-94540000D01*
X90025000Y-94540000D02*
X90225000Y-94540000D01*
X91325000Y-93990000D02*
X91325000Y-94540000D01*
X91325000Y-94540000D02*
X91125000Y-94540000D01*
%LPC*%
D14*
X85975000Y-96165000D03*
X85275000Y-96165000D03*
X85625000Y-95315000D03*
D15*
X48430000Y-122640000D03*
D16*
X50150000Y-122640000D03*
X50150000Y-124840000D03*
X48250000Y-124840000D03*
D17*
X45000000Y-161775000D03*
X47280419Y-162719581D03*
X41775000Y-165000000D03*
X42719581Y-167280419D03*
X48225000Y-165000000D03*
X45000000Y-168225000D03*
D18*
X45000000Y-165000000D03*
D17*
X47280419Y-167280419D03*
X42719581Y-162719581D03*
X138225000Y-165000000D03*
D18*
X135000000Y-165000000D03*
D17*
X132719581Y-162719581D03*
X135000000Y-168225000D03*
X132719581Y-167280419D03*
X131775000Y-165000000D03*
X135000000Y-161775000D03*
X137280419Y-162719581D03*
X137280419Y-167280419D03*
D19*
X46400000Y-153030000D03*
X46400000Y-148630000D03*
D20*
X78175000Y-72627500D03*
X72525000Y-72627500D03*
D21*
X133975000Y-117670000D03*
X133975000Y-130370000D03*
D22*
X131435000Y-120460000D03*
D23*
X129655000Y-121476000D03*
X131435000Y-122492000D03*
X129655000Y-123508000D03*
X131435000Y-124524000D03*
X129655000Y-125540000D03*
X131435000Y-126556000D03*
X129655000Y-127572000D03*
X124835000Y-117160000D03*
X124835000Y-119450000D03*
X124835000Y-128590000D03*
X124835000Y-130880000D03*
D24*
X130545000Y-115890000D03*
X130545000Y-132150000D03*
D21*
X107830000Y-163970000D03*
X120530000Y-163970000D03*
D22*
X117740000Y-161430000D03*
D23*
X116724000Y-159650000D03*
X115708000Y-161430000D03*
X114692000Y-159650000D03*
X113676000Y-161430000D03*
X112660000Y-159650000D03*
X111644000Y-161430000D03*
X110628000Y-159650000D03*
X121040000Y-154830000D03*
X118750000Y-154830000D03*
X109610000Y-154830000D03*
X107320000Y-154830000D03*
D24*
X106050000Y-160540000D03*
X122310000Y-160540000D03*
D21*
X100740000Y-163970000D03*
X88040000Y-163970000D03*
D22*
X97950000Y-161430000D03*
D23*
X96934000Y-159650000D03*
X95918000Y-161430000D03*
X94902000Y-159650000D03*
X93886000Y-161430000D03*
X92870000Y-159650000D03*
X91854000Y-161430000D03*
X90838000Y-159650000D03*
X101250000Y-154830000D03*
X98960000Y-154830000D03*
X89820000Y-154830000D03*
X87530000Y-154830000D03*
D24*
X86260000Y-160540000D03*
X102520000Y-160540000D03*
D21*
X128760000Y-148872500D03*
X128760000Y-137442500D03*
D25*
X122410000Y-147607500D03*
D26*
X119870000Y-146337500D03*
X122410000Y-145067500D03*
X119870000Y-143797500D03*
X122410000Y-142527500D03*
X119870000Y-141257500D03*
X122410000Y-139987500D03*
X119870000Y-138717500D03*
D27*
X133660000Y-149782500D03*
X133660000Y-147242500D03*
X133660000Y-139072500D03*
X133660000Y-136532500D03*
D28*
X125710000Y-150902500D03*
X125710000Y-135412500D03*
D17*
X42719581Y-77280419D03*
X47280419Y-72719581D03*
X42719581Y-72719581D03*
X48225000Y-75000000D03*
X45000000Y-78225000D03*
X45000000Y-71775000D03*
X41775000Y-75000000D03*
D18*
X45000000Y-75000000D03*
D17*
X47280419Y-77280419D03*
X132719581Y-77280419D03*
X137280419Y-72719581D03*
X138225000Y-75000000D03*
D18*
X135000000Y-75000000D03*
D17*
X131775000Y-75000000D03*
X135000000Y-78225000D03*
X135000000Y-71775000D03*
X137280419Y-77280419D03*
X132719581Y-72719581D03*
D29*
X42650000Y-103015000D03*
X42650000Y-97365000D03*
D30*
X51810000Y-117550000D03*
X41810000Y-117550000D03*
X46810000Y-113950000D03*
D31*
X127425000Y-155665000D03*
D32*
X127425000Y-163285000D03*
D33*
X133697500Y-85630000D03*
D30*
X136237500Y-85630000D03*
X133697500Y-88170000D03*
X136237500Y-88170000D03*
X133697500Y-90710000D03*
X136237500Y-90710000D03*
X133697500Y-93250000D03*
X136237500Y-93250000D03*
X133697500Y-95790000D03*
X136237500Y-95790000D03*
X133697500Y-98330000D03*
X136237500Y-98330000D03*
X133697500Y-100870000D03*
X136237500Y-100870000D03*
X133697500Y-103410000D03*
X136237500Y-103410000D03*
X133697500Y-105950000D03*
X136237500Y-105950000D03*
X133697500Y-108490000D03*
X136237500Y-108490000D03*
D21*
X77792000Y-163970000D03*
X65092000Y-163970000D03*
D22*
X75002000Y-161430000D03*
D23*
X73986000Y-159650000D03*
X72970000Y-161430000D03*
X71954000Y-159650000D03*
X70938000Y-161430000D03*
X69922000Y-159650000D03*
X68906000Y-161430000D03*
X67890000Y-159650000D03*
X78302000Y-154830000D03*
X76012000Y-154830000D03*
X66872000Y-154830000D03*
X64582000Y-154830000D03*
D24*
X63312000Y-160540000D03*
X79572000Y-160540000D03*
D34*
X55315000Y-155917500D03*
D35*
X55315000Y-161917500D03*
D36*
X60015000Y-158917500D03*
D37*
X101800000Y-71350000D03*
D38*
X101800000Y-72620000D03*
X101800000Y-73890000D03*
X101800000Y-75160000D03*
D37*
X111470000Y-91480000D03*
D38*
X112740000Y-91480000D03*
X114010000Y-91480000D03*
X115280000Y-91480000D03*
D31*
X52890000Y-123490000D03*
D39*
X54890000Y-123490000D03*
X56890000Y-123490000D03*
X58890000Y-123490000D03*
D40*
X59160000Y-126210000D03*
X52160000Y-126210000D03*
X52160000Y-120770000D03*
X59160000Y-120770000D03*
D41*
X44825000Y-121910000D03*
X46475000Y-121910000D03*
D42*
X64125000Y-88590000D03*
X65675000Y-88590000D03*
D43*
X61925000Y-90140000D03*
X60275000Y-90140000D03*
D14*
X84925000Y-89040000D03*
X85625000Y-89040000D03*
X85275000Y-89890000D03*
D43*
X61925000Y-88590000D03*
X60275000Y-88590000D03*
D41*
X44785000Y-124650000D03*
X46435000Y-124650000D03*
X87465000Y-98090000D03*
X89115000Y-98090000D03*
D42*
X64125000Y-91690000D03*
X65675000Y-91690000D03*
D43*
X61925000Y-91690000D03*
X60275000Y-91690000D03*
D41*
X82395000Y-96320000D03*
X84045000Y-96320000D03*
D44*
X64050000Y-85340000D03*
X64050000Y-85990000D03*
X64050000Y-86640000D03*
X62150000Y-86640000D03*
X62150000Y-85990000D03*
X62150000Y-85340000D03*
D41*
X82395000Y-97850000D03*
X84045000Y-97850000D03*
D42*
X64125000Y-90140000D03*
X65675000Y-90140000D03*
D45*
X56805000Y-85480000D03*
X56805000Y-87480000D03*
X56805000Y-91670000D03*
D46*
X42105000Y-79965000D03*
X42105000Y-95615000D03*
X47405000Y-79965000D03*
D47*
X55905000Y-79965000D03*
X55905000Y-95615000D03*
D45*
X56805000Y-84480000D03*
D46*
X47405000Y-95615000D03*
D45*
X56805000Y-86480000D03*
X56805000Y-90670000D03*
X56805000Y-89265000D03*
D48*
X56105000Y-82065000D03*
D41*
X87465000Y-96570000D03*
X89115000Y-96570000D03*
D49*
X89400000Y-89450000D03*
X89400000Y-87550000D03*
D41*
X81895000Y-91700000D03*
X83545000Y-91700000D03*
D50*
X85535000Y-74242500D03*
X93535000Y-74242500D03*
D51*
X92715000Y-85662500D03*
X91615000Y-85662500D03*
X90515000Y-85662500D03*
X89415000Y-85662500D03*
X88315000Y-85662500D03*
X87215000Y-85662500D03*
X86115000Y-85662500D03*
X85015000Y-85662500D03*
D52*
X82535000Y-84262500D03*
D53*
X82535000Y-74662500D03*
X98685000Y-74662500D03*
D54*
X97685000Y-84262500D03*
D51*
X83915000Y-85662500D03*
D41*
X81895000Y-93220000D03*
X83545000Y-93220000D03*
D55*
X58350000Y-85465000D03*
X58350000Y-83915000D03*
D14*
X90325000Y-93565000D03*
X91025000Y-93565000D03*
X90675000Y-94415000D03*
M02*
