M48
; DRILL file {KiCad (6.0.0)} date Wed Apr 27 13:01:07 2022
; FORMAT={-:-/ absolute / metric / decimal}
; #@! TF.CreationDate,2022-04-27T13:01:07+04:00
; #@! TF.GenerationSoftware,Kicad,Pcbnew,(6.0.0)
; #@! TF.FileFunction,Plated,1,4,PTH
FMAT,2
METRIC
; #@! TA.AperFunction,Plated,PTH,ViaDrill
T1C0.300
; #@! TA.AperFunction,Plated,PTH,ViaDrill
T2C0.400
; #@! TA.AperFunction,Plated,PTH,ComponentDrill
T3C0.600
; #@! TA.AperFunction,Plated,PTH,ComponentDrill
T4C0.650
; #@! TA.AperFunction,Plated,PTH,ComponentDrill
T5C0.800
; #@! TA.AperFunction,Plated,PTH,ComponentDrill
T6C0.850
; #@! TA.AperFunction,Plated,PTH,ComponentDrill
T7C0.890
; #@! TA.AperFunction,Plated,PTH,ComponentDrill
T8C0.920
; #@! TA.AperFunction,Plated,PTH,ComponentDrill
T9C1.000
; #@! TA.AperFunction,Plated,PTH,ComponentDrill
T10C1.020
; #@! TA.AperFunction,Plated,PTH,ComponentDrill
T11C1.500
; #@! TA.AperFunction,Plated,PTH,ComponentDrill
T12C1.570
; #@! TA.AperFunction,Plated,PTH,ComponentDrill
T13C1.630
; #@! TA.AperFunction,Plated,PTH,ComponentDrill
T14C4.300
%
G90
G05
T1
X40.7Y-155.94
X40.7Y-156.54
X41.3Y-155.94
X41.3Y-156.54
X41.55Y-144.69
X41.9Y-82.14
X41.9Y-155.94
X41.9Y-156.54
X42.2Y-84.64
X42.4Y-139.64
X42.8Y-84.64
X43.45Y-105.44
X43.7Y-84.64
X43.7Y-140.19
X44.025Y-126.69
X44.125Y-123.265
X44.3Y-84.64
X44.7Y-82.14
X44.75Y-126.865
X44.825Y-123.265
X45.3Y-102.99
X45.3Y-130.84
X45.4Y-84.24
X45.45Y-97.34
X46.0Y-84.24
X46.175Y-133.74
X46.2Y-151.515
X46.425Y-149.84
X46.75Y-84.24
X46.95Y-97.69
X46.95Y-133.165
X47.1Y-150.84
X47.15Y-150.04
X47.175Y-122.99
X47.3Y-123.79
X47.5Y-84.24
X48.0Y-137.04
X48.1Y-84.24
X48.1Y-144.14
X48.6Y-137.04
X48.7Y-144.14
X49.2Y-137.04
X49.3Y-144.14
X49.8Y-137.04
X50.1Y-144.29
X51.5Y-84.74
X51.6Y-87.54
X51.6Y-88.14
X51.6Y-88.74
X52.1Y-84.74
X52.2Y-87.54
X52.2Y-88.14
X52.2Y-88.74
X52.25Y-145.64
X52.7Y-84.74
X52.8Y-87.54
X52.8Y-88.14
X52.8Y-88.74
X52.8Y-93.44
X53.1Y-149.54
X55.175Y-74.79
X55.5Y-134.44
X56.1Y-134.44
X56.25Y-144.84
X56.5Y-146.94
X56.6Y-119.44
X56.7Y-134.44
X57.2Y-119.44
X57.3Y-134.44
X57.8Y-119.44
X57.85Y-148.99
X58.7Y-75.24
X59.051Y-90.966
X59.2Y-89.34
X59.925Y-86.565
X60.525Y-80.965
X60.7Y-111.54
X60.7Y-112.14
X60.7Y-112.74
X60.7Y-113.34
X60.8Y-148.64
X60.975Y-119.415
X61.2Y-86.915
X61.4Y-73.965
X61.4Y-148.64
X61.5Y-141.74
X61.7Y-117.04
X61.7Y-117.64
X61.725Y-152.69
X61.875Y-151.99
X62.2Y-148.64
X62.425Y-119.565
X62.675Y-103.84
X62.675Y-151.741
X62.8Y-148.64
X62.95Y-120.714
X63.0Y-90.14
X63.1Y-88.59
X63.15Y-91.69
X63.4Y-103.14
X63.4Y-134.89
X63.537Y-125.277
X63.95Y-114.915
X64.0Y-148.64
X64.075Y-125.44
X64.2Y-131.84
X64.25Y-113.39
X64.3Y-121.74
X64.5Y-119.24
X64.6Y-148.64
X64.625Y-125.44
X64.8Y-131.84
X64.9Y-121.74
X65.175Y-125.44
X65.3Y-137.69
X65.4Y-131.84
X65.5Y-121.74
X65.5Y-148.64
X65.85Y-85.34
X66.1Y-121.74
X66.1Y-148.64
X66.4Y-144.94
X66.4Y-145.54
X67.3Y-148.64
X67.475Y-111.34
X67.65Y-113.939
X67.7Y-121.74
X67.9Y-148.64
X67.95Y-116.44
X68.1Y-117.84
X68.1Y-118.44
X68.3Y-121.74
X68.725Y-116.04
X68.9Y-121.74
X69.0Y-132.34
X69.5Y-121.74
X69.6Y-132.34
X69.675Y-107.715
X69.775Y-114.215
X70.1Y-149.69
X70.1Y-150.29
X70.1Y-150.89
X70.125Y-119.165
X70.2Y-132.34
X70.7Y-149.69
X70.7Y-150.29
X70.7Y-150.89
X71.35Y-149.69
X71.35Y-150.29
X71.35Y-150.89
X71.75Y-112.04
X71.85Y-132.09
X71.85Y-132.69
X71.85Y-133.29
X72.5Y-75.64
X73.1Y-142.09
X73.45Y-111.24
X73.5Y-117.54
X73.7Y-142.09
X74.3Y-142.09
X74.35Y-154.04
X74.8Y-132.54
X74.8Y-133.14
X74.8Y-133.74
X75.5Y-127.54
X75.5Y-128.14
X75.55Y-143.14
X75.7Y-134.29
X75.8Y-149.04
X75.825Y-140.94
X75.825Y-141.515
X76.15Y-136.165
X76.225Y-138.54
X76.4Y-149.04
X76.474Y-109.589
X76.5Y-84.74
X76.5Y-87.64
X76.9Y-148.54
X77.1Y-84.74
X77.1Y-87.64
X77.2Y-124.64
X77.25Y-125.29
X77.3Y-149.04
X77.7Y-84.74
X77.7Y-87.64
X77.741Y-136.124
X77.8Y-133.59
X77.9Y-149.04
X77.95Y-137.34
X78.2Y-75.39
X78.3Y-84.74
X78.3Y-87.64
X78.55Y-131.29
X79.2Y-129.14
X79.25Y-131.29
X79.5Y-75.14
X79.5Y-77.04
X79.5Y-78.84
X79.5Y-148.74
X79.6Y-117.74
X79.8Y-129.14
X80.1Y-71.34
X80.1Y-72.94
X80.1Y-75.14
X80.1Y-77.04
X80.1Y-78.84
X80.4Y-129.14
X80.55Y-113.29
X80.55Y-130.74
X80.65Y-118.39
X80.7Y-71.34
X80.7Y-72.94
X80.7Y-75.14
X80.7Y-77.04
X80.7Y-78.84
X81.0Y-109.915
X81.6Y-88.04
X81.6Y-119.44
X81.7Y-127.79
X81.75Y-80.09
X81.75Y-80.64
X81.75Y-94.115
X81.775Y-112.665
X81.85Y-137.94
X81.85Y-142.59
X81.9Y-122.44
X82.05Y-98.79
X82.05Y-120.84
X82.2Y-88.04
X82.25Y-119.84
X82.316Y-104.406
X82.35Y-80.09
X82.35Y-80.64
X82.45Y-128.39
X82.65Y-83.69
X82.95Y-80.09
X83.25Y-83.69
X83.3Y-88.04
X83.55Y-80.09
X83.575Y-100.44
X83.85Y-83.69
X83.9Y-88.04
X84.45Y-83.69
X84.55Y-93.715
X84.611Y-92.401
X84.7Y-118.54
X84.8Y-117.24
X84.85Y-115.29
X84.9Y-116.34
X84.9Y-129.14
X84.9Y-129.74
X84.9Y-130.34
X84.9Y-141.34
X84.9Y-141.94
X84.9Y-143.04
X84.9Y-143.64
X84.9Y-144.54
X84.9Y-145.14
X85.05Y-122.84
X85.25Y-96.815
X85.275Y-90.565
X85.3Y-114.64
X85.375Y-97.965
X85.4Y-104.84
X85.4Y-111.715
X85.5Y-130.34
X85.6Y-78.14
X85.775Y-94.409
X86.0Y-104.84
X86.6Y-104.84
X86.625Y-98.915
X86.65Y-117.89
X87.1Y-114.84
X87.286Y-87.076
X87.65Y-118.54
X87.915Y-119.682
X87.95Y-88.215
X87.975Y-92.54
X88.025Y-95.265
X88.15Y-108.54
X88.325Y-88.865
X88.35Y-81.19
X88.55Y-148.29
X88.85Y-123.74
X88.9Y-81.19
X89.05Y-135.94
X89.1Y-141.79
X89.25Y-144.14
X89.45Y-81.19
X89.55Y-120.09
X90.0Y-81.19
X90.05Y-148.09
X90.3Y-110.29
X90.55Y-81.19
X90.625Y-94.965
X90.85Y-135.915
X90.875Y-96.465
X91.1Y-81.19
X91.7Y-81.64
X91.713Y-148.633
X91.95Y-90.465
X91.95Y-136.14
X92.05Y-115.64
X92.05Y-149.59
X92.55Y-127.74
X92.6Y-129.29
X92.75Y-130.24
X92.8Y-132.24
X93.0Y-83.84
X93.0Y-141.29
X93.05Y-120.14
X93.4Y-132.24
X93.65Y-75.59
X93.7Y-123.79
X93.775Y-97.19
X93.8Y-80.34
X93.8Y-80.94
X93.85Y-137.54
X94.0Y-98.065
X94.0Y-111.665
X94.0Y-132.24
X94.05Y-90.54
X94.075Y-94.99
X94.4Y-80.34
X94.4Y-80.94
X94.75Y-90.54
X94.9Y-110.94
X94.9Y-140.54
X94.925Y-108.94
X95.0Y-80.34
X95.0Y-80.94
X95.3Y-95.94
X95.35Y-143.49
X95.4Y-142.09
X95.6Y-80.34
X95.6Y-80.94
X95.6Y-90.54
X96.0Y-110.74
X96.2Y-80.34
X96.2Y-80.94
X96.2Y-108.59
X96.3Y-90.54
X96.8Y-80.34
X96.8Y-80.94
X96.9Y-105.94
X96.9Y-114.79
X97.05Y-119.04
X97.05Y-123.04
X97.3Y-108.29
X97.35Y-150.99
X97.4Y-80.34
X97.4Y-80.94
X97.5Y-137.09
X97.55Y-105.44
X97.577Y-115.733
X97.6Y-90.44
X97.6Y-139.79
X97.972Y-116.31
X98.0Y-80.34
X98.0Y-80.94
X98.047Y-115.166
X98.2Y-90.44
X98.575Y-113.79
X98.575Y-116.665
X98.8Y-90.44
X98.81Y-84.54
X98.85Y-136.64
X98.9Y-104.84
X98.95Y-157.54
X99.552Y-145.39
X99.7Y-119.64
X99.7Y-123.74
X99.719Y-146.244
X99.875Y-93.29
X100.15Y-74.84
X100.198Y-99.85
X100.2Y-101.364
X100.351Y-146.543
X100.425Y-95.365
X100.678Y-147.216
X101.0Y-131.19
X101.061Y-147.801
X101.1Y-120.84
X101.103Y-130.24
X101.103Y-135.89
X101.125Y-112.69
X101.675Y-76.865
X102.05Y-110.49
X102.1Y-89.24
X102.249Y-143.69
X102.3Y-142.24
X102.3Y-142.84
X102.7Y-146.94
X102.775Y-110.265
X103.1Y-70.44
X103.1Y-71.04
X103.1Y-71.64
X103.1Y-72.24
X103.1Y-72.84
X103.3Y-146.94
X103.6Y-142.69
X103.65Y-114.44
X103.7Y-72.84
X103.85Y-138.19
X103.9Y-146.94
X104.2Y-101.262
X104.2Y-108.439
X104.2Y-113.89
X104.3Y-72.84
X104.45Y-109.949
X104.5Y-146.94
X104.635Y-101.81
X104.826Y-105.742
X104.891Y-108.546
X104.9Y-79.64
X104.925Y-78.165
X105.05Y-101.09
X105.075Y-72.965
X105.4Y-115.24
X105.447Y-106.142
X105.499Y-117.015
X105.55Y-118.24
X105.6Y-108.439
X105.8Y-134.64
X105.9Y-140.84
X106.009Y-138.031
X106.025Y-100.915
X106.079Y-106.541
X106.235Y-103.483
X106.333Y-108.527
X106.475Y-133.915
X106.55Y-134.665
X106.575Y-91.29
X106.701Y-106.941
X106.78Y-103.921
X106.9Y-113.34
X106.993Y-108.758
X107.12Y-104.532
X107.15Y-109.44
X107.305Y-107.34
X107.425Y-149.09
X107.45Y-124.74
X107.6Y-105.041
X107.8Y-81.34
X107.8Y-81.94
X107.8Y-107.89
X107.8Y-139.49
X107.8Y-104.368
X107.825Y-132.69
X108.25Y-85.49
X108.342Y-103.898
X108.375Y-105.041
X108.375Y-150.615
X108.45Y-77.34
X108.46Y-102.475
X108.575Y-103.165
X108.7Y-90.615
X108.7Y-122.64
X108.875Y-121.69
X109.2Y-137.24
X109.348Y-92.117
X109.35Y-149.089
X109.6Y-91.465
X109.8Y-137.24
X109.8Y-137.84
X109.9Y-102.69
X109.925Y-101.84
X110.139Y-98.383
X110.35Y-136.19
X110.374Y-92.778
X110.4Y-137.24
X110.4Y-137.84
X110.4Y-138.44
X110.499Y-97.783
X110.6Y-93.44
X110.775Y-102.79
X110.85Y-143.29
X110.9Y-97.19
X111.05Y-141.59
X111.197Y-97.833
X111.225Y-102.165
X111.25Y-146.14
X111.717Y-107.215
X111.8Y-101.615
X111.975Y-97.716
X112.025Y-119.64
X112.05Y-92.89
X112.2Y-113.84
X112.375Y-101.19
X112.54Y-107.443
X112.55Y-146.14
X112.8Y-113.84
X112.899Y-142.39
X113.0Y-105.04
X113.05Y-92.69
X113.1Y-86.64
X113.2Y-97.715
X113.201Y-107.215
X113.225Y-115.54
X113.4Y-113.84
X113.426Y-93.28
X113.6Y-105.04
X113.65Y-150.94
X113.7Y-86.64
X113.9Y-107.24
X114.2Y-105.04
X114.3Y-86.64
X114.7Y-100.94
X114.719Y-108.076
X114.775Y-153.715
X114.8Y-105.04
X114.949Y-108.737
X115.2Y-109.39
X115.3Y-100.94
X115.425Y-108.14
X115.704Y-107.499
X115.75Y-108.84
X115.925Y-94.14
X116.1Y-81.84
X116.225Y-97.765
X116.3Y-140.39
X116.35Y-133.24
X116.45Y-93.49
X116.45Y-99.015
X116.7Y-81.84
X116.7Y-119.14
X116.7Y-119.74
X116.75Y-162.69
X116.9Y-164.29
X116.925Y-96.84
X117.2Y-121.24
X117.2Y-121.84
X117.2Y-122.44
X117.3Y-81.84
X117.425Y-127.415
X117.5Y-113.99
X117.65Y-116.69
X117.9Y-81.84
X117.975Y-126.165
X118.1Y-148.29
X118.311Y-136.951
X118.35Y-93.29
X118.5Y-81.84
X118.6Y-145.04
X118.8Y-116.14
X118.8Y-116.74
X118.8Y-117.34
X118.8Y-117.94
X119.1Y-81.84
X119.1Y-92.84
X119.2Y-145.04
X119.4Y-86.09
X119.4Y-116.14
X119.4Y-116.74
X119.4Y-117.34
X119.4Y-117.94
X119.7Y-81.84
X119.7Y-92.84
X119.75Y-118.59
X120.3Y-92.84
X120.4Y-111.34
X120.4Y-111.94
X120.4Y-112.54
X120.4Y-113.14
X120.608Y-101.775
X120.9Y-92.84
X120.945Y-100.441
X121.35Y-104.69
X121.4Y-100.99
X121.4Y-107.14
X121.415Y-103.304
X121.55Y-97.165
X121.56Y-103.989
X121.75Y-102.69
X122.0Y-107.14
X122.275Y-93.99
X122.675Y-84.465
X122.7Y-83.365
X122.7Y-86.24
X122.95Y-98.79
X123.55Y-102.265
X123.75Y-165.59
X123.95Y-114.615
X124.1Y-125.765
X124.55Y-126.415
X124.874Y-166.19
X125.05Y-76.115
X125.45Y-74.89
X125.5Y-108.765
X125.6Y-114.39
X126.2Y-99.99
X126.225Y-95.165
X126.475Y-123.94
X126.5Y-104.34
X127.475Y-95.69
X127.5Y-114.59
X127.6Y-117.84
X127.6Y-118.44
X128.2Y-117.84
X128.2Y-118.44
X128.525Y-168.24
X128.75Y-95.615
X128.8Y-117.84
X128.8Y-118.44
X129.05Y-114.465
X129.125Y-108.765
T2
X57.5Y-102.24
X57.7Y-81.44
X58.4Y-102.24
X58.6Y-81.44
X59.3Y-102.24
X59.5Y-81.44
X66.9Y-101.94
X67.8Y-101.94
X68.7Y-101.94
X69.7Y-89.74
X70.6Y-89.74
X71.5Y-89.74
X74.5Y-75.54
X74.5Y-76.54
X74.5Y-77.44
X76.3Y-75.54
X76.3Y-76.54
X76.3Y-77.44
T3
X41.775Y-75.0
X41.775Y-165.0
X42.72Y-72.72
X42.72Y-77.28
X42.72Y-162.72
X42.72Y-167.28
X45.0Y-71.775
X45.0Y-78.225
X45.0Y-161.775
X45.0Y-168.225
X47.28Y-72.72
X47.28Y-77.28
X47.28Y-162.72
X47.28Y-167.28
X48.225Y-75.0
X48.225Y-165.0
X131.775Y-75.0
X131.775Y-165.0
X132.72Y-72.72
X132.72Y-77.28
X132.72Y-162.72
X132.72Y-167.28
X135.0Y-71.775
X135.0Y-78.225
X135.0Y-161.775
X135.0Y-168.225
X137.28Y-72.72
X137.28Y-77.28
X137.28Y-162.72
X137.28Y-167.28
X138.225Y-75.0
X138.225Y-165.0
T4
X101.8Y-71.35
X101.8Y-72.62
X101.8Y-73.89
X101.8Y-75.16
X111.47Y-91.48
X112.74Y-91.48
X114.01Y-91.48
X115.28Y-91.48
T5
X127.425Y-155.665
X127.425Y-163.285
T6
X41.81Y-117.55
X46.81Y-113.95
X51.81Y-117.55
T7
X64.582Y-154.83
X66.872Y-154.83
X67.89Y-159.65
X68.906Y-161.43
X69.922Y-159.65
X70.938Y-161.43
X71.954Y-159.65
X72.97Y-161.43
X73.986Y-159.65
X75.002Y-161.43
X76.012Y-154.83
X78.302Y-154.83
X87.53Y-154.83
X89.82Y-154.83
X90.838Y-159.65
X91.854Y-161.43
X92.87Y-159.65
X93.886Y-161.43
X94.902Y-159.65
X95.918Y-161.43
X96.934Y-159.65
X97.95Y-161.43
X98.96Y-154.83
X101.25Y-154.83
X107.32Y-154.83
X109.61Y-154.83
X110.628Y-159.65
X111.644Y-161.43
X112.66Y-159.65
X113.676Y-161.43
X114.692Y-159.65
X115.708Y-161.43
X116.724Y-159.65
X117.74Y-161.43
X118.75Y-154.83
X119.87Y-138.718
X119.87Y-141.257
X119.87Y-143.797
X119.87Y-146.338
X121.04Y-154.83
X122.41Y-139.987
X122.41Y-142.528
X122.41Y-145.067
X122.41Y-147.607
X124.835Y-117.16
X124.835Y-119.45
X124.835Y-128.59
X124.835Y-130.88
X129.655Y-121.476
X129.655Y-123.508
X129.655Y-125.54
X129.655Y-127.572
X131.435Y-120.46
X131.435Y-122.492
X131.435Y-124.524
X131.435Y-126.556
T8
X52.89Y-123.49
X54.89Y-123.49
X56.89Y-123.49
X58.89Y-123.49
T9
X133.697Y-85.63
X133.697Y-88.17
X133.697Y-90.71
X133.697Y-93.25
X133.697Y-95.79
X133.697Y-98.33
X133.697Y-100.87
X133.697Y-103.41
X133.697Y-105.95
X133.697Y-108.49
X136.237Y-85.63
X136.237Y-88.17
X136.237Y-90.71
X136.237Y-93.25
X136.237Y-95.79
X136.237Y-98.33
X136.237Y-100.87
X136.237Y-103.41
X136.237Y-105.95
X136.237Y-108.49
T10
X133.66Y-136.532
X133.66Y-139.072
X133.66Y-147.243
X133.66Y-149.782
T11
X52.16Y-120.77
X52.16Y-126.21
X59.16Y-120.77
X59.16Y-126.21
T12
X63.312Y-160.54
X79.572Y-160.54
X86.26Y-160.54
X102.52Y-160.54
X106.05Y-160.54
X122.31Y-160.54
X130.545Y-115.89
X130.545Y-132.15
T13
X125.71Y-135.412
X125.71Y-150.903
T14
X45.0Y-75.0
X45.0Y-165.0
X135.0Y-75.0
X135.0Y-165.0
T9
G00X56.565Y-155.917
M15
G01X54.065Y-155.917
M16
G05
G00X56.315Y-161.917
M15
G01X54.315Y-161.917
M16
G05
G00X60.015Y-157.917
M15
G01X60.015Y-159.917
M16
G05
T0
M30
