G04 #@! TF.GenerationSoftware,KiCad,Pcbnew,(6.0.0)*
G04 #@! TF.CreationDate,2022-04-27T13:01:12+04:00*
G04 #@! TF.ProjectId,Gateway_STM32_ver_2_0,47617465-7761-4795-9f53-544d33325f76,rev?*
G04 #@! TF.SameCoordinates,Original*
G04 #@! TF.FileFunction,Paste,Top*
G04 #@! TF.FilePolarity,Positive*
%FSLAX46Y46*%
G04 Gerber Fmt 4.6, Leading zero omitted, Abs format (unit mm)*
G04 Created by KiCad (PCBNEW (6.0.0)) date 2022-04-27 13:01:12*
%MOMM*%
%LPD*%
G01*
G04 APERTURE LIST*
G04 Aperture macros list*
%AMRoundRect*
0 Rectangle with rounded corners*
0 $1 Rounding radius*
0 $2 $3 $4 $5 $6 $7 $8 $9 X,Y pos of 4 corners*
0 Add a 4 corners polygon primitive as box body*
4,1,4,$2,$3,$4,$5,$6,$7,$8,$9,$2,$3,0*
0 Add four circle primitives for the rounded corners*
1,1,$1+$1,$2,$3*
1,1,$1+$1,$4,$5*
1,1,$1+$1,$6,$7*
1,1,$1+$1,$8,$9*
0 Add four rect primitives between the rounded corners*
20,1,$1+$1,$2,$3,$4,$5,0*
20,1,$1+$1,$4,$5,$6,$7,0*
20,1,$1+$1,$6,$7,$8,$9,0*
20,1,$1+$1,$8,$9,$2,$3,0*%
G04 Aperture macros list end*
%ADD10R,1.200000X1.400000*%
%ADD11R,1.000000X1.400000*%
%ADD12R,0.800000X0.600000*%
%ADD13RoundRect,0.200000X-0.200000X-0.275000X0.200000X-0.275000X0.200000X0.275000X-0.200000X0.275000X0*%
%ADD14RoundRect,0.150000X0.150000X-0.825000X0.150000X0.825000X-0.150000X0.825000X-0.150000X-0.825000X0*%
%ADD15RoundRect,0.200000X-0.275000X0.200000X-0.275000X-0.200000X0.275000X-0.200000X0.275000X0.200000X0*%
%ADD16RoundRect,0.150000X0.150000X-0.587500X0.150000X0.587500X-0.150000X0.587500X-0.150000X-0.587500X0*%
%ADD17R,4.500000X1.800000*%
%ADD18RoundRect,0.225000X0.250000X-0.225000X0.250000X0.225000X-0.250000X0.225000X-0.250000X-0.225000X0*%
%ADD19RoundRect,0.225000X-0.250000X0.225000X-0.250000X-0.225000X0.250000X-0.225000X0.250000X0.225000X0*%
%ADD20RoundRect,0.200000X0.200000X0.275000X-0.200000X0.275000X-0.200000X-0.275000X0.200000X-0.275000X0*%
%ADD21RoundRect,0.075000X0.662500X0.075000X-0.662500X0.075000X-0.662500X-0.075000X0.662500X-0.075000X0*%
%ADD22RoundRect,0.075000X0.075000X0.662500X-0.075000X0.662500X-0.075000X-0.662500X0.075000X-0.662500X0*%
%ADD23RoundRect,0.225000X-0.225000X-0.250000X0.225000X-0.250000X0.225000X0.250000X-0.225000X0.250000X0*%
%ADD24RoundRect,0.250000X0.250000X0.475000X-0.250000X0.475000X-0.250000X-0.475000X0.250000X-0.475000X0*%
%ADD25RoundRect,0.250000X0.475000X-0.250000X0.475000X0.250000X-0.475000X0.250000X-0.475000X-0.250000X0*%
%ADD26R,0.420000X0.700000*%
%ADD27R,1.000000X0.600000*%
%ADD28RoundRect,0.150000X-0.587500X-0.150000X0.587500X-0.150000X0.587500X0.150000X-0.587500X0.150000X0*%
%ADD29R,0.600000X0.800000*%
%ADD30RoundRect,0.100000X0.100000X-0.637500X0.100000X0.637500X-0.100000X0.637500X-0.100000X-0.637500X0*%
%ADD31RoundRect,0.200000X0.275000X-0.200000X0.275000X0.200000X-0.275000X0.200000X-0.275000X-0.200000X0*%
%ADD32RoundRect,0.250000X1.100000X-0.325000X1.100000X0.325000X-1.100000X0.325000X-1.100000X-0.325000X0*%
%ADD33RoundRect,0.250000X-0.250000X-0.475000X0.250000X-0.475000X0.250000X0.475000X-0.250000X0.475000X0*%
%ADD34RoundRect,0.225000X0.225000X0.250000X-0.225000X0.250000X-0.225000X-0.250000X0.225000X-0.250000X0*%
%ADD35R,2.000000X0.500000*%
%ADD36R,1.700000X2.000000*%
%ADD37RoundRect,0.250000X-1.100000X0.325000X-1.100000X-0.325000X1.100000X-0.325000X1.100000X0.325000X0*%
%ADD38R,1.500000X1.500000*%
%ADD39RoundRect,0.150000X0.150000X-0.512500X0.150000X0.512500X-0.150000X0.512500X-0.150000X-0.512500X0*%
%ADD40RoundRect,0.150000X0.850000X0.150000X-0.850000X0.150000X-0.850000X-0.150000X0.850000X-0.150000X0*%
%ADD41R,1.270000X3.600000*%
%ADD42R,1.350000X4.200000*%
%ADD43R,2.500000X1.800000*%
%ADD44RoundRect,0.218750X0.218750X0.256250X-0.218750X0.256250X-0.218750X-0.256250X0.218750X-0.256250X0*%
%ADD45R,1.800000X2.500000*%
%ADD46R,1.560000X0.650000*%
%ADD47RoundRect,0.100000X-0.637500X-0.100000X0.637500X-0.100000X0.637500X0.100000X-0.637500X0.100000X0*%
%ADD48R,1.400000X1.200000*%
%ADD49RoundRect,0.150000X-0.150000X0.587500X-0.150000X-0.587500X0.150000X-0.587500X0.150000X0.587500X0*%
%ADD50RoundRect,0.150000X-0.825000X-0.150000X0.825000X-0.150000X0.825000X0.150000X-0.825000X0.150000X0*%
%ADD51R,1.300000X1.900000*%
%ADD52RoundRect,0.150000X-0.512500X-0.150000X0.512500X-0.150000X0.512500X0.150000X-0.512500X0.150000X0*%
%ADD53RoundRect,0.075000X-0.075000X-0.725000X0.075000X-0.725000X0.075000X0.725000X-0.075000X0.725000X0*%
%ADD54RoundRect,0.075000X-0.725000X-0.075000X0.725000X-0.075000X0.725000X0.075000X-0.725000X0.075000X0*%
%ADD55RoundRect,0.250000X0.425000X-0.450000X0.425000X0.450000X-0.425000X0.450000X-0.425000X-0.450000X0*%
%ADD56RoundRect,0.150000X-0.850000X-0.150000X0.850000X-0.150000X0.850000X0.150000X-0.850000X0.150000X0*%
%ADD57R,0.300000X0.300000*%
%ADD58RoundRect,0.150000X0.587500X0.150000X-0.587500X0.150000X-0.587500X-0.150000X0.587500X-0.150000X0*%
%ADD59R,0.450000X1.750000*%
%ADD60R,3.600000X1.270000*%
%ADD61R,4.200000X1.350000*%
%ADD62RoundRect,0.250000X-0.325000X-1.100000X0.325000X-1.100000X0.325000X1.100000X-0.325000X1.100000X0*%
%ADD63RoundRect,0.218750X-0.381250X0.218750X-0.381250X-0.218750X0.381250X-0.218750X0.381250X0.218750X0*%
%ADD64R,1.000000X1.300000*%
%ADD65R,1.300000X1.000000*%
%ADD66R,2.350000X5.100000*%
%ADD67O,0.600000X1.800000*%
%ADD68O,1.800000X0.600000*%
%ADD69R,2.000000X0.900000*%
%ADD70R,0.900000X2.000000*%
%ADD71R,5.000000X5.000000*%
%ADD72R,1.800000X4.500000*%
%ADD73RoundRect,0.150000X-0.150000X0.825000X-0.150000X-0.825000X0.150000X-0.825000X0.150000X0.825000X0*%
%ADD74R,0.650000X1.560000*%
%ADD75RoundRect,0.250000X-0.475000X0.250000X-0.475000X-0.250000X0.475000X-0.250000X0.475000X0.250000X0*%
%ADD76RoundRect,0.150000X0.150000X-0.650000X0.150000X0.650000X-0.150000X0.650000X-0.150000X-0.650000X0*%
G04 APERTURE END LIST*
D10*
X75130000Y-137365000D03*
D11*
X76850000Y-137365000D03*
X76850000Y-135165000D03*
X74950000Y-135165000D03*
D12*
X71750000Y-127640000D03*
X74150000Y-127640000D03*
D13*
X62825000Y-127515000D03*
X64475000Y-127515000D03*
D14*
X93895000Y-83295000D03*
X95165000Y-83295000D03*
X96435000Y-83295000D03*
X97705000Y-83295000D03*
X97705000Y-78345000D03*
X96435000Y-78345000D03*
X95165000Y-78345000D03*
X93895000Y-78345000D03*
D15*
X107210000Y-92400000D03*
X107210000Y-94050000D03*
D16*
X101625000Y-125877500D03*
X103525000Y-125877500D03*
X102575000Y-124002500D03*
D17*
X71160000Y-138185000D03*
X71160000Y-135185000D03*
D13*
X51175000Y-143890000D03*
X52825000Y-143890000D03*
D18*
X63025000Y-123465000D03*
X63025000Y-121915000D03*
D19*
X96400000Y-142265000D03*
X96400000Y-143815000D03*
D20*
X43305000Y-143720000D03*
X41655000Y-143720000D03*
D21*
X106512500Y-147840000D03*
X106512500Y-147340000D03*
X106512500Y-146840000D03*
X106512500Y-146340000D03*
X106512500Y-145840000D03*
X106512500Y-145340000D03*
X106512500Y-144840000D03*
X106512500Y-144340000D03*
X106512500Y-143840000D03*
X106512500Y-143340000D03*
X106512500Y-142840000D03*
X106512500Y-142340000D03*
D22*
X105100000Y-140927500D03*
X104600000Y-140927500D03*
X104100000Y-140927500D03*
X103600000Y-140927500D03*
X103100000Y-140927500D03*
X102600000Y-140927500D03*
X102100000Y-140927500D03*
X101600000Y-140927500D03*
X101100000Y-140927500D03*
X100600000Y-140927500D03*
X100100000Y-140927500D03*
X99600000Y-140927500D03*
D21*
X98187500Y-142340000D03*
X98187500Y-142840000D03*
X98187500Y-143340000D03*
X98187500Y-143840000D03*
X98187500Y-144340000D03*
X98187500Y-144840000D03*
X98187500Y-145340000D03*
X98187500Y-145840000D03*
X98187500Y-146340000D03*
X98187500Y-146840000D03*
X98187500Y-147340000D03*
X98187500Y-147840000D03*
D22*
X99600000Y-149252500D03*
X100100000Y-149252500D03*
X100600000Y-149252500D03*
X101100000Y-149252500D03*
X101600000Y-149252500D03*
X102100000Y-149252500D03*
X102600000Y-149252500D03*
X103100000Y-149252500D03*
X103600000Y-149252500D03*
X104100000Y-149252500D03*
X104600000Y-149252500D03*
X105100000Y-149252500D03*
D15*
X102400000Y-131865000D03*
X102400000Y-133515000D03*
D23*
X91400000Y-147565000D03*
X92950000Y-147565000D03*
D19*
X106900000Y-139615000D03*
X106900000Y-141165000D03*
D15*
X93010000Y-93405000D03*
X93010000Y-91755000D03*
D24*
X97850000Y-87130000D03*
X95950000Y-87130000D03*
D19*
X108240000Y-70760000D03*
X108240000Y-72310000D03*
D25*
X58487500Y-118365000D03*
X58487500Y-116465000D03*
D26*
X58485000Y-153480000D03*
D27*
X58725000Y-152710000D03*
D26*
X59135000Y-153480000D03*
X57835000Y-153480000D03*
D27*
X57595000Y-152000000D03*
X57595000Y-152710000D03*
D26*
X57185000Y-153480000D03*
D27*
X58725000Y-152000000D03*
D26*
X59135000Y-150480000D03*
X58485000Y-150480000D03*
X57835000Y-150480000D03*
X57185000Y-150480000D03*
D28*
X95962500Y-121140000D03*
X95962500Y-123040000D03*
X97837500Y-122090000D03*
D29*
X79495000Y-147325000D03*
X79495000Y-149725000D03*
D28*
X95962500Y-117140000D03*
X95962500Y-119040000D03*
X97837500Y-118090000D03*
D23*
X53725000Y-150950000D03*
X55275000Y-150950000D03*
D10*
X95715000Y-97410000D03*
X95715000Y-99610000D03*
X97415000Y-99610000D03*
X97415000Y-97410000D03*
D23*
X94895000Y-74730000D03*
X96445000Y-74730000D03*
D20*
X66600000Y-113390000D03*
X64950000Y-113390000D03*
D15*
X94825000Y-137565000D03*
X94825000Y-139215000D03*
D30*
X92725000Y-112902500D03*
X93375000Y-112902500D03*
X94025000Y-112902500D03*
X94675000Y-112902500D03*
X95325000Y-112902500D03*
X95975000Y-112902500D03*
X96625000Y-112902500D03*
X97275000Y-112902500D03*
X97275000Y-107177500D03*
X96625000Y-107177500D03*
X95975000Y-107177500D03*
X95325000Y-107177500D03*
X94675000Y-107177500D03*
X94025000Y-107177500D03*
X93375000Y-107177500D03*
X92725000Y-107177500D03*
D16*
X123600000Y-110057500D03*
X125500000Y-110057500D03*
X124550000Y-108182500D03*
D20*
X103075000Y-127665000D03*
X101425000Y-127665000D03*
D31*
X99460000Y-77830000D03*
X99460000Y-76180000D03*
D13*
X66075000Y-72840000D03*
X67725000Y-72840000D03*
D18*
X91870000Y-96615000D03*
X91870000Y-95065000D03*
D25*
X90350000Y-93540000D03*
X90350000Y-91640000D03*
D32*
X67050000Y-136040000D03*
X67050000Y-133090000D03*
D33*
X82040000Y-72050000D03*
X83940000Y-72050000D03*
D34*
X119035000Y-111575000D03*
X117485000Y-111575000D03*
D13*
X99875000Y-90770000D03*
X101525000Y-90770000D03*
D16*
X55275000Y-76527500D03*
X57175000Y-76527500D03*
X56225000Y-74652500D03*
D35*
X49100000Y-149230000D03*
X49100000Y-150030000D03*
X49100000Y-150830000D03*
X49100000Y-151630000D03*
X49100000Y-152430000D03*
D36*
X49000000Y-155280000D03*
X43550000Y-155280000D03*
X43550000Y-146380000D03*
X49000000Y-146380000D03*
D37*
X76885000Y-147440000D03*
X76885000Y-150390000D03*
D18*
X111175000Y-123040000D03*
X111175000Y-121490000D03*
D38*
X93800000Y-102490000D03*
X86000000Y-102490000D03*
D39*
X113225000Y-119152500D03*
X114175000Y-119152500D03*
X115125000Y-119152500D03*
X115125000Y-116877500D03*
X114175000Y-116877500D03*
X113225000Y-116877500D03*
D15*
X94400000Y-144240000D03*
X94400000Y-145890000D03*
D13*
X92350000Y-114690000D03*
X94000000Y-114690000D03*
D15*
X96350000Y-137565000D03*
X96350000Y-139215000D03*
D20*
X90175000Y-152190000D03*
X88525000Y-152190000D03*
D33*
X92480000Y-87120000D03*
X94380000Y-87120000D03*
X82040000Y-74070000D03*
X83940000Y-74070000D03*
D13*
X125725000Y-167570000D03*
X127375000Y-167570000D03*
D15*
X97550000Y-102845000D03*
X97550000Y-104495000D03*
D31*
X108425000Y-143340000D03*
X108425000Y-141690000D03*
D15*
X123170000Y-99555000D03*
X123170000Y-101205000D03*
D13*
X101525000Y-122215000D03*
X103175000Y-122215000D03*
D31*
X65000000Y-76905000D03*
X65000000Y-75255000D03*
D40*
X95875000Y-133535000D03*
X95875000Y-132265000D03*
X95875000Y-130995000D03*
X95875000Y-129725000D03*
X95875000Y-128455000D03*
X95875000Y-127185000D03*
X95875000Y-125915000D03*
X95875000Y-124645000D03*
X90875000Y-124645000D03*
X90875000Y-125915000D03*
X90875000Y-127185000D03*
X90875000Y-128455000D03*
X90875000Y-129725000D03*
X90875000Y-130995000D03*
X90875000Y-132265000D03*
X90875000Y-133535000D03*
D13*
X68275000Y-111315000D03*
X69925000Y-111315000D03*
D41*
X75350000Y-72427500D03*
D42*
X72525000Y-72627500D03*
X78175000Y-72627500D03*
D18*
X100690000Y-98995000D03*
X100690000Y-97445000D03*
D13*
X125735000Y-166030000D03*
X127385000Y-166030000D03*
D23*
X96010000Y-101400000D03*
X97560000Y-101400000D03*
D43*
X58375000Y-112365000D03*
X62375000Y-112365000D03*
D34*
X100850000Y-82310000D03*
X99300000Y-82310000D03*
D20*
X92625000Y-123040000D03*
X90975000Y-123040000D03*
D15*
X74950000Y-116265000D03*
X74950000Y-117915000D03*
D18*
X112700000Y-123040000D03*
X112700000Y-121490000D03*
X81925000Y-85240000D03*
X81925000Y-83690000D03*
D19*
X91325000Y-107040000D03*
X91325000Y-108590000D03*
D20*
X129225000Y-106402500D03*
X127575000Y-106402500D03*
D31*
X94175000Y-118690000D03*
X94175000Y-117040000D03*
D23*
X81825000Y-134940000D03*
X83375000Y-134940000D03*
D13*
X127575000Y-111840000D03*
X129225000Y-111840000D03*
D44*
X136827500Y-154630000D03*
X135252500Y-154630000D03*
D34*
X119750000Y-119515000D03*
X118200000Y-119515000D03*
X69000000Y-144205000D03*
X67450000Y-144205000D03*
D13*
X59775000Y-75340000D03*
X61425000Y-75340000D03*
D45*
X89740000Y-79150000D03*
X89740000Y-83150000D03*
D19*
X96025000Y-102880000D03*
X96025000Y-104430000D03*
D16*
X127225000Y-110065000D03*
X129125000Y-110065000D03*
X128175000Y-108190000D03*
D20*
X96075000Y-147415000D03*
X94425000Y-147415000D03*
D33*
X119735000Y-98500000D03*
X121635000Y-98500000D03*
D23*
X113725000Y-131690000D03*
X115275000Y-131690000D03*
D13*
X125835000Y-103040000D03*
X127485000Y-103040000D03*
D44*
X53787500Y-72790000D03*
X52212500Y-72790000D03*
D34*
X75435000Y-145815000D03*
X73885000Y-145815000D03*
D13*
X102235000Y-78130000D03*
X103885000Y-78130000D03*
X113675000Y-148490000D03*
X115325000Y-148490000D03*
D32*
X65425000Y-123340000D03*
X65425000Y-120390000D03*
D44*
X136817500Y-159510000D03*
X135242500Y-159510000D03*
D46*
X67125000Y-127590000D03*
X67125000Y-128540000D03*
X67125000Y-129490000D03*
X69825000Y-129490000D03*
X69825000Y-128540000D03*
X69825000Y-127590000D03*
D47*
X83312500Y-113990000D03*
X83312500Y-114640000D03*
X83312500Y-115290000D03*
X83312500Y-115940000D03*
X83312500Y-116590000D03*
X83312500Y-117240000D03*
X83312500Y-117890000D03*
X83312500Y-118540000D03*
X89037500Y-118540000D03*
X89037500Y-117890000D03*
X89037500Y-117240000D03*
X89037500Y-116590000D03*
X89037500Y-115940000D03*
X89037500Y-115290000D03*
X89037500Y-114640000D03*
X89037500Y-113990000D03*
D19*
X100350000Y-137615000D03*
X100350000Y-139165000D03*
D20*
X64475000Y-129040000D03*
X62825000Y-129040000D03*
D13*
X132165000Y-154620000D03*
X133815000Y-154620000D03*
D20*
X89550000Y-120965000D03*
X87900000Y-120965000D03*
X107000000Y-127665000D03*
X105350000Y-127665000D03*
D18*
X92300000Y-80515000D03*
X92300000Y-78965000D03*
D13*
X123950000Y-111845000D03*
X125600000Y-111845000D03*
D20*
X96495000Y-73200000D03*
X94845000Y-73200000D03*
D34*
X119810000Y-96250000D03*
X118260000Y-96250000D03*
D15*
X110450000Y-115615000D03*
X110450000Y-117265000D03*
D25*
X89550000Y-108540000D03*
X89550000Y-106640000D03*
D13*
X76250000Y-122440000D03*
X77900000Y-122440000D03*
D23*
X94895000Y-76250000D03*
X96445000Y-76250000D03*
D48*
X92675000Y-144215000D03*
X90475000Y-144215000D03*
X90475000Y-145915000D03*
X92675000Y-145915000D03*
D13*
X132165000Y-156240000D03*
X133815000Y-156240000D03*
D34*
X106900000Y-114115000D03*
X105350000Y-114115000D03*
D44*
X136817500Y-157880000D03*
X135242500Y-157880000D03*
D15*
X90825000Y-113315000D03*
X90825000Y-114965000D03*
X108925000Y-115615000D03*
X108925000Y-117265000D03*
D49*
X55230000Y-147292500D03*
X53330000Y-147292500D03*
X54280000Y-149167500D03*
D44*
X80887500Y-122440000D03*
X79312500Y-122440000D03*
D13*
X105450000Y-122215000D03*
X107100000Y-122215000D03*
X64950000Y-114915000D03*
X66600000Y-114915000D03*
D19*
X99070000Y-96755000D03*
X99070000Y-98305000D03*
D50*
X101950000Y-115735000D03*
X101950000Y-117005000D03*
X101950000Y-118275000D03*
X101950000Y-119545000D03*
X106900000Y-119545000D03*
X106900000Y-118275000D03*
X106900000Y-117005000D03*
X106900000Y-115735000D03*
D13*
X92900000Y-105365000D03*
X94550000Y-105365000D03*
D34*
X55825000Y-143890000D03*
X54275000Y-143890000D03*
D51*
X89520000Y-95755000D03*
X84020000Y-95755000D03*
X84020000Y-98955000D03*
X89520000Y-98955000D03*
D31*
X94175000Y-122815000D03*
X94175000Y-121165000D03*
D13*
X62825000Y-130565000D03*
X64475000Y-130565000D03*
D49*
X109325000Y-150227500D03*
X107425000Y-150227500D03*
X108375000Y-152102500D03*
D33*
X82040000Y-76090000D03*
X83940000Y-76090000D03*
D18*
X97925000Y-129840000D03*
X97925000Y-128290000D03*
D44*
X46307500Y-143720000D03*
X44732500Y-143720000D03*
D31*
X99450000Y-80855000D03*
X99450000Y-79205000D03*
D19*
X99450000Y-131990000D03*
X99450000Y-133540000D03*
D52*
X88367500Y-91640000D03*
X88367500Y-93540000D03*
X86092500Y-93540000D03*
X86092500Y-92590000D03*
X86092500Y-91640000D03*
D34*
X80350000Y-136465000D03*
X78800000Y-136465000D03*
D20*
X92625000Y-121515000D03*
X90975000Y-121515000D03*
D19*
X91870000Y-98085000D03*
X91870000Y-99635000D03*
D13*
X76250000Y-120815000D03*
X77900000Y-120815000D03*
X82975000Y-119840000D03*
X84625000Y-119840000D03*
D34*
X105425000Y-139140000D03*
X103875000Y-139140000D03*
D13*
X99875000Y-92290000D03*
X101525000Y-92290000D03*
D23*
X58375000Y-114915000D03*
X59925000Y-114915000D03*
D34*
X109950000Y-146340000D03*
X108400000Y-146340000D03*
D46*
X65950000Y-140655000D03*
X65950000Y-141605000D03*
X65950000Y-142555000D03*
X68650000Y-142555000D03*
X68650000Y-141605000D03*
X68650000Y-140655000D03*
D19*
X103010000Y-93925000D03*
X103010000Y-95475000D03*
D34*
X119035000Y-113100000D03*
X117485000Y-113100000D03*
D15*
X79415000Y-139040000D03*
X79415000Y-140690000D03*
D53*
X104210000Y-95825000D03*
X104710000Y-95825000D03*
X105210000Y-95825000D03*
X105710000Y-95825000D03*
X106210000Y-95825000D03*
X106710000Y-95825000D03*
X107210000Y-95825000D03*
X107710000Y-95825000D03*
X108210000Y-95825000D03*
X108710000Y-95825000D03*
X109210000Y-95825000D03*
X109710000Y-95825000D03*
X110210000Y-95825000D03*
X110710000Y-95825000D03*
X111210000Y-95825000D03*
X111710000Y-95825000D03*
X112210000Y-95825000D03*
X112710000Y-95825000D03*
X113210000Y-95825000D03*
X113710000Y-95825000D03*
X114210000Y-95825000D03*
X114710000Y-95825000D03*
X115210000Y-95825000D03*
X115710000Y-95825000D03*
X116210000Y-95825000D03*
D54*
X117885000Y-97500000D03*
X117885000Y-98000000D03*
X117885000Y-98500000D03*
X117885000Y-99000000D03*
X117885000Y-99500000D03*
X117885000Y-100000000D03*
X117885000Y-100500000D03*
X117885000Y-101000000D03*
X117885000Y-101500000D03*
X117885000Y-102000000D03*
X117885000Y-102500000D03*
X117885000Y-103000000D03*
X117885000Y-103500000D03*
X117885000Y-104000000D03*
X117885000Y-104500000D03*
X117885000Y-105000000D03*
X117885000Y-105500000D03*
X117885000Y-106000000D03*
X117885000Y-106500000D03*
X117885000Y-107000000D03*
X117885000Y-107500000D03*
X117885000Y-108000000D03*
X117885000Y-108500000D03*
X117885000Y-109000000D03*
X117885000Y-109500000D03*
D53*
X116210000Y-111175000D03*
X115710000Y-111175000D03*
X115210000Y-111175000D03*
X114710000Y-111175000D03*
X114210000Y-111175000D03*
X113710000Y-111175000D03*
X113210000Y-111175000D03*
X112710000Y-111175000D03*
X112210000Y-111175000D03*
X111710000Y-111175000D03*
X111210000Y-111175000D03*
X110710000Y-111175000D03*
X110210000Y-111175000D03*
X109710000Y-111175000D03*
X109210000Y-111175000D03*
X108710000Y-111175000D03*
X108210000Y-111175000D03*
X107710000Y-111175000D03*
X107210000Y-111175000D03*
X106710000Y-111175000D03*
X106210000Y-111175000D03*
X105710000Y-111175000D03*
X105210000Y-111175000D03*
X104710000Y-111175000D03*
X104210000Y-111175000D03*
D54*
X102535000Y-109500000D03*
X102535000Y-109000000D03*
X102535000Y-108500000D03*
X102535000Y-108000000D03*
X102535000Y-107500000D03*
X102535000Y-107000000D03*
X102535000Y-106500000D03*
X102535000Y-106000000D03*
X102535000Y-105500000D03*
X102535000Y-105000000D03*
X102535000Y-104500000D03*
X102535000Y-104000000D03*
X102535000Y-103500000D03*
X102535000Y-103000000D03*
X102535000Y-102500000D03*
X102535000Y-102000000D03*
X102535000Y-101500000D03*
X102535000Y-101000000D03*
X102535000Y-100500000D03*
X102535000Y-100000000D03*
X102535000Y-99500000D03*
X102535000Y-99000000D03*
X102535000Y-98500000D03*
X102535000Y-98000000D03*
X102535000Y-97500000D03*
D17*
X72825000Y-125590000D03*
X72825000Y-122590000D03*
D32*
X82790000Y-89795000D03*
X82790000Y-86845000D03*
D37*
X61790000Y-147285000D03*
X61790000Y-150235000D03*
D44*
X136830000Y-156250000D03*
X135255000Y-156250000D03*
D37*
X43300000Y-83315000D03*
X43300000Y-86265000D03*
D33*
X92480000Y-89140000D03*
X94380000Y-89140000D03*
D23*
X68025000Y-125915000D03*
X69575000Y-125915000D03*
D20*
X96075000Y-148940000D03*
X94425000Y-148940000D03*
D55*
X83770000Y-85000000D03*
X83770000Y-82300000D03*
D31*
X81525000Y-118315000D03*
X81525000Y-116665000D03*
D20*
X75485000Y-144290000D03*
X73835000Y-144290000D03*
D56*
X114750000Y-121070000D03*
X114750000Y-122340000D03*
X114750000Y-123610000D03*
X114750000Y-124880000D03*
X114750000Y-126150000D03*
X114750000Y-127420000D03*
X114750000Y-128690000D03*
X114750000Y-129960000D03*
X119750000Y-129960000D03*
X119750000Y-128690000D03*
X119750000Y-127420000D03*
X119750000Y-126150000D03*
X119750000Y-124880000D03*
X119750000Y-123610000D03*
X119750000Y-122340000D03*
X119750000Y-121070000D03*
D19*
X112700000Y-124790000D03*
X112700000Y-126340000D03*
D38*
X106900000Y-85500000D03*
X106900000Y-77700000D03*
D23*
X91425000Y-142565000D03*
X92975000Y-142565000D03*
D13*
X113675000Y-136265000D03*
X115325000Y-136265000D03*
D37*
X71375000Y-142090000D03*
X71375000Y-145040000D03*
D49*
X73400000Y-116277500D03*
X71500000Y-116277500D03*
X72450000Y-118152500D03*
D23*
X46225000Y-100190000D03*
X47775000Y-100190000D03*
D19*
X80665000Y-143540000D03*
X80665000Y-145090000D03*
D12*
X84250000Y-111865000D03*
X81850000Y-111865000D03*
D57*
X116775000Y-147715000D03*
X116775000Y-148415000D03*
X117625000Y-148065000D03*
D31*
X98575000Y-112840000D03*
X98575000Y-111190000D03*
D33*
X81875000Y-136715000D03*
X83775000Y-136715000D03*
D18*
X106720000Y-75895000D03*
X106720000Y-74345000D03*
D58*
X75737500Y-114165000D03*
X75737500Y-112265000D03*
X73862500Y-113215000D03*
D44*
X64587500Y-72840000D03*
X63012500Y-72840000D03*
D23*
X83230000Y-138545000D03*
X84780000Y-138545000D03*
D16*
X105550000Y-125877500D03*
X107450000Y-125877500D03*
X106500000Y-124002500D03*
D19*
X97925000Y-125265000D03*
X97925000Y-126815000D03*
D59*
X87025000Y-125790000D03*
X86375000Y-125790000D03*
X85725000Y-125790000D03*
X85075000Y-125790000D03*
X84425000Y-125790000D03*
X83775000Y-125790000D03*
X83125000Y-125790000D03*
X82475000Y-125790000D03*
X81825000Y-125790000D03*
X81175000Y-125790000D03*
X80525000Y-125790000D03*
X79875000Y-125790000D03*
X79225000Y-125790000D03*
X78575000Y-125790000D03*
X78575000Y-132990000D03*
X79225000Y-132990000D03*
X79875000Y-132990000D03*
X80525000Y-132990000D03*
X81175000Y-132990000D03*
X81825000Y-132990000D03*
X82475000Y-132990000D03*
X83125000Y-132990000D03*
X83775000Y-132990000D03*
X84425000Y-132990000D03*
X85075000Y-132990000D03*
X85725000Y-132990000D03*
X86375000Y-132990000D03*
X87025000Y-132990000D03*
D19*
X98825000Y-137615000D03*
X98825000Y-139165000D03*
D60*
X42450000Y-100190000D03*
D61*
X42650000Y-97365000D03*
X42650000Y-103015000D03*
D62*
X83350000Y-140945000D03*
X86300000Y-140945000D03*
D37*
X65050000Y-147285000D03*
X65050000Y-150235000D03*
D20*
X89550000Y-122490000D03*
X87900000Y-122490000D03*
D15*
X77550000Y-112515000D03*
X77550000Y-114165000D03*
D19*
X64450000Y-116465000D03*
X64450000Y-118015000D03*
D31*
X69925000Y-118140000D03*
X69925000Y-116490000D03*
D24*
X97850000Y-89150000D03*
X95950000Y-89150000D03*
D15*
X63450000Y-75255000D03*
X63450000Y-76905000D03*
D34*
X115275000Y-134740000D03*
X113725000Y-134740000D03*
D19*
X98910000Y-105910000D03*
X98910000Y-107460000D03*
D63*
X46370000Y-101740000D03*
X46370000Y-103865000D03*
D64*
X40795000Y-141857500D03*
X42295000Y-141857500D03*
X43795000Y-141857500D03*
X45295000Y-141857500D03*
X46795000Y-141857500D03*
X48295000Y-141857500D03*
X49795000Y-141857500D03*
X51295000Y-141857500D03*
X52795000Y-141857500D03*
X54295000Y-141857500D03*
X55795000Y-141857500D03*
X57295000Y-141857500D03*
X58795000Y-141857500D03*
D65*
X60295000Y-140757500D03*
X60295000Y-139257500D03*
X60295000Y-137757500D03*
X60295000Y-136257500D03*
X60295000Y-134757500D03*
X60295000Y-133257500D03*
X60295000Y-131757500D03*
X60295000Y-130257500D03*
D64*
X58795000Y-129157500D03*
X57295000Y-129157500D03*
X55795000Y-129157500D03*
X54295000Y-129157500D03*
X52795000Y-129157500D03*
X51295000Y-129157500D03*
X49795000Y-129157500D03*
X48295000Y-129157500D03*
X46795000Y-129157500D03*
X45295000Y-129157500D03*
X43795000Y-129157500D03*
X42295000Y-129157500D03*
X40795000Y-129157500D03*
D23*
X113725000Y-142390000D03*
X115275000Y-142390000D03*
D34*
X63805000Y-137685000D03*
X62255000Y-137685000D03*
D12*
X84250000Y-109890000D03*
X81850000Y-109890000D03*
D13*
X132165000Y-157880000D03*
X133815000Y-157880000D03*
D19*
X100680000Y-100505000D03*
X100680000Y-102055000D03*
D18*
X100435000Y-108460000D03*
X100435000Y-106910000D03*
D13*
X123950000Y-113370000D03*
X125600000Y-113370000D03*
X102235000Y-79650000D03*
X103885000Y-79650000D03*
X113675000Y-146965000D03*
X115325000Y-146965000D03*
D20*
X103075000Y-129190000D03*
X101425000Y-129190000D03*
D19*
X76475000Y-131565000D03*
X76475000Y-133115000D03*
D20*
X90175000Y-149140000D03*
X88525000Y-149140000D03*
D13*
X127575000Y-113365000D03*
X129225000Y-113365000D03*
X55325000Y-72790000D03*
X56975000Y-72790000D03*
D34*
X105695000Y-91710000D03*
X104145000Y-91710000D03*
D20*
X69925000Y-112865000D03*
X68275000Y-112865000D03*
D23*
X66395000Y-138995000D03*
X67945000Y-138995000D03*
D34*
X55415000Y-152760000D03*
X53865000Y-152760000D03*
D24*
X90975000Y-140640000D03*
X89075000Y-140640000D03*
D13*
X124575000Y-92140000D03*
X126225000Y-92140000D03*
D66*
X91595000Y-74320000D03*
X87445000Y-74320000D03*
D31*
X52150000Y-76855000D03*
X52150000Y-75205000D03*
X90825000Y-117990000D03*
X90825000Y-116340000D03*
D15*
X53700000Y-75205000D03*
X53700000Y-76855000D03*
D19*
X97925000Y-131990000D03*
X97925000Y-133540000D03*
D20*
X115325000Y-140840000D03*
X113675000Y-140840000D03*
D24*
X120210000Y-94475000D03*
X118310000Y-94475000D03*
D18*
X76475000Y-117865000D03*
X76475000Y-116315000D03*
D44*
X80912500Y-120815000D03*
X79337500Y-120815000D03*
D20*
X107000000Y-129190000D03*
X105350000Y-129190000D03*
D19*
X109975000Y-141740000D03*
X109975000Y-143290000D03*
D32*
X63780000Y-136030000D03*
X63780000Y-133080000D03*
D20*
X46375000Y-105390000D03*
X44725000Y-105390000D03*
X115325000Y-150015000D03*
X113675000Y-150015000D03*
D34*
X58875000Y-143590000D03*
X57325000Y-143590000D03*
D18*
X109425000Y-136190000D03*
X109425000Y-134640000D03*
D20*
X127375000Y-169095000D03*
X125725000Y-169095000D03*
D67*
X55375000Y-109315000D03*
X56375000Y-109315000D03*
X57375000Y-109315000D03*
X58375000Y-109315000D03*
X59375000Y-109315000D03*
X60375000Y-109315000D03*
X61375000Y-109315000D03*
X62375000Y-109315000D03*
X63375000Y-109315000D03*
X64375000Y-109315000D03*
X65375000Y-109315000D03*
X66375000Y-109315000D03*
X67375000Y-109315000D03*
X68375000Y-109315000D03*
X69375000Y-109315000D03*
X70375000Y-109315000D03*
X71375000Y-109315000D03*
X72375000Y-109315000D03*
X73375000Y-109315000D03*
X74375000Y-109315000D03*
D68*
X79975000Y-103715000D03*
X79975000Y-102715000D03*
X79975000Y-101715000D03*
X79975000Y-100715000D03*
X79975000Y-99715000D03*
X79975000Y-98715000D03*
X79975000Y-97715000D03*
X79975000Y-96715000D03*
X79975000Y-95715000D03*
X79975000Y-94715000D03*
X79975000Y-93715000D03*
X79975000Y-92715000D03*
X79975000Y-91715000D03*
X79975000Y-90715000D03*
X79975000Y-89715000D03*
X79975000Y-88715000D03*
X79975000Y-87715000D03*
X79975000Y-86715000D03*
X79975000Y-85715000D03*
X79975000Y-84715000D03*
D67*
X74375000Y-79115000D03*
X73375000Y-79115000D03*
X72375000Y-79115000D03*
X71375000Y-79115000D03*
X70375000Y-79115000D03*
X69375000Y-79115000D03*
X68375000Y-79115000D03*
X67375000Y-79115000D03*
X66375000Y-79115000D03*
X65375000Y-79115000D03*
X64375000Y-79115000D03*
X63375000Y-79115000D03*
X62375000Y-79115000D03*
X61375000Y-79115000D03*
X60375000Y-79115000D03*
X59375000Y-79115000D03*
X58375000Y-79115000D03*
X57375000Y-79115000D03*
X56375000Y-79115000D03*
X55375000Y-79115000D03*
D68*
X49775000Y-84715000D03*
X49775000Y-85715000D03*
X49775000Y-86715000D03*
X49775000Y-87715000D03*
X49775000Y-88715000D03*
X49775000Y-89715000D03*
X49775000Y-90715000D03*
X49775000Y-91715000D03*
X49775000Y-92715000D03*
X49775000Y-93715000D03*
X49775000Y-94715000D03*
X49775000Y-95715000D03*
X49775000Y-96715000D03*
X49775000Y-97715000D03*
X49775000Y-98715000D03*
X49775000Y-99715000D03*
X49775000Y-100715000D03*
X49775000Y-101715000D03*
X49775000Y-102715000D03*
X49775000Y-103715000D03*
D67*
X75375000Y-109315000D03*
X75375000Y-79115000D03*
D68*
X79975000Y-83715000D03*
X79975000Y-104715000D03*
D67*
X54375000Y-79115000D03*
D68*
X49775000Y-104715000D03*
X49775000Y-83715000D03*
D69*
X110280000Y-71055000D03*
X110280000Y-72325000D03*
X110280000Y-73595000D03*
X110280000Y-74865000D03*
X110280000Y-76135000D03*
X110280000Y-77405000D03*
X110280000Y-78675000D03*
X110280000Y-79945000D03*
X110280000Y-81215000D03*
X110280000Y-82485000D03*
X110280000Y-83755000D03*
X110280000Y-85025000D03*
X110280000Y-86295000D03*
X110280000Y-87565000D03*
D70*
X113065000Y-88565000D03*
X114335000Y-88565000D03*
X115605000Y-88565000D03*
X116875000Y-88565000D03*
X118145000Y-88565000D03*
X119415000Y-88565000D03*
X120685000Y-88565000D03*
X121955000Y-88565000D03*
X123225000Y-88565000D03*
X124495000Y-88565000D03*
D69*
X127280000Y-87565000D03*
X127280000Y-86295000D03*
X127280000Y-85025000D03*
X127280000Y-83755000D03*
X127280000Y-82485000D03*
X127280000Y-81215000D03*
X127280000Y-79945000D03*
X127280000Y-78675000D03*
X127280000Y-77405000D03*
X127280000Y-76135000D03*
X127280000Y-74865000D03*
X127280000Y-73595000D03*
X127280000Y-72325000D03*
X127280000Y-71055000D03*
D71*
X117780000Y-78555000D03*
D20*
X64125000Y-142035000D03*
X62475000Y-142035000D03*
X125600000Y-106395000D03*
X123950000Y-106395000D03*
D19*
X56720000Y-116420000D03*
X56720000Y-117970000D03*
D45*
X46750000Y-86240000D03*
X46750000Y-82240000D03*
D20*
X124495000Y-90620000D03*
X122845000Y-90620000D03*
D34*
X61400000Y-76890000D03*
X59850000Y-76890000D03*
D13*
X78750000Y-134940000D03*
X80400000Y-134940000D03*
D23*
X94475000Y-150465000D03*
X96025000Y-150465000D03*
D32*
X68700000Y-123340000D03*
X68700000Y-120390000D03*
D31*
X77875000Y-140690000D03*
X77875000Y-139040000D03*
D57*
X116725000Y-136940000D03*
X116725000Y-137640000D03*
X117575000Y-137290000D03*
D13*
X132175000Y-159510000D03*
X133825000Y-159510000D03*
X89200000Y-138865000D03*
X90850000Y-138865000D03*
X96455000Y-85310000D03*
X98105000Y-85310000D03*
D72*
X81575000Y-148315000D03*
X84575000Y-148315000D03*
D20*
X55325000Y-145450000D03*
X53675000Y-145450000D03*
D23*
X87500000Y-112690000D03*
X89050000Y-112690000D03*
D18*
X112700000Y-129365000D03*
X112700000Y-127815000D03*
D34*
X85075000Y-123840000D03*
X83525000Y-123840000D03*
D25*
X102125000Y-139115000D03*
X102125000Y-137215000D03*
D33*
X82040000Y-78110000D03*
X83940000Y-78110000D03*
D25*
X106470000Y-72705000D03*
X106470000Y-70805000D03*
D73*
X107805000Y-131240000D03*
X106535000Y-131240000D03*
X105265000Y-131240000D03*
X103995000Y-131240000D03*
X103995000Y-136190000D03*
X105265000Y-136190000D03*
X106535000Y-136190000D03*
X107805000Y-136190000D03*
D33*
X57350000Y-145390000D03*
X59250000Y-145390000D03*
D62*
X83350000Y-144215000D03*
X86300000Y-144215000D03*
D16*
X66550000Y-76577500D03*
X68450000Y-76577500D03*
X67500000Y-74702500D03*
D19*
X123170000Y-93985000D03*
X123170000Y-95535000D03*
D34*
X46325000Y-106940000D03*
X44775000Y-106940000D03*
D20*
X90175000Y-150665000D03*
X88525000Y-150665000D03*
D74*
X78965000Y-142805000D03*
X78015000Y-142805000D03*
X77065000Y-142805000D03*
X77065000Y-145505000D03*
X78015000Y-145505000D03*
X78965000Y-145505000D03*
D75*
X115710000Y-113025000D03*
X115710000Y-114925000D03*
D15*
X99650000Y-117040000D03*
X99650000Y-118690000D03*
D37*
X68320000Y-147285000D03*
X68320000Y-150235000D03*
D34*
X70275000Y-131140000D03*
X68725000Y-131140000D03*
X115275000Y-139315000D03*
X113725000Y-139315000D03*
D25*
X66240000Y-118360000D03*
X66240000Y-116460000D03*
D15*
X99650000Y-121040000D03*
X99650000Y-122690000D03*
D19*
X116675000Y-116665000D03*
X116675000Y-118215000D03*
D31*
X79075000Y-114165000D03*
X79075000Y-112515000D03*
D15*
X81525000Y-113640000D03*
X81525000Y-115290000D03*
D23*
X92865000Y-85350000D03*
X94415000Y-85350000D03*
D13*
X113675000Y-137790000D03*
X115325000Y-137790000D03*
D76*
X124935000Y-101190000D03*
X126205000Y-101190000D03*
X127475000Y-101190000D03*
X128745000Y-101190000D03*
X128745000Y-93990000D03*
X127475000Y-93990000D03*
X126205000Y-93990000D03*
X124935000Y-93990000D03*
D23*
X90875000Y-135090000D03*
X92425000Y-135090000D03*
D19*
X101480000Y-93925000D03*
X101480000Y-95475000D03*
D52*
X103212500Y-88270000D03*
X103212500Y-89220000D03*
X103212500Y-90170000D03*
X105487500Y-90170000D03*
X105487500Y-88270000D03*
D20*
X115325000Y-145440000D03*
X113675000Y-145440000D03*
D24*
X89050000Y-110915000D03*
X87150000Y-110915000D03*
D62*
X71875000Y-130265000D03*
X74825000Y-130265000D03*
D33*
X89050000Y-137090000D03*
X90950000Y-137090000D03*
D20*
X115325000Y-133215000D03*
X113675000Y-133215000D03*
D15*
X108240000Y-74295000D03*
X108240000Y-75945000D03*
X99600000Y-83775000D03*
X99600000Y-85425000D03*
D43*
X46080000Y-158610000D03*
X42080000Y-158610000D03*
D23*
X101405000Y-111560000D03*
X102955000Y-111560000D03*
D12*
X70470000Y-140255000D03*
X72870000Y-140255000D03*
D20*
X115325000Y-143915000D03*
X113675000Y-143915000D03*
D13*
X62475000Y-140525000D03*
X64125000Y-140525000D03*
D52*
X60450000Y-116465000D03*
X60450000Y-117415000D03*
X60450000Y-118365000D03*
X62725000Y-118365000D03*
X62725000Y-116465000D03*
M02*
