G04 #@! TF.GenerationSoftware,KiCad,Pcbnew,(6.0.0)*
G04 #@! TF.CreationDate,2022-01-13T12:23:07+04:00*
G04 #@! TF.ProjectId,Gateway_STM32_ver_2_0,47617465-7761-4795-9f53-544d33325f76,rev?*
G04 #@! TF.SameCoordinates,Original*
G04 #@! TF.FileFunction,Paste,Bot*
G04 #@! TF.FilePolarity,Positive*
%FSLAX46Y46*%
G04 Gerber Fmt 4.6, Leading zero omitted, Abs format (unit mm)*
G04 Created by KiCad (PCBNEW (6.0.0)) date 2022-01-13 12:23:07*
%MOMM*%
%LPD*%
G01*
G04 APERTURE LIST*
G04 Aperture macros list*
%AMRoundRect*
0 Rectangle with rounded corners*
0 $1 Rounding radius*
0 $2 $3 $4 $5 $6 $7 $8 $9 X,Y pos of 4 corners*
0 Add a 4 corners polygon primitive as box body*
4,1,4,$2,$3,$4,$5,$6,$7,$8,$9,$2,$3,0*
0 Add four circle primitives for the rounded corners*
1,1,$1+$1,$2,$3*
1,1,$1+$1,$4,$5*
1,1,$1+$1,$6,$7*
1,1,$1+$1,$8,$9*
0 Add four rect primitives between the rounded corners*
20,1,$1+$1,$2,$3,$4,$5,0*
20,1,$1+$1,$4,$5,$6,$7,0*
20,1,$1+$1,$6,$7,$8,$9,0*
20,1,$1+$1,$8,$9,$2,$3,0*%
G04 Aperture macros list end*
%ADD10R,0.620000X1.400000*%
%ADD11R,1.100000X2.400000*%
%ADD12R,1.350000X1.270000*%
%ADD13R,1.350000X1.420000*%
%ADD14RoundRect,0.200000X-0.200000X-0.275000X0.200000X-0.275000X0.200000X0.275000X-0.200000X0.275000X0*%
%ADD15RoundRect,0.225000X0.225000X0.250000X-0.225000X0.250000X-0.225000X-0.250000X0.225000X-0.250000X0*%
%ADD16RoundRect,0.225000X-0.250000X0.225000X-0.250000X-0.225000X0.250000X-0.225000X0.250000X0.225000X0*%
%ADD17RoundRect,0.250000X0.250000X0.475000X-0.250000X0.475000X-0.250000X-0.475000X0.250000X-0.475000X0*%
%ADD18R,1.800000X0.500000*%
%ADD19R,1.000000X0.550000*%
%ADD20R,2.400000X1.000000*%
%ADD21R,3.400000X1.000000*%
%ADD22R,0.400000X1.500000*%
G04 APERTURE END LIST*
D10*
X97980000Y-85470000D03*
X96880000Y-85470000D03*
X95780000Y-85470000D03*
X94680000Y-85470000D03*
X93580000Y-85470000D03*
X92480000Y-85470000D03*
X91380000Y-85470000D03*
X90280000Y-85470000D03*
D11*
X87800000Y-74470000D03*
X103950000Y-74470000D03*
D12*
X102950000Y-84070000D03*
D13*
X87800000Y-84070000D03*
D10*
X89180000Y-85470000D03*
D14*
X118875000Y-107450000D03*
X120525000Y-107450000D03*
X118875000Y-103300000D03*
X120525000Y-103300000D03*
D15*
X117175000Y-103300000D03*
X115625000Y-103300000D03*
D16*
X121500000Y-109925000D03*
X121500000Y-111475000D03*
D17*
X101600000Y-86125000D03*
X99700000Y-86125000D03*
D14*
X118875000Y-104850000D03*
X120525000Y-104850000D03*
D18*
X123795000Y-112875000D03*
D19*
X123095000Y-105675000D03*
X123095000Y-104270000D03*
X123095000Y-108460000D03*
X123095000Y-110460000D03*
D20*
X123995000Y-99325000D03*
D21*
X137795000Y-114975000D03*
X132495000Y-114975000D03*
X137795000Y-99325000D03*
D20*
X123995000Y-114975000D03*
D21*
X132495000Y-99325000D03*
D19*
X123095000Y-103270000D03*
X123095000Y-107460000D03*
X123095000Y-109460000D03*
D15*
X117175000Y-104850000D03*
X115625000Y-104850000D03*
X117175000Y-107450000D03*
X115625000Y-107450000D03*
D22*
X113000000Y-107080000D03*
X112350000Y-107080000D03*
X111700000Y-107080000D03*
X111700000Y-104420000D03*
X112350000Y-104420000D03*
X113000000Y-104420000D03*
M02*
