G04 #@! TF.GenerationSoftware,KiCad,Pcbnew,(6.0.0)*
G04 #@! TF.CreationDate,2022-01-13T12:23:07+04:00*
G04 #@! TF.ProjectId,Gateway_STM32_ver_2_0,47617465-7761-4795-9f53-544d33325f76,rev?*
G04 #@! TF.SameCoordinates,Original*
G04 #@! TF.FileFunction,Soldermask,Top*
G04 #@! TF.FilePolarity,Negative*
%FSLAX46Y46*%
G04 Gerber Fmt 4.6, Leading zero omitted, Abs format (unit mm)*
G04 Created by KiCad (PCBNEW (6.0.0)) date 2022-01-13 12:23:07*
%MOMM*%
%LPD*%
G01*
G04 APERTURE LIST*
G04 Aperture macros list*
%AMRoundRect*
0 Rectangle with rounded corners*
0 $1 Rounding radius*
0 $2 $3 $4 $5 $6 $7 $8 $9 X,Y pos of 4 corners*
0 Add a 4 corners polygon primitive as box body*
4,1,4,$2,$3,$4,$5,$6,$7,$8,$9,$2,$3,0*
0 Add four circle primitives for the rounded corners*
1,1,$1+$1,$2,$3*
1,1,$1+$1,$4,$5*
1,1,$1+$1,$6,$7*
1,1,$1+$1,$8,$9*
0 Add four rect primitives between the rounded corners*
20,1,$1+$1,$2,$3,$4,$5,0*
20,1,$1+$1,$4,$5,$6,$7,0*
20,1,$1+$1,$6,$7,$8,$9,0*
20,1,$1+$1,$8,$9,$2,$3,0*%
%AMFreePoly0*
4,1,17,1.395000,0.765000,0.855000,0.765000,0.855000,0.535000,1.395000,0.535000,1.395000,0.115000,0.855000,0.115000,0.855000,-0.115000,1.395000,-0.115000,1.395000,-0.535000,0.855000,-0.535000,0.855000,-0.765000,1.395000,-0.765000,1.395000,-1.185000,-0.855000,-1.185000,-0.855000,1.185000,1.395000,1.185000,1.395000,0.765000,1.395000,0.765000,$1*%
G04 Aperture macros list end*
%ADD10C,0.950000*%
%ADD11C,0.900000*%
%ADD12C,8.600000*%
%ADD13RoundRect,0.200000X-0.200000X-0.275000X0.200000X-0.275000X0.200000X0.275000X-0.200000X0.275000X0*%
%ADD14RoundRect,0.200000X-0.275000X0.200000X-0.275000X-0.200000X0.275000X-0.200000X0.275000X0.200000X0*%
%ADD15RoundRect,0.200000X0.275000X-0.200000X0.275000X0.200000X-0.275000X0.200000X-0.275000X-0.200000X0*%
%ADD16RoundRect,0.250000X-0.250000X-0.475000X0.250000X-0.475000X0.250000X0.475000X-0.250000X0.475000X0*%
%ADD17RoundRect,0.225000X-0.225000X-0.250000X0.225000X-0.250000X0.225000X0.250000X-0.225000X0.250000X0*%
%ADD18RoundRect,0.250000X-1.100000X0.325000X-1.100000X-0.325000X1.100000X-0.325000X1.100000X0.325000X0*%
%ADD19RoundRect,0.250000X-0.475000X0.250000X-0.475000X-0.250000X0.475000X-0.250000X0.475000X0.250000X0*%
%ADD20R,4.500000X1.300000*%
%ADD21R,3.900000X1.800000*%
%ADD22RoundRect,0.225000X-0.250000X0.225000X-0.250000X-0.225000X0.250000X-0.225000X0.250000X0.225000X0*%
%ADD23RoundRect,0.225000X0.225000X0.250000X-0.225000X0.250000X-0.225000X-0.250000X0.225000X-0.250000X0*%
%ADD24RoundRect,0.200000X0.200000X0.275000X-0.200000X0.275000X-0.200000X-0.275000X0.200000X-0.275000X0*%
%ADD25RoundRect,0.225000X0.250000X-0.225000X0.250000X0.225000X-0.250000X0.225000X-0.250000X-0.225000X0*%
%ADD26RoundRect,0.250000X1.100000X-0.325000X1.100000X0.325000X-1.100000X0.325000X-1.100000X-0.325000X0*%
%ADD27RoundRect,0.250000X-0.325000X-1.100000X0.325000X-1.100000X0.325000X1.100000X-0.325000X1.100000X0*%
%ADD28RoundRect,0.075000X0.075000X-0.662500X0.075000X0.662500X-0.075000X0.662500X-0.075000X-0.662500X0*%
%ADD29RoundRect,0.075000X0.662500X-0.075000X0.662500X0.075000X-0.662500X0.075000X-0.662500X-0.075000X0*%
%ADD30C,2.300000*%
%ADD31C,1.500000*%
%ADD32R,1.500000X1.500000*%
%ADD33C,3.250000*%
%ADD34R,1.000000X1.000000*%
%ADD35O,1.000000X1.000000*%
%ADD36R,1.800000X2.500000*%
%ADD37RoundRect,0.075000X-0.725000X-0.075000X0.725000X-0.075000X0.725000X0.075000X-0.725000X0.075000X0*%
%ADD38RoundRect,0.075000X-0.075000X-0.725000X0.075000X-0.725000X0.075000X0.725000X-0.075000X0.725000X0*%
%ADD39O,5.000000X2.500000*%
%ADD40O,4.500000X2.250000*%
%ADD41O,2.250000X4.500000*%
%ADD42R,1.900000X1.300000*%
%ADD43RoundRect,0.218750X-0.218750X-0.256250X0.218750X-0.256250X0.218750X0.256250X-0.218750X0.256250X0*%
%ADD44RoundRect,0.250000X0.325000X1.100000X-0.325000X1.100000X-0.325000X-1.100000X0.325000X-1.100000X0*%
%ADD45RoundRect,0.250000X-0.600000X-0.600000X0.600000X-0.600000X0.600000X0.600000X-0.600000X0.600000X0*%
%ADD46C,1.700000*%
%ADD47RoundRect,0.250000X0.250000X0.475000X-0.250000X0.475000X-0.250000X-0.475000X0.250000X-0.475000X0*%
%ADD48R,4.500000X1.800000*%
%ADD49RoundRect,0.150000X0.150000X-0.587500X0.150000X0.587500X-0.150000X0.587500X-0.150000X-0.587500X0*%
%ADD50C,2.050000*%
%ADD51C,2.250000*%
%ADD52R,1.750000X0.450000*%
%ADD53RoundRect,0.150000X0.587500X0.150000X-0.587500X0.150000X-0.587500X-0.150000X0.587500X-0.150000X0*%
%ADD54R,1.560000X0.650000*%
%ADD55RoundRect,0.150000X-0.512500X-0.150000X0.512500X-0.150000X0.512500X0.150000X-0.512500X0.150000X0*%
%ADD56C,2.000000*%
%ADD57RoundRect,0.100000X-0.637500X-0.100000X0.637500X-0.100000X0.637500X0.100000X-0.637500X0.100000X0*%
%ADD58RoundRect,0.150000X0.850000X0.150000X-0.850000X0.150000X-0.850000X-0.150000X0.850000X-0.150000X0*%
%ADD59R,0.800000X0.600000*%
%ADD60R,1.200000X1.400000*%
%ADD61R,1.100000X4.600000*%
%ADD62R,10.800000X9.400000*%
%ADD63R,1.400000X1.200000*%
%ADD64C,2.445000*%
%ADD65C,1.530000*%
%ADD66C,1.398000*%
%ADD67R,1.398000X1.398000*%
%ADD68R,1.300000X1.000000*%
%ADD69R,1.000000X1.300000*%
%ADD70RoundRect,0.250000X0.475000X-0.250000X0.475000X0.250000X-0.475000X0.250000X-0.475000X-0.250000X0*%
%ADD71RoundRect,0.218750X-0.218750X-0.381250X0.218750X-0.381250X0.218750X0.381250X-0.218750X0.381250X0*%
%ADD72RoundRect,0.250000X-0.312500X-0.625000X0.312500X-0.625000X0.312500X0.625000X-0.312500X0.625000X0*%
%ADD73RoundRect,0.218750X0.218750X0.256250X-0.218750X0.256250X-0.218750X-0.256250X0.218750X-0.256250X0*%
%ADD74R,0.600000X0.800000*%
%ADD75R,2.500000X1.800000*%
%ADD76R,0.300000X0.550000*%
%ADD77R,0.400000X0.550000*%
%ADD78RoundRect,0.150000X-0.825000X-0.150000X0.825000X-0.150000X0.825000X0.150000X-0.825000X0.150000X0*%
%ADD79R,1.700000X2.000000*%
%ADD80R,2.000000X0.500000*%
%ADD81C,1.000000*%
%ADD82FreePoly0,270.000000*%
%ADD83R,0.420000X0.700000*%
%ADD84O,1.800000X0.600000*%
%ADD85O,0.600000X1.800000*%
%ADD86RoundRect,0.150000X-0.150000X0.825000X-0.150000X-0.825000X0.150000X-0.825000X0.150000X0.825000X0*%
%ADD87RoundRect,0.250000X0.425000X-0.450000X0.425000X0.450000X-0.425000X0.450000X-0.425000X-0.450000X0*%
%ADD88R,0.900000X2.000000*%
%ADD89R,2.000000X0.900000*%
%ADD90R,5.000000X5.000000*%
G04 APERTURE END LIST*
D10*
X90800000Y-74050000D03*
X98800000Y-74050000D03*
D11*
X45000000Y-161775000D03*
X47280419Y-162719581D03*
X41775000Y-165000000D03*
X42719581Y-167280419D03*
X48225000Y-165000000D03*
X45000000Y-168225000D03*
D12*
X45000000Y-165000000D03*
D11*
X47280419Y-167280419D03*
X42719581Y-162719581D03*
X138225000Y-165000000D03*
D12*
X135000000Y-165000000D03*
D11*
X132719581Y-162719581D03*
X135000000Y-168225000D03*
X132719581Y-167280419D03*
X131775000Y-165000000D03*
X135000000Y-161775000D03*
X137280419Y-162719581D03*
X137280419Y-167280419D03*
D13*
X106650000Y-75900000D03*
X108300000Y-75900000D03*
D14*
X104750000Y-143175000D03*
X104750000Y-144825000D03*
X59388540Y-143400000D03*
X59388540Y-145050000D03*
D15*
X60945832Y-145050000D03*
X60945832Y-143400000D03*
D16*
X76150000Y-129020000D03*
X78050000Y-129020000D03*
D17*
X51350000Y-78000000D03*
X52900000Y-78000000D03*
D18*
X127875000Y-141900000D03*
X127875000Y-144850000D03*
D19*
X68475000Y-87750000D03*
X68475000Y-89650000D03*
D14*
X70300000Y-143425000D03*
X70300000Y-145075000D03*
D20*
X49150000Y-104350000D03*
X49150000Y-101810000D03*
X49150000Y-99270000D03*
X49150000Y-96730000D03*
D21*
X42350000Y-93840000D03*
X42350000Y-107500000D03*
D22*
X92985000Y-147735000D03*
X92985000Y-149285000D03*
D23*
X97100000Y-99875000D03*
X95550000Y-99875000D03*
D24*
X63000000Y-131055000D03*
X61350000Y-131055000D03*
D17*
X87375000Y-133050000D03*
X88925000Y-133050000D03*
X79400000Y-125175000D03*
X80950000Y-125175000D03*
D24*
X99250000Y-87975000D03*
X97600000Y-87975000D03*
D14*
X59200000Y-99925000D03*
X59200000Y-101575000D03*
D25*
X72800000Y-120775000D03*
X72800000Y-119225000D03*
D23*
X77675000Y-127170000D03*
X76125000Y-127170000D03*
D17*
X63600000Y-102700000D03*
X65150000Y-102700000D03*
X121850000Y-131650000D03*
X123400000Y-131650000D03*
D15*
X57100000Y-162000000D03*
X57100000Y-160350000D03*
D19*
X74525000Y-137625000D03*
X74525000Y-139525000D03*
D26*
X58325000Y-90675000D03*
X58325000Y-87725000D03*
D27*
X88075000Y-97550000D03*
X91025000Y-97550000D03*
D24*
X114275000Y-149480000D03*
X112625000Y-149480000D03*
X108300000Y-83000000D03*
X106650000Y-83000000D03*
D23*
X77650000Y-130800000D03*
X76100000Y-130800000D03*
D28*
X67100000Y-134212500D03*
X67600000Y-134212500D03*
X68100000Y-134212500D03*
X68600000Y-134212500D03*
X69100000Y-134212500D03*
X69600000Y-134212500D03*
X70100000Y-134212500D03*
X70600000Y-134212500D03*
X71100000Y-134212500D03*
X71600000Y-134212500D03*
X72100000Y-134212500D03*
X72600000Y-134212500D03*
D29*
X74012500Y-132800000D03*
X74012500Y-132300000D03*
X74012500Y-131800000D03*
X74012500Y-131300000D03*
X74012500Y-130800000D03*
X74012500Y-130300000D03*
X74012500Y-129800000D03*
X74012500Y-129300000D03*
X74012500Y-128800000D03*
X74012500Y-128300000D03*
X74012500Y-127800000D03*
X74012500Y-127300000D03*
D28*
X72600000Y-125887500D03*
X72100000Y-125887500D03*
X71600000Y-125887500D03*
X71100000Y-125887500D03*
X70600000Y-125887500D03*
X70100000Y-125887500D03*
X69600000Y-125887500D03*
X69100000Y-125887500D03*
X68600000Y-125887500D03*
X68100000Y-125887500D03*
X67600000Y-125887500D03*
X67100000Y-125887500D03*
D29*
X65687500Y-127300000D03*
X65687500Y-127800000D03*
X65687500Y-128300000D03*
X65687500Y-128800000D03*
X65687500Y-129300000D03*
X65687500Y-129800000D03*
X65687500Y-130300000D03*
X65687500Y-130800000D03*
X65687500Y-131300000D03*
X65687500Y-131800000D03*
X65687500Y-132300000D03*
X65687500Y-132800000D03*
D25*
X75650000Y-100825000D03*
X75650000Y-99275000D03*
D30*
X49515000Y-141020000D03*
X49515000Y-157280000D03*
D31*
X55225000Y-142290000D03*
X55225000Y-144580000D03*
X55225000Y-153720000D03*
X55225000Y-156010000D03*
X50405000Y-145598000D03*
X48625000Y-146614000D03*
X50405000Y-147630000D03*
X48625000Y-148646000D03*
X50405000Y-149662000D03*
X48625000Y-150678000D03*
X50405000Y-151694000D03*
D32*
X48625000Y-152710000D03*
D33*
X46085000Y-155500000D03*
X46085000Y-142800000D03*
D23*
X52900000Y-76375000D03*
X51350000Y-76375000D03*
D34*
X47750000Y-109625000D03*
D35*
X49020000Y-109625000D03*
X50290000Y-109625000D03*
X51560000Y-109625000D03*
D14*
X69100000Y-71225000D03*
X69100000Y-72875000D03*
D36*
X104150000Y-90350000D03*
X104150000Y-86350000D03*
D14*
X86850000Y-89925000D03*
X86850000Y-91575000D03*
D24*
X102275000Y-101800000D03*
X100625000Y-101800000D03*
D14*
X91975000Y-110475000D03*
X91975000Y-112125000D03*
D13*
X115345000Y-141620000D03*
X116995000Y-141620000D03*
D32*
X62850000Y-117650000D03*
X62850000Y-125450000D03*
D14*
X80535000Y-141815000D03*
X80535000Y-143465000D03*
D37*
X87300000Y-116500000D03*
X87300000Y-117000000D03*
X87300000Y-117500000D03*
X87300000Y-118000000D03*
X87300000Y-118500000D03*
X87300000Y-119000000D03*
X87300000Y-119500000D03*
X87300000Y-120000000D03*
X87300000Y-120500000D03*
X87300000Y-121000000D03*
X87300000Y-121500000D03*
X87300000Y-122000000D03*
X87300000Y-122500000D03*
X87300000Y-123000000D03*
X87300000Y-123500000D03*
X87300000Y-124000000D03*
X87300000Y-124500000D03*
X87300000Y-125000000D03*
X87300000Y-125500000D03*
X87300000Y-126000000D03*
X87300000Y-126500000D03*
X87300000Y-127000000D03*
X87300000Y-127500000D03*
X87300000Y-128000000D03*
X87300000Y-128500000D03*
D38*
X88975000Y-130175000D03*
X89475000Y-130175000D03*
X89975000Y-130175000D03*
X90475000Y-130175000D03*
X90975000Y-130175000D03*
X91475000Y-130175000D03*
X91975000Y-130175000D03*
X92475000Y-130175000D03*
X92975000Y-130175000D03*
X93475000Y-130175000D03*
X93975000Y-130175000D03*
X94475000Y-130175000D03*
X94975000Y-130175000D03*
X95475000Y-130175000D03*
X95975000Y-130175000D03*
X96475000Y-130175000D03*
X96975000Y-130175000D03*
X97475000Y-130175000D03*
X97975000Y-130175000D03*
X98475000Y-130175000D03*
X98975000Y-130175000D03*
X99475000Y-130175000D03*
X99975000Y-130175000D03*
X100475000Y-130175000D03*
X100975000Y-130175000D03*
D37*
X102650000Y-128500000D03*
X102650000Y-128000000D03*
X102650000Y-127500000D03*
X102650000Y-127000000D03*
X102650000Y-126500000D03*
X102650000Y-126000000D03*
X102650000Y-125500000D03*
X102650000Y-125000000D03*
X102650000Y-124500000D03*
X102650000Y-124000000D03*
X102650000Y-123500000D03*
X102650000Y-123000000D03*
X102650000Y-122500000D03*
X102650000Y-122000000D03*
X102650000Y-121500000D03*
X102650000Y-121000000D03*
X102650000Y-120500000D03*
X102650000Y-120000000D03*
X102650000Y-119500000D03*
X102650000Y-119000000D03*
X102650000Y-118500000D03*
X102650000Y-118000000D03*
X102650000Y-117500000D03*
X102650000Y-117000000D03*
X102650000Y-116500000D03*
D38*
X100975000Y-114825000D03*
X100475000Y-114825000D03*
X99975000Y-114825000D03*
X99475000Y-114825000D03*
X98975000Y-114825000D03*
X98475000Y-114825000D03*
X97975000Y-114825000D03*
X97475000Y-114825000D03*
X96975000Y-114825000D03*
X96475000Y-114825000D03*
X95975000Y-114825000D03*
X95475000Y-114825000D03*
X94975000Y-114825000D03*
X94475000Y-114825000D03*
X93975000Y-114825000D03*
X93475000Y-114825000D03*
X92975000Y-114825000D03*
X92475000Y-114825000D03*
X91975000Y-114825000D03*
X91475000Y-114825000D03*
X90975000Y-114825000D03*
X90475000Y-114825000D03*
X89975000Y-114825000D03*
X89475000Y-114825000D03*
X88975000Y-114825000D03*
D17*
X115775000Y-121250000D03*
X117325000Y-121250000D03*
D39*
X125225000Y-155837500D03*
D40*
X125225000Y-161837500D03*
D41*
X129925000Y-158837500D03*
D24*
X68475000Y-80250000D03*
X66825000Y-80250000D03*
D17*
X65337500Y-114700000D03*
X66887500Y-114700000D03*
D23*
X73925000Y-122900000D03*
X72375000Y-122900000D03*
D42*
X73550000Y-101000000D03*
X73550000Y-95500000D03*
X70350000Y-95500000D03*
X70350000Y-101000000D03*
D43*
X71862500Y-112300000D03*
X73437500Y-112300000D03*
D23*
X104950000Y-112625000D03*
X103400000Y-112625000D03*
D17*
X87375000Y-134600000D03*
X88925000Y-134600000D03*
D43*
X71862500Y-113900000D03*
X73437500Y-113900000D03*
D14*
X71050000Y-137975000D03*
X71050000Y-139625000D03*
D22*
X65642708Y-143475000D03*
X65642708Y-145025000D03*
D44*
X96975000Y-97475000D03*
X94025000Y-97475000D03*
D25*
X81935000Y-149785000D03*
X81935000Y-148235000D03*
D13*
X106775000Y-137400000D03*
X108425000Y-137400000D03*
D43*
X106712500Y-74300000D03*
X108287500Y-74300000D03*
D45*
X133560000Y-123840000D03*
D46*
X136100000Y-123840000D03*
X133560000Y-126380000D03*
X136100000Y-126380000D03*
X133560000Y-128920000D03*
X136100000Y-128920000D03*
X133560000Y-131460000D03*
X136100000Y-131460000D03*
X133560000Y-134000000D03*
X136100000Y-134000000D03*
X133560000Y-136540000D03*
X136100000Y-136540000D03*
X133560000Y-139080000D03*
X136100000Y-139080000D03*
X133560000Y-141620000D03*
X136100000Y-141620000D03*
X133560000Y-144160000D03*
X136100000Y-144160000D03*
X133560000Y-146700000D03*
X136100000Y-146700000D03*
D22*
X91335000Y-141485000D03*
X91335000Y-143035000D03*
D47*
X42960000Y-136720000D03*
X41060000Y-136720000D03*
D15*
X120450000Y-149350000D03*
X120450000Y-147700000D03*
D22*
X102800000Y-105525000D03*
X102800000Y-107075000D03*
D23*
X77650000Y-132325000D03*
X76100000Y-132325000D03*
D22*
X66900000Y-119225000D03*
X66900000Y-120775000D03*
D23*
X82000000Y-128275000D03*
X80450000Y-128275000D03*
D13*
X115345000Y-140080000D03*
X116995000Y-140080000D03*
D48*
X126750000Y-131125000D03*
X126750000Y-128125000D03*
D13*
X115335000Y-144700000D03*
X116985000Y-144700000D03*
D22*
X84725000Y-119625000D03*
X84725000Y-121175000D03*
D49*
X101225000Y-79612500D03*
X103125000Y-79612500D03*
X102175000Y-77737500D03*
D50*
X125875000Y-74300000D03*
D51*
X128415000Y-71760000D03*
X123335000Y-76840000D03*
X128415000Y-76840000D03*
X123335000Y-71760000D03*
D15*
X106870000Y-147435000D03*
X106870000Y-145785000D03*
D13*
X106775000Y-135800000D03*
X108425000Y-135800000D03*
D22*
X84725000Y-123950000D03*
X84725000Y-125500000D03*
D24*
X63000000Y-134105000D03*
X61350000Y-134105000D03*
D52*
X55925000Y-80425000D03*
X55925000Y-79775000D03*
X55925000Y-79125000D03*
X55925000Y-78475000D03*
X55925000Y-77825000D03*
X55925000Y-77175000D03*
X55925000Y-76525000D03*
X55925000Y-75875000D03*
X55925000Y-75225000D03*
X55925000Y-74575000D03*
X55925000Y-73925000D03*
X55925000Y-73275000D03*
X55925000Y-72625000D03*
X55925000Y-71975000D03*
X63125000Y-71975000D03*
X63125000Y-72625000D03*
X63125000Y-73275000D03*
X63125000Y-73925000D03*
X63125000Y-74575000D03*
X63125000Y-75225000D03*
X63125000Y-75875000D03*
X63125000Y-76525000D03*
X63125000Y-77175000D03*
X63125000Y-77825000D03*
X63125000Y-78475000D03*
X63125000Y-79125000D03*
X63125000Y-79775000D03*
X63125000Y-80425000D03*
D13*
X106650000Y-81450000D03*
X108300000Y-81450000D03*
D25*
X68050000Y-100825000D03*
X68050000Y-99275000D03*
D18*
X124600000Y-141900000D03*
X124600000Y-144850000D03*
D24*
X118450000Y-136075000D03*
X116800000Y-136075000D03*
D53*
X104287500Y-152200000D03*
X104287500Y-150300000D03*
X102412500Y-151250000D03*
D15*
X76518752Y-145050000D03*
X76518752Y-143400000D03*
D49*
X106500000Y-79612500D03*
X108400000Y-79612500D03*
X107450000Y-77737500D03*
D23*
X77700000Y-125590000D03*
X76150000Y-125590000D03*
D34*
X111675000Y-123300000D03*
D35*
X111675000Y-122030000D03*
X111675000Y-120760000D03*
X111675000Y-119490000D03*
D15*
X76350000Y-139400000D03*
X76350000Y-137750000D03*
D53*
X99362500Y-107275000D03*
X99362500Y-105375000D03*
X97487500Y-106325000D03*
D43*
X68437500Y-75975000D03*
X70012500Y-75975000D03*
D18*
X121300000Y-141900000D03*
X121300000Y-144850000D03*
D24*
X76625000Y-115500000D03*
X74975000Y-115500000D03*
X70050000Y-77600000D03*
X68400000Y-77600000D03*
D14*
X62503124Y-143400000D03*
X62503124Y-145050000D03*
D54*
X57650000Y-95350000D03*
X57650000Y-96300000D03*
X57650000Y-97250000D03*
X60350000Y-97250000D03*
X60350000Y-96300000D03*
X60350000Y-95350000D03*
D55*
X63062500Y-111150000D03*
X63062500Y-112100000D03*
X63062500Y-113050000D03*
X65337500Y-113050000D03*
X65337500Y-112100000D03*
X65337500Y-111150000D03*
D56*
X83500000Y-100050000D03*
X83500000Y-95050000D03*
D57*
X96987500Y-142875000D03*
X96987500Y-143525000D03*
X96987500Y-144175000D03*
X96987500Y-144825000D03*
X96987500Y-145475000D03*
X96987500Y-146125000D03*
X96987500Y-146775000D03*
X96987500Y-147425000D03*
X102712500Y-147425000D03*
X102712500Y-146775000D03*
X102712500Y-146125000D03*
X102712500Y-145475000D03*
X102712500Y-144825000D03*
X102712500Y-144175000D03*
X102712500Y-143525000D03*
X102712500Y-142875000D03*
D13*
X101375000Y-75900000D03*
X103025000Y-75900000D03*
D15*
X95625000Y-107125000D03*
X95625000Y-105475000D03*
D58*
X89125000Y-149795000D03*
X89125000Y-148525000D03*
X89125000Y-147255000D03*
X89125000Y-145985000D03*
X89125000Y-144715000D03*
X89125000Y-143445000D03*
X89125000Y-142175000D03*
X89125000Y-140905000D03*
X84125000Y-140905000D03*
X84125000Y-142175000D03*
X84125000Y-143445000D03*
X84125000Y-144715000D03*
X84125000Y-145985000D03*
X84125000Y-147255000D03*
X84125000Y-148525000D03*
X84125000Y-149795000D03*
D14*
X94900000Y-142525000D03*
X94900000Y-144175000D03*
D26*
X119300000Y-128125000D03*
X119300000Y-125175000D03*
D59*
X82750000Y-103100000D03*
X85150000Y-103100000D03*
X125725000Y-133500000D03*
X128125000Y-133500000D03*
D16*
X102500000Y-139500000D03*
X104400000Y-139500000D03*
D30*
X80961250Y-160510000D03*
X97221250Y-160510000D03*
D31*
X82231250Y-154800000D03*
X84521250Y-154800000D03*
X93661250Y-154800000D03*
X95951250Y-154800000D03*
X85539250Y-159620000D03*
X86555250Y-161400000D03*
X87571250Y-159620000D03*
X88587250Y-161400000D03*
X89603250Y-159620000D03*
X90619250Y-161400000D03*
X91635250Y-159620000D03*
D32*
X92651250Y-161400000D03*
D33*
X95441250Y-163940000D03*
X82741250Y-163940000D03*
D24*
X103025000Y-83000000D03*
X101375000Y-83000000D03*
D60*
X79325000Y-121150000D03*
X79325000Y-123350000D03*
X81025000Y-123350000D03*
X81025000Y-121150000D03*
D23*
X118400000Y-133025000D03*
X116850000Y-133025000D03*
D17*
X86025000Y-114225000D03*
X87575000Y-114225000D03*
D14*
X82045000Y-141805000D03*
X82045000Y-143455000D03*
D25*
X71850000Y-145025000D03*
X71850000Y-143475000D03*
D13*
X53450000Y-110425000D03*
X55100000Y-110425000D03*
X63137500Y-85675000D03*
X64787500Y-85675000D03*
X54050000Y-95050000D03*
X55700000Y-95050000D03*
D23*
X104950000Y-114175000D03*
X103400000Y-114175000D03*
D61*
X95675000Y-89050000D03*
X93975000Y-89050000D03*
X92275000Y-89050000D03*
D62*
X92275000Y-79900000D03*
D61*
X90575000Y-89050000D03*
X88875000Y-89050000D03*
D25*
X73404168Y-145000000D03*
X73404168Y-143450000D03*
D50*
X115300000Y-74300000D03*
D51*
X117840000Y-71760000D03*
X112760000Y-71760000D03*
X117840000Y-76840000D03*
X112760000Y-76840000D03*
D15*
X67200000Y-145075000D03*
X67200000Y-143425000D03*
D25*
X91335000Y-146085000D03*
X91335000Y-144535000D03*
D24*
X63000000Y-132580000D03*
X61350000Y-132580000D03*
D14*
X66575000Y-104475000D03*
X66575000Y-106125000D03*
D24*
X111250000Y-149480000D03*
X109600000Y-149480000D03*
D26*
X122575000Y-128125000D03*
X122575000Y-125175000D03*
D24*
X82050000Y-126750000D03*
X80400000Y-126750000D03*
D63*
X70950000Y-119150000D03*
X68750000Y-119150000D03*
X68750000Y-120850000D03*
X70950000Y-120850000D03*
D17*
X86025000Y-112675000D03*
X87575000Y-112675000D03*
D44*
X96975000Y-94200000D03*
X94025000Y-94200000D03*
D13*
X101375000Y-81450000D03*
X103025000Y-81450000D03*
D25*
X72650000Y-139580000D03*
X72650000Y-138030000D03*
X139250000Y-91850000D03*
X139250000Y-90300000D03*
D26*
X104300000Y-96175000D03*
X104300000Y-93225000D03*
D18*
X126625000Y-135450000D03*
X126625000Y-138400000D03*
D23*
X121000000Y-152225000D03*
X119450000Y-152225000D03*
D16*
X105600000Y-117675000D03*
X107500000Y-117675000D03*
D22*
X122050000Y-147750000D03*
X122050000Y-149300000D03*
D13*
X51300000Y-74825000D03*
X52950000Y-74825000D03*
D11*
X42719581Y-77280419D03*
X47280419Y-72719581D03*
X42719581Y-72719581D03*
X48225000Y-75000000D03*
X45000000Y-78225000D03*
X45000000Y-71775000D03*
X41775000Y-75000000D03*
D12*
X45000000Y-75000000D03*
D11*
X47280419Y-77280419D03*
D17*
X41260000Y-134895000D03*
X42810000Y-134895000D03*
D43*
X71862500Y-115500000D03*
X73437500Y-115500000D03*
D24*
X55700000Y-96575000D03*
X54050000Y-96575000D03*
D48*
X63450000Y-92475000D03*
X63450000Y-89475000D03*
D64*
X76582500Y-155680000D03*
X61092500Y-155680000D03*
D65*
X75462500Y-163630000D03*
X72922500Y-163630000D03*
X64752500Y-163630000D03*
X62212500Y-163630000D03*
D66*
X73277500Y-149840000D03*
X72007500Y-152380000D03*
X70737500Y-149840000D03*
X69467500Y-152380000D03*
X68197500Y-149840000D03*
X66927500Y-152380000D03*
X65657500Y-149840000D03*
D67*
X64387500Y-152380000D03*
D33*
X74552500Y-158730000D03*
X63122500Y-158730000D03*
D23*
X104225000Y-141350000D03*
X102675000Y-141350000D03*
D59*
X62425000Y-94650000D03*
X64825000Y-94650000D03*
D22*
X124175000Y-136950000D03*
X124175000Y-138500000D03*
D68*
X84737500Y-71375000D03*
X84737500Y-72875000D03*
X84737500Y-74375000D03*
X84737500Y-75875000D03*
X84737500Y-77375000D03*
X84737500Y-78875000D03*
X84737500Y-80375000D03*
X84737500Y-81875000D03*
X84737500Y-83375000D03*
X84737500Y-84875000D03*
X84737500Y-86375000D03*
X84737500Y-87875000D03*
X84737500Y-89375000D03*
D69*
X83637500Y-90875000D03*
X82137500Y-90875000D03*
X80637500Y-90875000D03*
X79137500Y-90875000D03*
X77637500Y-90875000D03*
X76137500Y-90875000D03*
X74637500Y-90875000D03*
X73137500Y-90875000D03*
D68*
X72037500Y-89375000D03*
X72037500Y-87875000D03*
X72037500Y-86375000D03*
X72037500Y-84875000D03*
X72037500Y-83375000D03*
X72037500Y-81875000D03*
X72037500Y-80375000D03*
X72037500Y-78875000D03*
X72037500Y-77375000D03*
X72037500Y-75875000D03*
X72037500Y-74375000D03*
X72037500Y-72875000D03*
X72037500Y-71375000D03*
D15*
X58650000Y-162000000D03*
X58650000Y-160350000D03*
D24*
X76625000Y-112300000D03*
X74975000Y-112300000D03*
X63025000Y-128650000D03*
X61375000Y-128650000D03*
D11*
X132719581Y-77280419D03*
X137280419Y-72719581D03*
X138225000Y-75000000D03*
D12*
X135000000Y-75000000D03*
D11*
X131775000Y-75000000D03*
X135000000Y-78225000D03*
X135000000Y-71775000D03*
X137280419Y-77280419D03*
X132719581Y-72719581D03*
D70*
X78175000Y-139525000D03*
X78175000Y-137625000D03*
D25*
X67850000Y-139575000D03*
X67850000Y-138025000D03*
D27*
X62550000Y-97300000D03*
X65500000Y-97300000D03*
D24*
X118450000Y-134550000D03*
X116800000Y-134550000D03*
D22*
X60850000Y-99975000D03*
X60850000Y-101525000D03*
D15*
X101175000Y-107125000D03*
X101175000Y-105475000D03*
D24*
X46210000Y-135220000D03*
X44560000Y-135220000D03*
D19*
X53300000Y-79700000D03*
X53300000Y-81600000D03*
D13*
X53450000Y-108900000D03*
X55100000Y-108900000D03*
D32*
X81475000Y-131300000D03*
X81475000Y-139100000D03*
D13*
X97600000Y-89550000D03*
X99250000Y-89550000D03*
X106775000Y-132600000D03*
X108425000Y-132600000D03*
D53*
X118587500Y-149475000D03*
X118587500Y-147575000D03*
X116712500Y-148525000D03*
D24*
X76625000Y-113900000D03*
X74975000Y-113900000D03*
D43*
X71862500Y-117100000D03*
X73437500Y-117100000D03*
D14*
X67550000Y-71225000D03*
X67550000Y-72875000D03*
D71*
X119837500Y-81050000D03*
X121962500Y-81050000D03*
D72*
X82437500Y-105300000D03*
X85362500Y-105300000D03*
D26*
X55025000Y-90675000D03*
X55025000Y-87725000D03*
D73*
X111437500Y-134200000D03*
X109862500Y-134200000D03*
D74*
X78850000Y-100850000D03*
X78850000Y-98450000D03*
D13*
X100625000Y-100275000D03*
X102275000Y-100275000D03*
X116800000Y-137600000D03*
X118450000Y-137600000D03*
D73*
X111437500Y-132600000D03*
X109862500Y-132600000D03*
D13*
X106775000Y-134200000D03*
X108425000Y-134200000D03*
D19*
X100475000Y-132875000D03*
X100475000Y-134775000D03*
D75*
X115750000Y-118675000D03*
X119750000Y-118675000D03*
D76*
X62850000Y-147260000D03*
X63350000Y-147260000D03*
D77*
X63850000Y-147260000D03*
D76*
X64350000Y-147260000D03*
X64850000Y-147260000D03*
X64850000Y-146490000D03*
X64350000Y-146490000D03*
D77*
X63850000Y-146490000D03*
D76*
X63350000Y-146490000D03*
X62850000Y-146490000D03*
D22*
X68475000Y-84600000D03*
X68475000Y-86150000D03*
D78*
X74375000Y-105195000D03*
X74375000Y-106465000D03*
X74375000Y-107735000D03*
X74375000Y-109005000D03*
X79325000Y-109005000D03*
X79325000Y-107735000D03*
X79325000Y-106465000D03*
X79325000Y-105195000D03*
D43*
X57850000Y-84100000D03*
X59425000Y-84100000D03*
D17*
X58125000Y-93500000D03*
X59675000Y-93500000D03*
D24*
X76625000Y-117100000D03*
X74975000Y-117100000D03*
D79*
X43625000Y-81375000D03*
X43625000Y-90275000D03*
X49075000Y-90275000D03*
X49075000Y-81375000D03*
D80*
X49175000Y-87425000D03*
X49175000Y-86625000D03*
X49175000Y-85825000D03*
X49175000Y-85025000D03*
X49175000Y-84225000D03*
D81*
X46475000Y-88025000D03*
X46475000Y-83625000D03*
D13*
X61050000Y-115550000D03*
X62700000Y-115550000D03*
D43*
X63175000Y-84100000D03*
X64750000Y-84100000D03*
D22*
X91385000Y-147735000D03*
X91385000Y-149285000D03*
X113980000Y-146345000D03*
X113980000Y-147895000D03*
D13*
X97600000Y-91125000D03*
X99250000Y-91125000D03*
D23*
X104625000Y-130625000D03*
X103075000Y-130625000D03*
D82*
X124925000Y-149530000D03*
D83*
X123950000Y-147575000D03*
X124600000Y-147575000D03*
X125250000Y-147575000D03*
X125900000Y-147575000D03*
D23*
X104625000Y-132175000D03*
X103075000Y-132175000D03*
D25*
X70275000Y-89425000D03*
X70275000Y-87875000D03*
D84*
X107150000Y-89850000D03*
X107150000Y-110850000D03*
D85*
X111750000Y-85250000D03*
D84*
X137350000Y-110850000D03*
X137350000Y-89850000D03*
D85*
X132750000Y-85250000D03*
X132750000Y-115450000D03*
D84*
X107150000Y-109850000D03*
X107150000Y-108850000D03*
X107150000Y-107850000D03*
X107150000Y-106850000D03*
X107150000Y-105850000D03*
X107150000Y-104850000D03*
X107150000Y-103850000D03*
X107150000Y-102850000D03*
X107150000Y-101850000D03*
X107150000Y-100850000D03*
X107150000Y-99850000D03*
X107150000Y-98850000D03*
X107150000Y-97850000D03*
X107150000Y-96850000D03*
X107150000Y-95850000D03*
X107150000Y-94850000D03*
X107150000Y-93850000D03*
X107150000Y-92850000D03*
X107150000Y-91850000D03*
X107150000Y-90850000D03*
D85*
X112750000Y-85250000D03*
X113750000Y-85250000D03*
X114750000Y-85250000D03*
X115750000Y-85250000D03*
X116750000Y-85250000D03*
X117750000Y-85250000D03*
X118750000Y-85250000D03*
X119750000Y-85250000D03*
X120750000Y-85250000D03*
X121750000Y-85250000D03*
X122750000Y-85250000D03*
X123750000Y-85250000D03*
X124750000Y-85250000D03*
X125750000Y-85250000D03*
X126750000Y-85250000D03*
X127750000Y-85250000D03*
X128750000Y-85250000D03*
X129750000Y-85250000D03*
X130750000Y-85250000D03*
X131750000Y-85250000D03*
D84*
X137350000Y-90850000D03*
X137350000Y-91850000D03*
X137350000Y-92850000D03*
X137350000Y-93850000D03*
X137350000Y-94850000D03*
X137350000Y-95850000D03*
X137350000Y-96850000D03*
X137350000Y-97850000D03*
X137350000Y-98850000D03*
X137350000Y-99850000D03*
X137350000Y-100850000D03*
X137350000Y-101850000D03*
X137350000Y-102850000D03*
X137350000Y-103850000D03*
X137350000Y-104850000D03*
X137350000Y-105850000D03*
X137350000Y-106850000D03*
X137350000Y-107850000D03*
X137350000Y-108850000D03*
X137350000Y-109850000D03*
D85*
X131750000Y-115450000D03*
X130750000Y-115450000D03*
X129750000Y-115450000D03*
X128750000Y-115450000D03*
X127750000Y-115450000D03*
X126750000Y-115450000D03*
X125750000Y-115450000D03*
X124750000Y-115450000D03*
X123750000Y-115450000D03*
X122750000Y-115450000D03*
X121750000Y-115450000D03*
X120750000Y-115450000D03*
X119750000Y-115450000D03*
X118750000Y-115450000D03*
X117750000Y-115450000D03*
X116750000Y-115450000D03*
X115750000Y-115450000D03*
X114750000Y-115450000D03*
X113750000Y-115450000D03*
X112750000Y-115450000D03*
D24*
X67625000Y-123970000D03*
X65975000Y-123970000D03*
D27*
X88075000Y-94275000D03*
X91025000Y-94275000D03*
D78*
X58650000Y-104345000D03*
X58650000Y-105615000D03*
X58650000Y-106885000D03*
X58650000Y-108155000D03*
X63600000Y-108155000D03*
X63600000Y-106885000D03*
X63600000Y-105615000D03*
X63600000Y-104345000D03*
D23*
X81000000Y-119325000D03*
X79450000Y-119325000D03*
D73*
X111437500Y-137400000D03*
X109862500Y-137400000D03*
D54*
X121150000Y-133325000D03*
X121150000Y-134275000D03*
X121150000Y-135225000D03*
X123850000Y-135225000D03*
X123850000Y-134275000D03*
X123850000Y-133325000D03*
D30*
X118005000Y-160510000D03*
X101745000Y-160510000D03*
D31*
X103015000Y-154800000D03*
X105305000Y-154800000D03*
X114445000Y-154800000D03*
X116735000Y-154800000D03*
X106323000Y-159620000D03*
X107339000Y-161400000D03*
X108355000Y-159620000D03*
X109371000Y-161400000D03*
X110387000Y-159620000D03*
X111403000Y-161400000D03*
X112419000Y-159620000D03*
D32*
X113435000Y-161400000D03*
D33*
X116225000Y-163940000D03*
X103525000Y-163940000D03*
D23*
X79325000Y-103550000D03*
X77775000Y-103550000D03*
D14*
X70125000Y-84550000D03*
X70125000Y-86200000D03*
D86*
X112335000Y-142425000D03*
X111065000Y-142425000D03*
X109795000Y-142425000D03*
X108525000Y-142425000D03*
X108525000Y-147375000D03*
X109795000Y-147375000D03*
X111065000Y-147375000D03*
X112335000Y-147375000D03*
D15*
X68750000Y-145075000D03*
X68750000Y-143425000D03*
X64060416Y-145050000D03*
X64060416Y-143400000D03*
D24*
X68475000Y-81800000D03*
X66825000Y-81800000D03*
D15*
X74961460Y-145050000D03*
X74961460Y-143400000D03*
D43*
X101412500Y-74300000D03*
X102987500Y-74300000D03*
D44*
X118275000Y-130625000D03*
X115325000Y-130625000D03*
D23*
X51200000Y-106275000D03*
X49650000Y-106275000D03*
D17*
X44610000Y-136770000D03*
X46160000Y-136770000D03*
D24*
X108225000Y-149480000D03*
X106575000Y-149480000D03*
D26*
X54425000Y-104025000D03*
X54425000Y-101075000D03*
D13*
X57812500Y-85675000D03*
X59462500Y-85675000D03*
D73*
X111437500Y-135800000D03*
X109862500Y-135800000D03*
D25*
X65425000Y-78475000D03*
X65425000Y-76925000D03*
D13*
X97725000Y-148850000D03*
X99375000Y-148850000D03*
D25*
X69500000Y-139580000D03*
X69500000Y-138030000D03*
D87*
X101225000Y-90875000D03*
X101225000Y-88175000D03*
D88*
X41530000Y-132670000D03*
X42800000Y-132670000D03*
X44070000Y-132670000D03*
X45340000Y-132670000D03*
X46610000Y-132670000D03*
X47880000Y-132670000D03*
X49150000Y-132670000D03*
X50420000Y-132670000D03*
X51690000Y-132670000D03*
X52960000Y-132670000D03*
X54230000Y-132670000D03*
X55500000Y-132670000D03*
X56770000Y-132670000D03*
X58040000Y-132670000D03*
D89*
X59040000Y-129885000D03*
X59040000Y-128615000D03*
X59040000Y-127345000D03*
X59040000Y-126075000D03*
X59040000Y-124805000D03*
X59040000Y-123535000D03*
X59040000Y-122265000D03*
X59040000Y-120995000D03*
X59040000Y-119725000D03*
X59040000Y-118455000D03*
D88*
X58040000Y-115670000D03*
X56770000Y-115670000D03*
X55500000Y-115670000D03*
X54230000Y-115670000D03*
X52960000Y-115670000D03*
X51690000Y-115670000D03*
X50420000Y-115670000D03*
X49150000Y-115670000D03*
X47880000Y-115670000D03*
X46610000Y-115670000D03*
X45340000Y-115670000D03*
X44070000Y-115670000D03*
X42800000Y-115670000D03*
X41530000Y-115670000D03*
D90*
X49030000Y-125170000D03*
D22*
X84725000Y-127200000D03*
X84725000Y-128750000D03*
D13*
X115335000Y-143160000D03*
X116985000Y-143160000D03*
D26*
X101025000Y-96175000D03*
X101025000Y-93225000D03*
D24*
X121675000Y-79400000D03*
X120025000Y-79400000D03*
D25*
X53150000Y-73275000D03*
X53150000Y-71725000D03*
D14*
X68225000Y-104475000D03*
X68225000Y-106125000D03*
D22*
X78076044Y-143450000D03*
X78076044Y-145000000D03*
D24*
X70675000Y-122550000D03*
X69025000Y-122550000D03*
M02*
