G04 #@! TF.GenerationSoftware,KiCad,Pcbnew,(6.0.0)*
G04 #@! TF.CreationDate,2022-01-13T12:23:07+04:00*
G04 #@! TF.ProjectId,Gateway_STM32_ver_2_0,47617465-7761-4795-9f53-544d33325f76,rev?*
G04 #@! TF.SameCoordinates,Original*
G04 #@! TF.FileFunction,Legend,Bot*
G04 #@! TF.FilePolarity,Positive*
%FSLAX46Y46*%
G04 Gerber Fmt 4.6, Leading zero omitted, Abs format (unit mm)*
G04 Created by KiCad (PCBNEW (6.0.0)) date 2022-01-13 12:23:07*
%MOMM*%
%LPD*%
G01*
G04 APERTURE LIST*
G04 Aperture macros list*
%AMRoundRect*
0 Rectangle with rounded corners*
0 $1 Rounding radius*
0 $2 $3 $4 $5 $6 $7 $8 $9 X,Y pos of 4 corners*
0 Add a 4 corners polygon primitive as box body*
4,1,4,$2,$3,$4,$5,$6,$7,$8,$9,$2,$3,0*
0 Add four circle primitives for the rounded corners*
1,1,$1+$1,$2,$3*
1,1,$1+$1,$4,$5*
1,1,$1+$1,$6,$7*
1,1,$1+$1,$8,$9*
0 Add four rect primitives between the rounded corners*
20,1,$1+$1,$2,$3,$4,$5,0*
20,1,$1+$1,$4,$5,$6,$7,0*
20,1,$1+$1,$6,$7,$8,$9,0*
20,1,$1+$1,$8,$9,$2,$3,0*%
G04 Aperture macros list end*
%ADD10C,0.150000*%
%ADD11C,0.200000*%
%ADD12C,0.240000*%
%ADD13C,0.120000*%
%ADD14C,0.950000*%
%ADD15R,0.620000X1.400000*%
%ADD16R,1.100000X2.400000*%
%ADD17R,1.350000X1.270000*%
%ADD18R,1.350000X1.420000*%
%ADD19C,0.900000*%
%ADD20C,8.600000*%
%ADD21C,2.300000*%
%ADD22C,1.500000*%
%ADD23R,1.500000X1.500000*%
%ADD24C,3.250000*%
%ADD25R,1.000000X1.000000*%
%ADD26O,1.000000X1.000000*%
%ADD27O,5.000000X2.500000*%
%ADD28O,4.500000X2.250000*%
%ADD29O,2.250000X4.500000*%
%ADD30RoundRect,0.250000X-0.600000X-0.600000X0.600000X-0.600000X0.600000X0.600000X-0.600000X0.600000X0*%
%ADD31C,1.700000*%
%ADD32C,2.050000*%
%ADD33C,2.250000*%
%ADD34C,2.000000*%
%ADD35C,2.445000*%
%ADD36C,1.530000*%
%ADD37C,1.398000*%
%ADD38R,1.398000X1.398000*%
%ADD39C,1.000000*%
%ADD40RoundRect,0.200000X-0.200000X-0.275000X0.200000X-0.275000X0.200000X0.275000X-0.200000X0.275000X0*%
%ADD41RoundRect,0.225000X0.225000X0.250000X-0.225000X0.250000X-0.225000X-0.250000X0.225000X-0.250000X0*%
%ADD42RoundRect,0.225000X-0.250000X0.225000X-0.250000X-0.225000X0.250000X-0.225000X0.250000X0.225000X0*%
%ADD43RoundRect,0.250000X0.250000X0.475000X-0.250000X0.475000X-0.250000X-0.475000X0.250000X-0.475000X0*%
%ADD44R,1.800000X0.500000*%
%ADD45R,1.000000X0.550000*%
%ADD46R,2.400000X1.000000*%
%ADD47R,3.400000X1.000000*%
%ADD48R,0.400000X1.500000*%
G04 APERTURE END LIST*
D10*
X90608333Y-86637380D02*
X90608333Y-87351666D01*
X90655952Y-87494523D01*
X90751190Y-87589761D01*
X90894047Y-87637380D01*
X90989285Y-87637380D01*
X89655952Y-86637380D02*
X90132142Y-86637380D01*
X90179761Y-87113571D01*
X90132142Y-87065952D01*
X90036904Y-87018333D01*
X89798809Y-87018333D01*
X89703571Y-87065952D01*
X89655952Y-87113571D01*
X89608333Y-87208809D01*
X89608333Y-87446904D01*
X89655952Y-87542142D01*
X89703571Y-87589761D01*
X89798809Y-87637380D01*
X90036904Y-87637380D01*
X90132142Y-87589761D01*
X90179761Y-87542142D01*
D11*
X120264285Y-109061904D02*
X120530952Y-108680952D01*
X120721428Y-109061904D02*
X120721428Y-108261904D01*
X120416666Y-108261904D01*
X120340476Y-108300000D01*
X120302380Y-108338095D01*
X120264285Y-108414285D01*
X120264285Y-108528571D01*
X120302380Y-108604761D01*
X120340476Y-108642857D01*
X120416666Y-108680952D01*
X120721428Y-108680952D01*
X119959523Y-108338095D02*
X119921428Y-108300000D01*
X119845238Y-108261904D01*
X119654761Y-108261904D01*
X119578571Y-108300000D01*
X119540476Y-108338095D01*
X119502380Y-108414285D01*
X119502380Y-108490476D01*
X119540476Y-108604761D01*
X119997619Y-109061904D01*
X119502380Y-109061904D01*
X118740476Y-109061904D02*
X119197619Y-109061904D01*
X118969047Y-109061904D02*
X118969047Y-108261904D01*
X119045238Y-108376190D01*
X119121428Y-108452380D01*
X119197619Y-108490476D01*
X120214285Y-102411904D02*
X120480952Y-102030952D01*
X120671428Y-102411904D02*
X120671428Y-101611904D01*
X120366666Y-101611904D01*
X120290476Y-101650000D01*
X120252380Y-101688095D01*
X120214285Y-101764285D01*
X120214285Y-101878571D01*
X120252380Y-101954761D01*
X120290476Y-101992857D01*
X120366666Y-102030952D01*
X120671428Y-102030952D01*
X119909523Y-101688095D02*
X119871428Y-101650000D01*
X119795238Y-101611904D01*
X119604761Y-101611904D01*
X119528571Y-101650000D01*
X119490476Y-101688095D01*
X119452380Y-101764285D01*
X119452380Y-101840476D01*
X119490476Y-101954761D01*
X119947619Y-102411904D01*
X119452380Y-102411904D01*
X119147619Y-101688095D02*
X119109523Y-101650000D01*
X119033333Y-101611904D01*
X118842857Y-101611904D01*
X118766666Y-101650000D01*
X118728571Y-101688095D01*
X118690476Y-101764285D01*
X118690476Y-101840476D01*
X118728571Y-101954761D01*
X119185714Y-102411904D01*
X118690476Y-102411904D01*
X116914285Y-102335714D02*
X116952380Y-102373809D01*
X117066666Y-102411904D01*
X117142857Y-102411904D01*
X117257142Y-102373809D01*
X117333333Y-102297619D01*
X117371428Y-102221428D01*
X117409523Y-102069047D01*
X117409523Y-101954761D01*
X117371428Y-101802380D01*
X117333333Y-101726190D01*
X117257142Y-101650000D01*
X117142857Y-101611904D01*
X117066666Y-101611904D01*
X116952380Y-101650000D01*
X116914285Y-101688095D01*
X116609523Y-101688095D02*
X116571428Y-101650000D01*
X116495238Y-101611904D01*
X116304761Y-101611904D01*
X116228571Y-101650000D01*
X116190476Y-101688095D01*
X116152380Y-101764285D01*
X116152380Y-101840476D01*
X116190476Y-101954761D01*
X116647619Y-102411904D01*
X116152380Y-102411904D01*
X115885714Y-101611904D02*
X115390476Y-101611904D01*
X115657142Y-101916666D01*
X115542857Y-101916666D01*
X115466666Y-101954761D01*
X115428571Y-101992857D01*
X115390476Y-102069047D01*
X115390476Y-102259523D01*
X115428571Y-102335714D01*
X115466666Y-102373809D01*
X115542857Y-102411904D01*
X115771428Y-102411904D01*
X115847619Y-102373809D01*
X115885714Y-102335714D01*
X120385714Y-110785714D02*
X120423809Y-110747619D01*
X120461904Y-110633333D01*
X120461904Y-110557142D01*
X120423809Y-110442857D01*
X120347619Y-110366666D01*
X120271428Y-110328571D01*
X120119047Y-110290476D01*
X120004761Y-110290476D01*
X119852380Y-110328571D01*
X119776190Y-110366666D01*
X119700000Y-110442857D01*
X119661904Y-110557142D01*
X119661904Y-110633333D01*
X119700000Y-110747619D01*
X119738095Y-110785714D01*
X119661904Y-111052380D02*
X119661904Y-111547619D01*
X119966666Y-111280952D01*
X119966666Y-111395238D01*
X120004761Y-111471428D01*
X120042857Y-111509523D01*
X120119047Y-111547619D01*
X120309523Y-111547619D01*
X120385714Y-111509523D01*
X120423809Y-111471428D01*
X120461904Y-111395238D01*
X120461904Y-111166666D01*
X120423809Y-111090476D01*
X120385714Y-111052380D01*
X119928571Y-112233333D02*
X120461904Y-112233333D01*
X119623809Y-112042857D02*
X120195238Y-111852380D01*
X120195238Y-112347619D01*
X101164285Y-88010714D02*
X101202380Y-88048809D01*
X101316666Y-88086904D01*
X101392857Y-88086904D01*
X101507142Y-88048809D01*
X101583333Y-87972619D01*
X101621428Y-87896428D01*
X101659523Y-87744047D01*
X101659523Y-87629761D01*
X101621428Y-87477380D01*
X101583333Y-87401190D01*
X101507142Y-87325000D01*
X101392857Y-87286904D01*
X101316666Y-87286904D01*
X101202380Y-87325000D01*
X101164285Y-87363095D01*
X100440476Y-87286904D02*
X100821428Y-87286904D01*
X100859523Y-87667857D01*
X100821428Y-87629761D01*
X100745238Y-87591666D01*
X100554761Y-87591666D01*
X100478571Y-87629761D01*
X100440476Y-87667857D01*
X100402380Y-87744047D01*
X100402380Y-87934523D01*
X100440476Y-88010714D01*
X100478571Y-88048809D01*
X100554761Y-88086904D01*
X100745238Y-88086904D01*
X100821428Y-88048809D01*
X100859523Y-88010714D01*
X100135714Y-87286904D02*
X99602380Y-87286904D01*
X99945238Y-88086904D01*
X120214285Y-106511904D02*
X120480952Y-106130952D01*
X120671428Y-106511904D02*
X120671428Y-105711904D01*
X120366666Y-105711904D01*
X120290476Y-105750000D01*
X120252380Y-105788095D01*
X120214285Y-105864285D01*
X120214285Y-105978571D01*
X120252380Y-106054761D01*
X120290476Y-106092857D01*
X120366666Y-106130952D01*
X120671428Y-106130952D01*
X119909523Y-105788095D02*
X119871428Y-105750000D01*
X119795238Y-105711904D01*
X119604761Y-105711904D01*
X119528571Y-105750000D01*
X119490476Y-105788095D01*
X119452380Y-105864285D01*
X119452380Y-105940476D01*
X119490476Y-106054761D01*
X119947619Y-106511904D01*
X119452380Y-106511904D01*
X119185714Y-105711904D02*
X118690476Y-105711904D01*
X118957142Y-106016666D01*
X118842857Y-106016666D01*
X118766666Y-106054761D01*
X118728571Y-106092857D01*
X118690476Y-106169047D01*
X118690476Y-106359523D01*
X118728571Y-106435714D01*
X118766666Y-106473809D01*
X118842857Y-106511904D01*
X119071428Y-106511904D01*
X119147619Y-106473809D01*
X119185714Y-106435714D01*
X118311904Y-114283333D02*
X118883333Y-114283333D01*
X118997619Y-114245238D01*
X119073809Y-114169047D01*
X119111904Y-114054761D01*
X119111904Y-113978571D01*
X118388095Y-114626190D02*
X118350000Y-114664285D01*
X118311904Y-114740476D01*
X118311904Y-114930952D01*
X118350000Y-115007142D01*
X118388095Y-115045238D01*
X118464285Y-115083333D01*
X118540476Y-115083333D01*
X118654761Y-115045238D01*
X119111904Y-114588095D01*
X119111904Y-115083333D01*
X116914285Y-106435714D02*
X116952380Y-106473809D01*
X117066666Y-106511904D01*
X117142857Y-106511904D01*
X117257142Y-106473809D01*
X117333333Y-106397619D01*
X117371428Y-106321428D01*
X117409523Y-106169047D01*
X117409523Y-106054761D01*
X117371428Y-105902380D01*
X117333333Y-105826190D01*
X117257142Y-105750000D01*
X117142857Y-105711904D01*
X117066666Y-105711904D01*
X116952380Y-105750000D01*
X116914285Y-105788095D01*
X116609523Y-105788095D02*
X116571428Y-105750000D01*
X116495238Y-105711904D01*
X116304761Y-105711904D01*
X116228571Y-105750000D01*
X116190476Y-105788095D01*
X116152380Y-105864285D01*
X116152380Y-105940476D01*
X116190476Y-106054761D01*
X116647619Y-106511904D01*
X116152380Y-106511904D01*
X115695238Y-106054761D02*
X115771428Y-106016666D01*
X115809523Y-105978571D01*
X115847619Y-105902380D01*
X115847619Y-105864285D01*
X115809523Y-105788095D01*
X115771428Y-105750000D01*
X115695238Y-105711904D01*
X115542857Y-105711904D01*
X115466666Y-105750000D01*
X115428571Y-105788095D01*
X115390476Y-105864285D01*
X115390476Y-105902380D01*
X115428571Y-105978571D01*
X115466666Y-106016666D01*
X115542857Y-106054761D01*
X115695238Y-106054761D01*
X115771428Y-106092857D01*
X115809523Y-106130952D01*
X115847619Y-106207142D01*
X115847619Y-106359523D01*
X115809523Y-106435714D01*
X115771428Y-106473809D01*
X115695238Y-106511904D01*
X115542857Y-106511904D01*
X115466666Y-106473809D01*
X115428571Y-106435714D01*
X115390476Y-106359523D01*
X115390476Y-106207142D01*
X115428571Y-106130952D01*
X115466666Y-106092857D01*
X115542857Y-106054761D01*
X116914285Y-109085714D02*
X116952380Y-109123809D01*
X117066666Y-109161904D01*
X117142857Y-109161904D01*
X117257142Y-109123809D01*
X117333333Y-109047619D01*
X117371428Y-108971428D01*
X117409523Y-108819047D01*
X117409523Y-108704761D01*
X117371428Y-108552380D01*
X117333333Y-108476190D01*
X117257142Y-108400000D01*
X117142857Y-108361904D01*
X117066666Y-108361904D01*
X116952380Y-108400000D01*
X116914285Y-108438095D01*
X116152380Y-109161904D02*
X116609523Y-109161904D01*
X116380952Y-109161904D02*
X116380952Y-108361904D01*
X116457142Y-108476190D01*
X116533333Y-108552380D01*
X116609523Y-108590476D01*
X115695238Y-108704761D02*
X115771428Y-108666666D01*
X115809523Y-108628571D01*
X115847619Y-108552380D01*
X115847619Y-108514285D01*
X115809523Y-108438095D01*
X115771428Y-108400000D01*
X115695238Y-108361904D01*
X115542857Y-108361904D01*
X115466666Y-108400000D01*
X115428571Y-108438095D01*
X115390476Y-108514285D01*
X115390476Y-108552380D01*
X115428571Y-108628571D01*
X115466666Y-108666666D01*
X115542857Y-108704761D01*
X115695238Y-108704761D01*
X115771428Y-108742857D01*
X115809523Y-108780952D01*
X115847619Y-108857142D01*
X115847619Y-109009523D01*
X115809523Y-109085714D01*
X115771428Y-109123809D01*
X115695238Y-109161904D01*
X115542857Y-109161904D01*
X115466666Y-109123809D01*
X115428571Y-109085714D01*
X115390476Y-109009523D01*
X115390476Y-108857142D01*
X115428571Y-108780952D01*
X115466666Y-108742857D01*
X115542857Y-108704761D01*
X114711904Y-105159523D02*
X113911904Y-105159523D01*
X113911904Y-105350000D01*
X113950000Y-105464285D01*
X114026190Y-105540476D01*
X114102380Y-105578571D01*
X114254761Y-105616666D01*
X114369047Y-105616666D01*
X114521428Y-105578571D01*
X114597619Y-105540476D01*
X114673809Y-105464285D01*
X114711904Y-105350000D01*
X114711904Y-105159523D01*
X113911904Y-105883333D02*
X113911904Y-106416666D01*
X114711904Y-106073809D01*
X88350000Y-70070000D02*
X101600000Y-70070000D01*
X101600000Y-70070000D02*
X101600000Y-69820000D01*
X103400000Y-76050000D02*
X103400000Y-81850000D01*
X88350000Y-70070000D02*
X88350000Y-72850000D01*
X103400000Y-70070000D02*
X103400000Y-72850000D01*
X98600000Y-84820000D02*
X103100000Y-84820000D01*
X88350000Y-76050000D02*
X88350000Y-81850000D01*
X101600000Y-69820000D02*
X102700000Y-69820000D01*
X102700000Y-70070000D02*
X103400000Y-70070000D01*
X102700000Y-69820000D02*
X102700000Y-70070000D01*
D12*
X98720000Y-86550000D02*
G75*
G03*
X98720000Y-86550000I-120000J0D01*
G01*
D13*
X119462742Y-106927500D02*
X119937258Y-106927500D01*
X119462742Y-107972500D02*
X119937258Y-107972500D01*
X119462742Y-103822500D02*
X119937258Y-103822500D01*
X119462742Y-102777500D02*
X119937258Y-102777500D01*
X116540580Y-103810000D02*
X116259420Y-103810000D01*
X116540580Y-102790000D02*
X116259420Y-102790000D01*
X120990000Y-110559420D02*
X120990000Y-110840580D01*
X122010000Y-110559420D02*
X122010000Y-110840580D01*
X100911252Y-85390000D02*
X100388748Y-85390000D01*
X100911252Y-86860000D02*
X100388748Y-86860000D01*
X119462742Y-105372500D02*
X119937258Y-105372500D01*
X119462742Y-104327500D02*
X119937258Y-104327500D01*
X122945000Y-115225000D02*
X122945000Y-99125000D01*
X139845000Y-115225000D02*
X139845000Y-99125000D01*
X122945000Y-99125000D02*
X139845000Y-99125000D01*
X122945000Y-115225000D02*
X139845000Y-115225000D01*
X116540580Y-105360000D02*
X116259420Y-105360000D01*
X116540580Y-104340000D02*
X116259420Y-104340000D01*
X116540580Y-106940000D02*
X116259420Y-106940000D01*
X116540580Y-107960000D02*
X116259420Y-107960000D01*
X111190000Y-106450000D02*
X111190000Y-105050000D01*
X113510000Y-105050000D02*
X113510000Y-106950000D01*
%LPC*%
D14*
X90800000Y-74050000D03*
X98800000Y-74050000D03*
D15*
X97980000Y-85470000D03*
X96880000Y-85470000D03*
X95780000Y-85470000D03*
X94680000Y-85470000D03*
X93580000Y-85470000D03*
X92480000Y-85470000D03*
X91380000Y-85470000D03*
X90280000Y-85470000D03*
D16*
X87800000Y-74470000D03*
X103950000Y-74470000D03*
D17*
X102950000Y-84070000D03*
D18*
X87800000Y-84070000D03*
D15*
X89180000Y-85470000D03*
D19*
X45000000Y-161775000D03*
X47280419Y-162719581D03*
X41775000Y-165000000D03*
X42719581Y-167280419D03*
X48225000Y-165000000D03*
X45000000Y-168225000D03*
D20*
X45000000Y-165000000D03*
D19*
X47280419Y-167280419D03*
X42719581Y-162719581D03*
X138225000Y-165000000D03*
D20*
X135000000Y-165000000D03*
D19*
X132719581Y-162719581D03*
X135000000Y-168225000D03*
X132719581Y-167280419D03*
X131775000Y-165000000D03*
X135000000Y-161775000D03*
X137280419Y-162719581D03*
X137280419Y-167280419D03*
D21*
X49515000Y-141020000D03*
X49515000Y-157280000D03*
D22*
X55225000Y-142290000D03*
X55225000Y-144580000D03*
X55225000Y-153720000D03*
X55225000Y-156010000D03*
X50405000Y-145598000D03*
X48625000Y-146614000D03*
X50405000Y-147630000D03*
X48625000Y-148646000D03*
X50405000Y-149662000D03*
X48625000Y-150678000D03*
X50405000Y-151694000D03*
D23*
X48625000Y-152710000D03*
D24*
X46085000Y-155500000D03*
X46085000Y-142800000D03*
D25*
X47750000Y-109625000D03*
D26*
X49020000Y-109625000D03*
X50290000Y-109625000D03*
X51560000Y-109625000D03*
D27*
X125225000Y-155837500D03*
D28*
X125225000Y-161837500D03*
D29*
X129925000Y-158837500D03*
D30*
X133560000Y-123840000D03*
D31*
X136100000Y-123840000D03*
X133560000Y-126380000D03*
X136100000Y-126380000D03*
X133560000Y-128920000D03*
X136100000Y-128920000D03*
X133560000Y-131460000D03*
X136100000Y-131460000D03*
X133560000Y-134000000D03*
X136100000Y-134000000D03*
X133560000Y-136540000D03*
X136100000Y-136540000D03*
X133560000Y-139080000D03*
X136100000Y-139080000D03*
X133560000Y-141620000D03*
X136100000Y-141620000D03*
X133560000Y-144160000D03*
X136100000Y-144160000D03*
X133560000Y-146700000D03*
X136100000Y-146700000D03*
D32*
X125875000Y-74300000D03*
D33*
X128415000Y-71760000D03*
X123335000Y-76840000D03*
X128415000Y-76840000D03*
X123335000Y-71760000D03*
D25*
X111675000Y-123300000D03*
D26*
X111675000Y-122030000D03*
X111675000Y-120760000D03*
X111675000Y-119490000D03*
D34*
X83500000Y-100050000D03*
X83500000Y-95050000D03*
D21*
X80961250Y-160510000D03*
X97221250Y-160510000D03*
D22*
X82231250Y-154800000D03*
X84521250Y-154800000D03*
X93661250Y-154800000D03*
X95951250Y-154800000D03*
X85539250Y-159620000D03*
X86555250Y-161400000D03*
X87571250Y-159620000D03*
X88587250Y-161400000D03*
X89603250Y-159620000D03*
X90619250Y-161400000D03*
X91635250Y-159620000D03*
D23*
X92651250Y-161400000D03*
D24*
X95441250Y-163940000D03*
X82741250Y-163940000D03*
D32*
X115300000Y-74300000D03*
D33*
X117840000Y-71760000D03*
X112760000Y-71760000D03*
X117840000Y-76840000D03*
X112760000Y-76840000D03*
D19*
X42719581Y-77280419D03*
X47280419Y-72719581D03*
X42719581Y-72719581D03*
X48225000Y-75000000D03*
X45000000Y-78225000D03*
X45000000Y-71775000D03*
X41775000Y-75000000D03*
D20*
X45000000Y-75000000D03*
D19*
X47280419Y-77280419D03*
D35*
X76582500Y-155680000D03*
X61092500Y-155680000D03*
D36*
X75462500Y-163630000D03*
X72922500Y-163630000D03*
X64752500Y-163630000D03*
X62212500Y-163630000D03*
D37*
X73277500Y-149840000D03*
X72007500Y-152380000D03*
X70737500Y-149840000D03*
X69467500Y-152380000D03*
X68197500Y-149840000D03*
X66927500Y-152380000D03*
X65657500Y-149840000D03*
D38*
X64387500Y-152380000D03*
D24*
X74552500Y-158730000D03*
X63122500Y-158730000D03*
D19*
X132719581Y-77280419D03*
X137280419Y-72719581D03*
X138225000Y-75000000D03*
D20*
X135000000Y-75000000D03*
D19*
X131775000Y-75000000D03*
X135000000Y-78225000D03*
X135000000Y-71775000D03*
X137280419Y-77280419D03*
X132719581Y-72719581D03*
D39*
X46475000Y-88025000D03*
X46475000Y-83625000D03*
D21*
X118005000Y-160510000D03*
X101745000Y-160510000D03*
D22*
X103015000Y-154800000D03*
X105305000Y-154800000D03*
X114445000Y-154800000D03*
X116735000Y-154800000D03*
X106323000Y-159620000D03*
X107339000Y-161400000D03*
X108355000Y-159620000D03*
X109371000Y-161400000D03*
X110387000Y-159620000D03*
X111403000Y-161400000D03*
X112419000Y-159620000D03*
D23*
X113435000Y-161400000D03*
D24*
X116225000Y-163940000D03*
X103525000Y-163940000D03*
D40*
X118875000Y-107450000D03*
X120525000Y-107450000D03*
X118875000Y-103300000D03*
X120525000Y-103300000D03*
D41*
X117175000Y-103300000D03*
X115625000Y-103300000D03*
D42*
X121500000Y-109925000D03*
X121500000Y-111475000D03*
D43*
X101600000Y-86125000D03*
X99700000Y-86125000D03*
D40*
X118875000Y-104850000D03*
X120525000Y-104850000D03*
D44*
X123795000Y-112875000D03*
D45*
X123095000Y-105675000D03*
X123095000Y-104270000D03*
X123095000Y-108460000D03*
X123095000Y-110460000D03*
D46*
X123995000Y-99325000D03*
D47*
X137795000Y-114975000D03*
X132495000Y-114975000D03*
X137795000Y-99325000D03*
D46*
X123995000Y-114975000D03*
D47*
X132495000Y-99325000D03*
D45*
X123095000Y-103270000D03*
X123095000Y-107460000D03*
X123095000Y-109460000D03*
D41*
X117175000Y-104850000D03*
X115625000Y-104850000D03*
X117175000Y-107450000D03*
X115625000Y-107450000D03*
D48*
X113000000Y-107080000D03*
X112350000Y-107080000D03*
X111700000Y-107080000D03*
X111700000Y-104420000D03*
X112350000Y-104420000D03*
X113000000Y-104420000D03*
M02*
