M48
; DRILL file {KiCad (6.0.0)} date Thu Jan 13 12:23:05 2022
; FORMAT={-:-/ absolute / metric / decimal}
; #@! TF.CreationDate,2022-01-13T12:23:05+04:00
; #@! TF.GenerationSoftware,Kicad,Pcbnew,(6.0.0)
; #@! TF.FileFunction,Plated,1,4,PTH
FMAT,2
METRIC
; #@! TA.AperFunction,Plated,PTH,ViaDrill
T1C0.300
; #@! TA.AperFunction,Plated,PTH,ViaDrill
T2C0.400
; #@! TA.AperFunction,Plated,PTH,ComponentDrill
T3C0.600
; #@! TA.AperFunction,Plated,PTH,ComponentDrill
T4C0.650
; #@! TA.AperFunction,Plated,PTH,ComponentDrill
T5C0.890
; #@! TA.AperFunction,Plated,PTH,ComponentDrill
T6C1.000
; #@! TA.AperFunction,Plated,PTH,ComponentDrill
T7C1.020
; #@! TA.AperFunction,Plated,PTH,ComponentDrill
T8C1.500
; #@! TA.AperFunction,Plated,PTH,ComponentDrill
T9C1.570
; #@! TA.AperFunction,Plated,PTH,ComponentDrill
T10C1.630
; #@! TA.AperFunction,Plated,PTH,ComponentDrill
T11C1.700
; #@! TA.AperFunction,Plated,PTH,ComponentDrill
T12C4.300
%
G90
G05
T1
X40.4Y-139.0
X40.4Y-139.7
X40.6Y-95.4
X40.6Y-96.0
X40.6Y-96.6
X40.6Y-97.2
X40.6Y-97.8
X40.6Y-98.4
X40.6Y-99.0
X40.6Y-99.6
X40.6Y-100.2
X40.6Y-100.8
X40.6Y-101.4
X40.6Y-102.0
X40.6Y-102.6
X40.6Y-103.2
X40.6Y-103.8
X40.6Y-104.4
X40.6Y-105.0
X40.6Y-105.6
X40.6Y-112.9
X40.6Y-113.5
X41.0Y-139.0
X41.0Y-139.7
X41.2Y-95.4
X41.2Y-96.0
X41.2Y-96.6
X41.2Y-97.2
X41.2Y-97.8
X41.2Y-98.4
X41.2Y-99.0
X41.2Y-99.6
X41.2Y-100.2
X41.2Y-100.8
X41.2Y-101.4
X41.2Y-102.0
X41.2Y-102.6
X41.2Y-103.2
X41.2Y-103.8
X41.2Y-104.4
X41.2Y-105.0
X41.2Y-105.6
X41.2Y-112.9
X41.2Y-113.5
X41.6Y-139.0
X41.6Y-139.7
X41.8Y-112.9
X41.8Y-113.5
X42.2Y-139.0
X42.2Y-139.7
X42.4Y-112.9
X42.4Y-113.5
X42.95Y-139.0
X43.0Y-112.9
X43.0Y-113.5
X45.55Y-101.825
X45.6Y-80.5
X45.6Y-81.1
X45.65Y-99.275
X46.0Y-91.6
X46.0Y-92.2
X46.2Y-80.5
X46.2Y-81.1
X46.6Y-91.6
X46.6Y-92.2
X46.8Y-80.5
X46.8Y-81.1
X47.2Y-91.6
X47.2Y-92.2
X47.4Y-80.5
X47.4Y-81.1
X47.8Y-92.2
X48.4Y-92.2
X49.0Y-92.2
X49.6Y-92.2
X49.65Y-136.75
X49.8Y-70.8
X50.2Y-92.2
X50.2Y-95.4
X50.2Y-161.4
X50.2Y-162.0
X50.2Y-162.6
X50.2Y-163.2
X50.2Y-163.8
X50.2Y-164.4
X50.6Y-70.8
X50.8Y-94.8
X50.8Y-95.4
X50.8Y-162.0
X50.8Y-162.6
X50.8Y-163.2
X50.8Y-163.8
X50.8Y-164.4
X51.1Y-79.15
X51.2Y-70.8
X51.4Y-89.6
X51.4Y-94.2
X51.4Y-94.8
X51.4Y-95.4
X51.4Y-162.6
X51.4Y-163.2
X51.4Y-163.8
X51.4Y-164.4
X51.8Y-70.8
X52.0Y-93.6
X52.0Y-94.2
X52.0Y-94.8
X52.0Y-95.4
X52.0Y-163.2
X52.0Y-163.8
X52.0Y-164.4
X52.6Y-93.0
X52.6Y-93.6
X52.6Y-94.2
X52.6Y-94.8
X52.6Y-95.4
X52.6Y-99.2
X52.6Y-99.8
X52.6Y-163.8
X52.6Y-164.4
X52.8Y-135.4
X52.8Y-136.0
X52.8Y-136.6
X52.8Y-137.2
X52.8Y-137.8
X52.8Y-138.4
X53.2Y-99.2
X53.2Y-99.8
X53.2Y-164.4
X53.4Y-135.4
X53.4Y-136.0
X53.4Y-136.6
X53.4Y-137.2
X53.4Y-137.8
X53.4Y-138.4
X53.4Y-159.4
X53.4Y-160.0
X53.4Y-160.6
X53.4Y-161.2
X53.4Y-161.8
X53.45Y-106.85
X53.8Y-99.2
X53.8Y-99.8
X53.992Y-135.397
X53.992Y-135.997
X53.992Y-136.597
X53.992Y-137.197
X53.992Y-137.797
X53.992Y-138.397
X54.0Y-159.4
X54.0Y-160.0
X54.0Y-160.6
X54.0Y-161.2
X54.0Y-161.8
X54.103Y-83.653
X54.2Y-76.2
X54.25Y-113.2
X54.4Y-99.2
X54.4Y-99.8
X54.584Y-135.407
X54.584Y-136.007
X54.584Y-136.607
X54.584Y-137.207
X54.584Y-137.807
X54.584Y-138.407
X54.597Y-84.147
X54.6Y-159.4
X54.6Y-160.0
X54.6Y-160.6
X54.6Y-161.2
X54.6Y-161.8
X55.0Y-99.2
X55.0Y-99.8
X55.2Y-135.4
X55.2Y-136.0
X55.2Y-136.6
X55.2Y-137.2
X55.2Y-137.8
X55.2Y-138.4
X55.2Y-159.4
X55.2Y-160.0
X55.2Y-160.6
X55.2Y-161.2
X55.2Y-161.8
X55.5Y-113.2
X55.6Y-99.2
X55.6Y-99.8
X56.2Y-99.2
X56.2Y-99.8
X56.8Y-111.4
X56.8Y-112.0
X56.8Y-112.6
X56.8Y-113.2
X56.8Y-113.8
X57.175Y-109.9
X57.4Y-111.4
X57.4Y-112.0
X57.4Y-112.6
X57.4Y-113.2
X57.4Y-113.8
X57.45Y-158.95
X57.537Y-110.647
X57.6Y-74.4
X57.6Y-75.0
X58.0Y-111.4
X58.0Y-112.0
X58.0Y-112.6
X58.0Y-113.2
X58.0Y-113.8
X58.2Y-74.4
X58.2Y-75.0
X58.6Y-112.0
X58.6Y-112.6
X58.6Y-113.2
X58.6Y-113.8
X58.7Y-158.95
X59.003Y-72.147
X59.2Y-112.6
X59.2Y-113.2
X59.2Y-113.8
X59.35Y-110.025
X59.497Y-71.653
X59.8Y-113.2
X59.8Y-113.8
X60.15Y-142.35
X60.179Y-110.621
X60.4Y-113.8
X60.45Y-114.55
X60.6Y-83.0
X60.6Y-83.6
X60.6Y-84.2
X60.6Y-84.8
X60.6Y-98.65
X60.8Y-135.5
X60.9Y-127.3
X61.0Y-77.0
X61.2Y-83.0
X61.2Y-83.6
X61.2Y-84.2
X61.2Y-84.8
X61.2Y-167.2
X61.2Y-168.8
X61.276Y-78.483
X61.3Y-136.6
X61.3Y-137.2
X61.6Y-119.3
X61.65Y-105.625
X61.8Y-167.2
X61.8Y-168.8
X61.85Y-86.6
X61.9Y-136.6
X61.9Y-137.2
X62.1Y-140.0
X62.4Y-119.0
X62.4Y-167.2
X62.4Y-168.8
X62.5Y-136.6
X62.5Y-137.2
X62.55Y-102.7
X62.6Y-139.6
X62.625Y-99.925
X63.0Y-119.0
X63.0Y-167.2
X63.0Y-168.8
X63.05Y-100.35
X63.1Y-136.6
X63.1Y-137.2
X63.1Y-139.2
X63.2Y-82.0
X63.25Y-142.1
X63.35Y-149.2
X63.4Y-87.4
X63.4Y-88.0
X63.5Y-100.8
X63.56Y-127.274
X63.6Y-119.0
X63.6Y-167.2
X63.6Y-168.8
X63.7Y-136.6
X63.7Y-137.2
X63.8Y-82.0
X64.0Y-87.4
X64.0Y-88.0
X64.15Y-127.65
X64.175Y-148.35
X64.2Y-119.0
X64.2Y-119.6
X64.2Y-120.2
X64.2Y-120.8
X64.2Y-121.4
X64.2Y-122.0
X64.2Y-122.6
X64.2Y-123.2
X64.2Y-123.8
X64.2Y-167.2
X64.2Y-168.8
X64.3Y-136.6
X64.3Y-137.2
X64.4Y-82.0
X64.45Y-125.15
X64.6Y-71.8
X64.6Y-72.4
X64.6Y-73.0
X64.6Y-73.6
X64.6Y-87.4
X64.6Y-88.0
X64.8Y-79.8
X64.8Y-167.2
X64.8Y-168.8
X65.0Y-140.2
X65.15Y-81.85
X65.2Y-71.8
X65.2Y-72.4
X65.2Y-73.0
X65.2Y-73.6
X65.2Y-87.4
X65.2Y-88.0
X65.35Y-115.65
X65.4Y-167.2
X65.4Y-168.8
X65.6Y-116.8
X65.6Y-117.4
X65.6Y-118.0
X65.6Y-121.8
X65.6Y-139.6
X65.6Y-140.2
X65.735Y-106.885
X65.8Y-80.0
X65.8Y-87.4
X65.8Y-88.0
X65.8Y-125.15
X65.9Y-85.1
X65.9Y-85.7
X65.9Y-146.1
X65.9Y-146.7
X66.0Y-167.2
X66.0Y-168.8
X66.2Y-116.2
X66.2Y-116.8
X66.2Y-117.4
X66.2Y-118.0
X66.2Y-121.8
X66.2Y-139.0
X66.2Y-139.6
X66.2Y-140.2
X66.225Y-72.875
X66.3Y-71.2
X66.475Y-86.15
X66.5Y-85.1
X66.6Y-167.2
X66.6Y-168.8
X66.8Y-84.0
X66.8Y-116.2
X66.8Y-116.8
X66.8Y-121.8
X66.8Y-138.4
X66.8Y-139.0
X66.8Y-139.6
X66.8Y-140.2
X67.0Y-76.9
X67.0Y-87.75
X67.0Y-95.8
X67.2Y-167.2
X67.2Y-168.8
X67.4Y-84.0
X67.4Y-116.2
X67.4Y-116.8
X67.4Y-121.8
X67.6Y-94.0
X67.6Y-94.6
X67.6Y-95.2
X67.6Y-95.8
X67.75Y-130.0
X67.8Y-111.8
X67.8Y-112.4
X67.8Y-113.0
X67.8Y-167.2
X67.8Y-168.8
X67.85Y-107.15
X67.85Y-109.0
X68.0Y-110.9
X68.0Y-132.249
X68.0Y-140.7
X68.2Y-94.0
X68.2Y-94.6
X68.2Y-95.2
X68.2Y-95.8
X68.4Y-111.8
X68.4Y-112.4
X68.4Y-113.0
X68.4Y-113.6
X68.4Y-167.2
X68.4Y-168.8
X68.65Y-130.95
X68.8Y-94.0
X68.8Y-94.6
X68.8Y-95.2
X68.8Y-95.8
X68.8Y-136.75
X68.9Y-129.15
X68.975Y-109.8
X69.0Y-167.2
X69.0Y-168.8
X69.05Y-130.15
X69.35Y-128.5
X69.5Y-142.3
X69.6Y-167.2
X69.6Y-168.8
X69.736Y-135.936
X69.8Y-107.0
X70.2Y-167.2
X70.2Y-168.8
X70.25Y-81.3
X70.275Y-72.875
X70.286Y-136.55
X70.35Y-127.4
X70.4Y-106.4
X70.4Y-107.0
X70.45Y-132.7
X70.8Y-167.2
X70.8Y-168.8
X71.0Y-106.4
X71.0Y-107.0
X71.0Y-140.7
X71.286Y-123.836
X71.4Y-167.2
X71.4Y-168.8
X71.6Y-106.4
X71.6Y-107.0
X71.814Y-136.664
X71.85Y-132.7
X71.9Y-148.45
X72.0Y-167.2
X72.0Y-168.8
X72.2Y-107.0
X72.4Y-121.85
X72.6Y-140.7
X72.6Y-167.2
X72.6Y-168.8
X73.2Y-136.5
X73.2Y-167.2
X73.2Y-168.8
X73.55Y-134.55
X73.8Y-167.2
X73.8Y-168.8
X74.2Y-140.7
X74.95Y-146.2
X75.2Y-80.7
X75.2Y-81.3
X75.7Y-140.7
X75.75Y-142.05
X75.8Y-80.7
X75.8Y-81.3
X76.2Y-120.4
X76.2Y-121.0
X76.2Y-127.846
X76.4Y-80.7
X76.4Y-81.3
X76.604Y-130.164
X76.75Y-146.3
X76.8Y-120.4
X76.8Y-121.0
X77.0Y-80.7
X77.0Y-81.3
X77.0Y-98.4
X77.0Y-99.0
X77.0Y-99.6
X77.0Y-100.2
X77.0Y-100.8
X77.0Y-101.4
X77.148Y-93.998
X77.175Y-93.299
X77.2Y-76.9
X77.3Y-140.7
X77.4Y-120.4
X77.4Y-121.0
X77.55Y-107.6
X77.55Y-109.0
X77.6Y-80.7
X77.6Y-81.3
X77.6Y-98.4
X77.6Y-99.0
X77.6Y-99.6
X77.6Y-100.2
X77.6Y-100.8
X77.6Y-101.4
X77.7Y-96.8
X77.75Y-92.75
X77.9Y-118.275
X78.0Y-120.4
X78.0Y-121.0
X78.0Y-152.2
X78.2Y-80.7
X78.2Y-81.3
X78.4Y-151.8
X78.6Y-152.6
X78.625Y-118.025
X78.8Y-80.7
X78.8Y-81.3
X78.8Y-151.4
X78.975Y-113.1
X79.0Y-152.2
X79.05Y-114.675
X79.2Y-151.0
X79.4Y-80.7
X79.4Y-81.3
X79.4Y-92.6
X79.4Y-93.2
X79.4Y-140.75
X79.4Y-151.8
X79.6Y-126.7
X79.6Y-150.6
X79.8Y-151.4
X80.0Y-80.7
X80.0Y-81.3
X80.0Y-92.6
X80.0Y-93.2
X80.0Y-132.6
X80.0Y-137.8
X80.2Y-151.0
X80.6Y-92.6
X80.6Y-93.2
X80.6Y-132.6
X80.6Y-137.8
X80.7Y-149.8
X81.2Y-92.6
X81.2Y-93.2
X81.2Y-132.6
X81.2Y-137.8
X81.8Y-92.6
X81.8Y-93.2
X81.8Y-132.6
X81.8Y-137.8
X81.8Y-152.4
X81.8Y-153.0
X82.4Y-132.6
X82.4Y-137.8
X82.4Y-152.4
X82.4Y-153.0
X82.8Y-71.35
X83.0Y-132.6
X83.0Y-137.8
X83.0Y-152.4
X83.0Y-153.0
X83.05Y-74.4
X83.45Y-121.45
X83.6Y-110.2
X83.6Y-110.8
X83.6Y-152.4
X83.6Y-153.0
X83.8Y-125.5
X83.8Y-131.4
X83.8Y-132.0
X83.8Y-132.6
X83.85Y-127.2
X84.2Y-110.2
X84.2Y-110.8
X84.2Y-152.4
X84.2Y-153.0
X84.4Y-131.4
X84.4Y-132.0
X84.4Y-132.6
X84.8Y-110.2
X84.8Y-110.8
X84.8Y-152.4
X84.8Y-153.0
X84.95Y-130.85
X85.0Y-132.0
X85.0Y-132.6
X85.251Y-93.2
X85.4Y-110.2
X85.4Y-110.8
X85.4Y-130.2
X85.4Y-152.4
X85.4Y-153.0
X85.6Y-132.6
X85.6Y-157.6
X86.0Y-110.2
X86.0Y-110.8
X86.0Y-131.0
X86.0Y-147.25
X86.05Y-144.7
X86.2Y-71.5
X86.2Y-72.1
X86.2Y-72.7
X86.2Y-73.3
X86.2Y-73.9
X86.2Y-74.5
X86.2Y-132.6
X86.2Y-157.6
X86.25Y-146.0
X86.336Y-102.464
X86.35Y-101.7
X86.35Y-143.45
X86.6Y-129.8
X86.6Y-130.4
X86.6Y-131.0
X86.8Y-71.5
X86.8Y-72.1
X86.8Y-72.7
X86.8Y-156.0
X86.8Y-157.6
X86.9Y-88.425
X86.9Y-94.0
X87.0Y-138.6
X87.2Y-129.8
X87.2Y-130.4
X87.2Y-131.0
X87.4Y-71.5
X87.4Y-72.1
X87.4Y-72.7
X87.4Y-156.0
X87.4Y-157.6
X87.6Y-105.85
X87.6Y-111.8
X87.6Y-138.6
X87.8Y-106.8
X87.8Y-107.4
X87.8Y-108.0
X87.8Y-108.6
X87.8Y-130.4
X87.8Y-131.0
X87.95Y-104.95
X88.0Y-156.0
X88.0Y-157.6
X88.075Y-99.275
X88.075Y-99.85
X88.125Y-104.225
X88.2Y-138.6
X88.4Y-106.8
X88.4Y-107.4
X88.4Y-108.0
X88.4Y-108.6
X88.5Y-100.275
X88.6Y-156.0
X88.6Y-157.6
X88.8Y-138.6
X88.899Y-104.152
X88.999Y-106.799
X89.0Y-107.4
X89.0Y-108.0
X89.0Y-108.6
X89.075Y-103.475
X89.2Y-156.0
X89.2Y-157.6
X89.4Y-138.6
X89.4Y-139.2
X89.4Y-139.8
X89.6Y-108.0
X89.6Y-108.6
X89.625Y-102.925
X89.75Y-127.0
X89.8Y-156.0
X89.8Y-157.6
X89.95Y-134.55
X90.0Y-110.6
X90.0Y-138.6
X90.0Y-139.2
X90.0Y-139.8
X90.15Y-126.2
X90.4Y-156.0
X90.4Y-157.6
X90.561Y-125.634
X90.6Y-138.6
X90.6Y-139.2
X90.6Y-139.8
X90.85Y-101.0
X91.2Y-138.6
X91.2Y-139.2
X91.2Y-139.8
X91.25Y-135.1
X91.5Y-118.35
X91.75Y-120.5
X91.8Y-138.6
X91.8Y-139.2
X91.8Y-139.8
X91.875Y-118.95
X92.075Y-117.025
X92.1Y-92.8
X92.1Y-93.4
X92.1Y-94.0
X92.1Y-94.6
X92.1Y-95.2
X92.1Y-95.9
X92.1Y-96.5
X92.1Y-97.1
X92.1Y-97.7
X92.1Y-98.3
X92.1Y-135.05
X92.275Y-119.825
X92.3Y-104.7
X92.3Y-105.3
X92.4Y-124.5
X92.4Y-138.6
X92.4Y-139.2
X92.4Y-139.8
X92.771Y-117.106
X92.9Y-92.8
X92.9Y-93.4
X92.9Y-94.0
X92.9Y-94.6
X92.9Y-95.2
X92.9Y-95.9
X92.9Y-96.5
X92.9Y-97.1
X92.9Y-97.7
X92.9Y-98.3
X92.9Y-104.7
X92.9Y-105.3
X92.9Y-105.9
X93.0Y-124.5
X93.0Y-138.6
X93.0Y-139.2
X93.0Y-139.8
X93.0Y-151.4
X93.0Y-152.0
X93.0Y-152.6
X93.15Y-135.45
X93.6Y-124.5
X93.6Y-138.6
X93.6Y-139.2
X93.6Y-139.8
X93.6Y-151.4
X93.6Y-152.0
X93.6Y-152.6
X93.675Y-127.675
X93.85Y-146.05
X93.9Y-135.4
X94.2Y-124.5
X94.2Y-138.6
X94.2Y-139.2
X94.2Y-139.8
X94.2Y-151.4
X94.2Y-152.0
X94.2Y-152.6
X94.252Y-132.748
X94.35Y-159.45
X94.401Y-133.674
X94.65Y-135.8
X94.8Y-124.5
X94.8Y-151.4
X94.8Y-152.0
X94.8Y-152.6
X94.85Y-122.15
X94.9Y-141.65
X94.925Y-132.475
X95.35Y-134.475
X95.4Y-151.4
X95.4Y-152.0
X95.4Y-152.6
X95.45Y-136.0
X95.6Y-104.1
X95.879Y-135.125
X96.0Y-151.4
X96.0Y-152.0
X96.0Y-152.6
X96.05Y-118.65
X96.2Y-108.5
X96.278Y-135.801
X96.3Y-122.675
X96.325Y-139.175
X96.4Y-104.1
X96.6Y-151.4
X96.6Y-152.0
X96.6Y-152.6
X96.65Y-148.85
X96.675Y-139.9
X96.678Y-136.55
X96.778Y-138.642
X96.801Y-137.943
X96.85Y-118.85
X96.85Y-137.245
X97.2Y-151.4
X97.2Y-152.0
X97.2Y-152.6
X97.4Y-108.8
X97.4Y-109.4
X97.8Y-151.4
X97.8Y-152.0
X97.8Y-152.6
X98.0Y-108.8
X98.0Y-109.4
X98.0Y-110.0
X98.05Y-127.075
X98.154Y-126.383
X98.251Y-125.584
X98.35Y-143.8
X98.4Y-151.4
X98.4Y-152.0
X98.4Y-152.6
X98.525Y-127.775
X98.6Y-108.8
X98.6Y-109.4
X98.6Y-110.0
X98.6Y-110.6
X98.751Y-145.35
X99.0Y-151.4
X99.0Y-152.0
X99.0Y-152.6
X99.2Y-108.8
X99.2Y-109.4
X99.2Y-110.0
X99.2Y-120.1
X99.225Y-127.541
X99.4Y-153.6
X99.4Y-154.2
X99.4Y-154.8
X99.4Y-155.4
X99.4Y-156.0
X99.4Y-156.6
X99.5Y-97.3
X99.5Y-97.9
X99.675Y-82.875
X99.775Y-128.1
X99.8Y-108.8
X99.8Y-109.4
X99.8Y-138.2
X99.8Y-138.8
X99.95Y-119.725
X99.975Y-143.45
X100.1Y-97.3
X100.1Y-97.9
X100.125Y-122.625
X100.275Y-118.95
X100.4Y-138.2
X100.4Y-138.8
X100.4Y-139.4
X100.7Y-97.3
X101.0Y-138.2
X101.0Y-138.8
X101.0Y-144.825
X101.075Y-147.375
X101.1Y-99.3
X101.3Y-97.3
X101.325Y-112.825
X101.4Y-139.5
X101.45Y-146.775
X101.7Y-99.3
X101.8Y-131.4
X102.1Y-132.15
X102.5Y-112.6
X103.6Y-129.6
X103.625Y-105.5
X104.2Y-129.6
X104.201Y-103.276
X104.4Y-78.4
X104.4Y-79.0
X104.4Y-79.6
X104.4Y-80.2
X104.475Y-97.575
X104.6Y-136.125
X104.8Y-129.6
X104.85Y-102.575
X105.0Y-78.4
X105.0Y-79.0
X105.0Y-79.6
X105.0Y-80.2
X105.15Y-101.825
X105.275Y-133.65
X105.4Y-121.0
X105.4Y-134.475
X105.5Y-123.4
X105.5Y-124.0
X105.55Y-149.25
X105.575Y-129.125
X105.9Y-150.55
X106.0Y-121.0
X106.1Y-123.4
X106.1Y-124.0
X106.35Y-151.9
X106.375Y-138.525
X106.6Y-121.0
X106.7Y-123.4
X106.7Y-124.0
X106.75Y-156.1
X107.2Y-121.0
X107.55Y-126.35
X107.6Y-157.25
X107.8Y-121.0
X107.95Y-155.35
X108.15Y-125.75
X108.4Y-139.0
X108.4Y-139.6
X108.65Y-144.05
X108.975Y-125.2
X109.0Y-139.0
X109.0Y-139.6
X109.0Y-155.3
X109.2Y-101.6
X109.2Y-102.2
X109.2Y-102.8
X109.2Y-103.4
X109.2Y-104.0
X109.2Y-104.6
X109.2Y-105.2
X109.2Y-106.0
X109.2Y-106.6
X109.2Y-107.4
X109.25Y-154.0
X109.6Y-71.0
X109.6Y-71.6
X109.6Y-72.2
X109.6Y-72.8
X109.6Y-139.0
X109.8Y-79.2
X109.8Y-79.8
X109.8Y-80.4
X109.8Y-99.6
X109.8Y-140.175
X110.0Y-108.6
X110.2Y-71.0
X110.2Y-71.6
X110.2Y-72.2
X110.2Y-72.8
X110.2Y-139.0
X110.213Y-144.361
X110.4Y-79.8
X110.4Y-80.4
X110.4Y-99.0
X110.4Y-108.2
X110.6Y-101.6
X110.6Y-102.2
X110.6Y-102.8
X110.6Y-103.4
X110.6Y-104.0
X110.6Y-104.6
X110.6Y-105.2
X110.6Y-106.0
X110.6Y-106.6
X110.6Y-107.4
X110.8Y-139.0
X110.8Y-139.6
X110.8Y-140.2
X110.8Y-140.8
X111.0Y-80.4
X111.0Y-98.4
X111.0Y-98.4
X111.0Y-100.8
X111.2Y-117.8
X111.4Y-139.6
X111.4Y-140.2
X111.4Y-140.8
X111.6Y-97.8
X111.6Y-100.2
X111.6Y-126.2
X111.6Y-126.8
X111.6Y-127.4
X111.8Y-81.4
X111.8Y-82.0
X111.8Y-117.8
X112.0Y-140.2
X112.0Y-140.8
X112.2Y-97.2
X112.2Y-99.6
X112.2Y-99.6
X112.2Y-126.2
X112.2Y-126.8
X112.2Y-127.4
X112.35Y-143.85
X112.4Y-81.4
X112.4Y-82.0
X112.4Y-117.8
X112.6Y-140.8
X112.8Y-79.0
X112.8Y-79.6
X112.8Y-96.6
X112.8Y-99.0
X112.8Y-126.2
X112.8Y-126.8
X112.8Y-127.4
X113.0Y-117.8
X113.4Y-79.0
X113.4Y-79.6
X113.4Y-96.0
X113.4Y-98.4
X113.4Y-126.2
X113.4Y-126.8
X113.4Y-127.4
X113.511Y-151.011
X113.6Y-117.8
X114.0Y-79.0
X114.0Y-79.6
X114.0Y-95.4
X114.0Y-97.8
X114.0Y-126.2
X114.0Y-126.8
X114.0Y-127.4
X114.225Y-102.75
X114.225Y-103.375
X114.225Y-103.975
X114.4Y-122.4
X114.4Y-123.0
X114.4Y-123.6
X114.4Y-124.2
X114.6Y-75.8
X114.6Y-76.4
X114.6Y-77.0
X114.6Y-77.6
X114.6Y-78.2
X114.6Y-86.6
X114.6Y-87.2
X114.6Y-87.8
X114.6Y-88.4
X114.6Y-89.0
X114.6Y-89.6
X114.6Y-90.2
X114.6Y-90.8
X114.6Y-93.2
X114.6Y-93.8
X114.6Y-94.4
X114.6Y-95.0
X114.6Y-97.2
X114.6Y-107.475
X114.6Y-126.2
X114.6Y-126.8
X114.6Y-127.4
X114.6Y-152.2
X114.6Y-152.8
X115.0Y-122.4
X115.0Y-123.0
X115.0Y-123.6
X115.0Y-124.2
X115.15Y-146.35
X115.2Y-96.8
X115.2Y-126.2
X115.2Y-126.8
X115.2Y-127.4
X115.2Y-151.6
X115.2Y-152.2
X115.2Y-152.8
X115.4Y-88.425
X115.6Y-96.2
X115.775Y-110.45
X115.8Y-126.2
X115.8Y-126.8
X115.8Y-127.4
X115.8Y-151.0
X115.8Y-151.6
X115.8Y-152.2
X115.8Y-152.8
X116.0Y-75.8
X116.0Y-76.4
X116.0Y-77.0
X116.0Y-77.6
X116.0Y-78.2
X116.0Y-86.6
X116.0Y-87.2
X116.0Y-87.8
X116.0Y-95.6
X116.2Y-89.0
X116.2Y-89.6
X116.2Y-90.2
X116.2Y-90.8
X116.2Y-93.2
X116.2Y-93.8
X116.2Y-94.4
X116.2Y-95.0
X116.4Y-126.2
X116.4Y-126.8
X116.4Y-127.4
X116.4Y-151.0
X116.4Y-151.6
X116.4Y-152.2
X116.4Y-152.8
X116.5Y-145.9
X116.675Y-81.525
X116.8Y-123.525
X117.0Y-126.2
X117.0Y-126.8
X117.0Y-127.4
X117.6Y-81.8
X117.925Y-80.025
X117.925Y-123.225
X118.05Y-103.3
X118.05Y-107.45
X118.1Y-104.85
X118.2Y-81.8
X118.25Y-143.8
X118.5Y-142.2
X118.7Y-145.65
X118.8Y-81.8
X119.525Y-129.975
X119.55Y-130.55
X119.55Y-131.15
X119.55Y-131.725
X119.8Y-122.4
X119.8Y-123.0
X119.95Y-109.9
X120.0Y-153.6
X120.0Y-154.2
X120.0Y-154.8
X120.0Y-155.4
X120.0Y-156.0
X120.0Y-156.6
X120.0Y-157.2
X120.0Y-157.8
X120.0Y-158.4
X120.0Y-159.0
X120.0Y-159.6
X120.125Y-129.975
X120.125Y-130.55
X120.125Y-131.15
X120.125Y-131.725
X120.4Y-121.8
X120.4Y-122.4
X120.4Y-123.0
X120.6Y-153.6
X120.6Y-154.2
X120.725Y-129.975
X120.725Y-130.575
X120.725Y-131.15
X120.725Y-131.725
X121.0Y-121.2
X121.0Y-121.8
X121.0Y-122.4
X121.0Y-123.0
X121.2Y-153.6
X121.2Y-154.2
X121.6Y-121.2
X121.6Y-121.8
X121.6Y-122.4
X121.6Y-123.0
X122.2Y-121.2
X122.2Y-121.8
X122.2Y-122.4
X122.2Y-123.0
X122.6Y-110.4
X122.8Y-121.8
X122.8Y-122.4
X122.8Y-123.0
X123.2Y-110.4
X123.4Y-122.4
X123.4Y-123.0
X123.8Y-110.4
X124.4Y-110.4
X124.8Y-82.4
X124.8Y-83.0
X125.0Y-110.4
X125.2Y-75.8
X125.2Y-76.4
X125.2Y-77.0
X125.2Y-77.6
X125.2Y-78.2
X125.2Y-79.0
X125.2Y-79.8
X125.4Y-82.4
X125.4Y-83.0
X125.6Y-80.4
X125.6Y-110.4
X125.8Y-118.0
X125.8Y-118.6
X125.8Y-119.2
X125.8Y-119.8
X125.8Y-120.4
X125.8Y-121.0
X126.0Y-82.4
X126.0Y-83.0
X126.2Y-81.0
X126.2Y-110.4
X126.4Y-118.0
X126.4Y-118.6
X126.4Y-119.2
X126.4Y-119.8
X126.4Y-120.4
X126.4Y-121.0
X126.6Y-75.8
X126.6Y-76.4
X126.6Y-77.0
X126.6Y-77.6
X126.6Y-78.2
X126.6Y-79.0
X126.6Y-82.4
X126.6Y-83.0
X126.8Y-81.6
X127.0Y-118.0
X127.0Y-118.6
X127.0Y-119.2
X127.0Y-119.8
X127.0Y-120.4
X127.0Y-121.0
X127.2Y-79.6
X127.2Y-82.4
X127.2Y-83.0
X127.4Y-81.6
X127.4Y-146.4
X127.4Y-147.05
X127.4Y-147.65
X127.5Y-111.7
X127.6Y-118.0
X127.6Y-118.6
X127.6Y-119.2
X127.6Y-119.8
X127.6Y-120.4
X127.6Y-121.0
X127.8Y-80.0
X127.8Y-82.4
X127.8Y-83.0
X128.0Y-81.6
X128.0Y-146.4
X128.0Y-147.05
X128.0Y-147.65
X128.2Y-118.0
X128.2Y-118.6
X128.2Y-119.2
X128.2Y-119.8
X128.2Y-120.4
X128.2Y-121.0
X128.4Y-80.0
X128.4Y-82.4
X128.4Y-83.0
X128.4Y-135.15
X128.4Y-135.75
X128.6Y-81.6
X128.6Y-146.4
X128.6Y-147.05
X128.6Y-147.65
X128.8Y-118.0
X128.8Y-118.6
X128.8Y-119.2
X128.8Y-119.8
X128.8Y-120.4
X128.8Y-121.0
X129.0Y-80.0
X129.0Y-82.4
X129.0Y-83.0
X129.05Y-135.15
X129.05Y-135.75
X129.2Y-81.6
X129.4Y-118.0
X129.4Y-118.6
X129.4Y-119.2
X129.4Y-119.8
X129.4Y-120.4
X129.4Y-121.0
X129.6Y-80.0
X129.8Y-81.6
X130.2Y-80.0
X130.4Y-81.8
X130.8Y-80.2
X130.8Y-82.4
X131.2Y-82.8
X131.4Y-80.6
X131.6Y-83.4
X131.65Y-111.55
X131.8Y-81.0
X132.2Y-81.4
X132.6Y-81.8
X132.8Y-148.2
X132.8Y-148.8
X132.8Y-149.4
X133.0Y-82.2
X133.2Y-154.8
X133.2Y-155.4
X133.2Y-156.0
X133.2Y-156.6
X133.4Y-82.6
X133.4Y-83.2
X133.4Y-83.8
X133.8Y-154.8
X133.8Y-155.4
X133.8Y-156.0
X133.8Y-156.6
X134.2Y-148.2
X134.2Y-148.8
X134.2Y-149.4
X134.2Y-150.0
X134.2Y-150.6
X134.4Y-154.8
X134.4Y-155.4
X134.4Y-156.0
X134.4Y-156.6
X134.8Y-81.2
X134.8Y-81.8
X134.8Y-82.4
X134.8Y-148.2
X134.8Y-148.8
X134.8Y-149.4
X134.8Y-150.0
X134.8Y-150.6
X135.0Y-154.8
X135.0Y-155.4
X135.0Y-156.0
X135.0Y-156.6
X135.4Y-81.2
X135.4Y-81.8
X135.4Y-82.4
X135.4Y-148.2
X135.4Y-148.8
X135.4Y-149.4
X135.4Y-150.0
X135.6Y-154.8
X135.6Y-155.4
X135.6Y-156.0
X135.6Y-156.6
X136.0Y-81.2
X136.0Y-81.8
X136.0Y-82.4
X136.2Y-154.8
X136.2Y-155.4
X136.2Y-156.0
X136.2Y-156.6
X136.6Y-81.2
X136.6Y-81.8
X136.6Y-82.4
X136.8Y-148.2
X136.8Y-148.8
X136.8Y-149.4
X136.8Y-150.0
X136.8Y-154.8
X136.8Y-155.4
X136.8Y-156.0
X136.8Y-156.6
X137.2Y-81.2
X137.2Y-81.8
X137.2Y-82.4
X137.4Y-148.2
X137.4Y-148.8
X137.4Y-149.4
X137.4Y-150.0
X137.4Y-154.8
X137.4Y-155.4
X137.4Y-156.0
X137.4Y-156.6
X137.8Y-81.2
X137.8Y-81.8
X137.8Y-82.4
X138.0Y-154.8
X138.0Y-155.4
X138.0Y-156.0
X138.0Y-156.6
X138.4Y-81.2
X138.4Y-81.8
X138.4Y-82.4
X139.0Y-81.2
X139.0Y-81.8
X139.0Y-82.4
X139.25Y-92.85
X139.25Y-93.525
T2
X67.5Y-148.3
X73.8Y-152.4
X74.8Y-152.4
X77.5Y-148.5
X77.5Y-149.6
X99.6Y-75.5
X99.6Y-76.4
X99.6Y-77.3
X99.6Y-78.2
X99.6Y-79.1
X99.6Y-79.1
X99.6Y-80.0
X99.6Y-80.9
X99.6Y-81.8
X102.55Y-92.125
X103.5Y-92.125
X104.45Y-92.125
X105.4Y-92.125
T3
X41.775Y-75.0
X41.775Y-165.0
X42.72Y-72.72
X42.72Y-77.28
X42.72Y-162.72
X42.72Y-167.28
X45.0Y-71.775
X45.0Y-78.225
X45.0Y-161.775
X45.0Y-168.225
X47.28Y-72.72
X47.28Y-77.28
X47.28Y-162.72
X47.28Y-167.28
X48.225Y-75.0
X48.225Y-165.0
X131.775Y-75.0
X131.775Y-165.0
X132.72Y-72.72
X132.72Y-77.28
X132.72Y-162.72
X132.72Y-167.28
X135.0Y-71.775
X135.0Y-78.225
X135.0Y-161.775
X135.0Y-168.225
X137.28Y-72.72
X137.28Y-77.28
X137.28Y-162.72
X137.28Y-167.28
X138.225Y-75.0
X138.225Y-165.0
T4
X47.75Y-109.625
X49.02Y-109.625
X50.29Y-109.625
X51.56Y-109.625
X111.675Y-119.49
X111.675Y-120.76
X111.675Y-122.03
X111.675Y-123.3
T5
X48.625Y-146.614
X48.625Y-148.646
X48.625Y-150.678
X48.625Y-152.71
X50.405Y-145.598
X50.405Y-147.63
X50.405Y-149.662
X50.405Y-151.694
X55.225Y-142.29
X55.225Y-144.58
X55.225Y-153.72
X55.225Y-156.01
X64.388Y-152.38
X65.657Y-149.84
X66.927Y-152.38
X68.197Y-149.84
X69.468Y-152.38
X70.737Y-149.84
X72.007Y-152.38
X73.278Y-149.84
X82.231Y-154.8
X84.521Y-154.8
X85.539Y-159.62
X86.555Y-161.4
X87.571Y-159.62
X88.587Y-161.4
X89.603Y-159.62
X90.619Y-161.4
X91.635Y-159.62
X92.651Y-161.4
X93.661Y-154.8
X95.951Y-154.8
X103.015Y-154.8
X105.305Y-154.8
X106.323Y-159.62
X107.339Y-161.4
X108.355Y-159.62
X109.371Y-161.4
X110.387Y-159.62
X111.403Y-161.4
X112.419Y-159.62
X113.435Y-161.4
X114.445Y-154.8
X116.735Y-154.8
T6
X83.5Y-95.05
X83.5Y-100.05
X133.56Y-123.84
X133.56Y-126.38
X133.56Y-128.92
X133.56Y-131.46
X133.56Y-134.0
X133.56Y-136.54
X133.56Y-139.08
X133.56Y-141.62
X133.56Y-144.16
X133.56Y-146.7
X136.1Y-123.84
X136.1Y-126.38
X136.1Y-128.92
X136.1Y-131.46
X136.1Y-134.0
X136.1Y-136.54
X136.1Y-139.08
X136.1Y-141.62
X136.1Y-144.16
X136.1Y-146.7
T7
X62.212Y-163.63
X64.752Y-163.63
X72.922Y-163.63
X75.462Y-163.63
T8
X115.3Y-74.3
X125.875Y-74.3
T9
X49.515Y-141.02
X49.515Y-157.28
X80.961Y-160.51
X97.221Y-160.51
X101.745Y-160.51
X118.005Y-160.51
T10
X61.092Y-155.68
X76.582Y-155.68
T11
X112.76Y-71.76
X112.76Y-76.84
X117.84Y-71.76
X117.84Y-76.84
X123.335Y-71.76
X123.335Y-76.84
X128.415Y-71.76
X128.415Y-76.84
T12
X45.0Y-75.0
X45.0Y-165.0
X135.0Y-75.0
X135.0Y-165.0
T6
G00X126.475Y-155.838
M15
G01X123.975Y-155.838
M16
G05
G00X126.225Y-161.838
M15
G01X124.225Y-161.838
M16
G05
G00X129.925Y-157.838
M15
G01X129.925Y-159.838
M16
G05
T0
M30
